<?xml version="1.0" encoding="UTF-8"?>
<svg version="1.1" xmlns="http://www.w3.org/2000/svg" width="512" height="512">
<path d="M0 0 C1.19044922 -0.01998047 2.38089844 -0.03996094 3.60742188 -0.06054688 C13.02075819 -0.05537187 20.804454 1.26879028 27.875 7.8125 C31.30456561 11.58178674 33.9375 15.19846619 33.9375 20.4375 C35.75169434 20.21815796 35.75169434 20.21815796 37.60253906 19.99438477 C42.14231281 19.44610663 46.68243278 18.90074159 51.22265625 18.35620117 C53.17782819 18.12130362 55.13290871 17.88564374 57.08789062 17.64916992 C105.09437095 11.8447054 143.37309606 18.43325341 187.8984375 37.0859375 C195.64506238 40.33067379 203.42461739 43.49128317 211.21166992 46.63754272 C215.08237959 48.20210769 218.95116155 49.77142906 222.8203125 51.33984375 C228.1401085 53.49606123 233.46105849 55.64936635 238.78417969 57.79736328 C243.83022239 59.83393223 248.87340888 61.87744629 253.91500854 63.92498779 C255.87425142 64.71928582 257.83446569 65.51119233 259.79568481 66.30059814 C262.5421353 67.40642697 265.28505185 68.52062457 268.02734375 69.63671875 C268.84133636 69.96217178 269.65532898 70.28762482 270.49398804 70.62294006 C276.72007892 73.17257893 282.20193904 75.85095765 286.25 81.4375 C286.74113281 82.0975 287.23226563 82.7575 287.73828125 83.4375 C288.95476969 85.46630157 289.418787 87.1493232 289.9375 89.4375 C290.82816162 89.13438904 291.71882324 88.83127808 292.63647461 88.51898193 C302.20170352 85.29331389 311.82077145 82.31603056 321.5 79.453125 C323.06345185 78.98877718 324.62684562 78.52423376 326.19018555 78.05950928 C329.45381333 77.08990294 332.71791595 76.12191903 335.98242188 75.15527344 C340.86940896 73.70816757 345.75505586 72.2565718 350.640625 70.8046875 C355.43069955 69.38119236 360.22147897 67.96024185 365.01538086 66.54968262 C366.58707988 66.08716859 368.15877586 65.62464425 369.73046875 65.16210938 C370.49951035 64.93585625 371.26855194 64.70960312 372.06089783 64.47649384 C376.59197624 63.14006841 381.11446258 61.77850226 385.63072205 60.39284134 C388.44395954 59.53161783 391.26088075 58.68288462 394.07846069 57.83599091 C395.98723938 57.25719611 397.89084932 56.66143838 399.79418945 56.06500244 C409.90073674 53.04328965 419.73515333 51.51085828 429.6171875 56.0546875 C436.25426847 60.01011959 440.79207914 65.35034124 443.3125 72.6640625 C445.07336393 80.47789618 444.8439484 87.96833116 441.3984375 95.2421875 C436.60542024 102.44452894 431.62944773 106.18758584 423.875 110 C422.87549316 110.50611816 421.87598633 111.01223633 420.84619141 111.53369141 C417.55371026 113.19027618 414.24832783 114.81791344 410.9375 116.4375 C409.8016748 116.9938916 408.66584961 117.5502832 407.49560547 118.12353516 C400.84804466 121.36893983 394.1841397 124.57898869 387.51051331 127.77033997 C380.89464139 130.93408156 374.29077536 134.12255997 367.6875 137.3125 C365.90931885 138.17077393 365.90931885 138.17077393 364.09521484 139.04638672 C355.56978354 143.16175118 347.05035621 147.28942947 338.53286743 151.42120361 C336.44483171 152.43394397 334.35660607 153.44629158 332.26831055 154.45849609 C330.88590384 155.12857845 329.50349824 155.79866308 328.12109375 156.46875 C327.44000046 156.79888092 326.75890717 157.12901184 326.05717468 157.46914673 C322.68571867 159.10368732 319.31499578 160.73970969 315.94580078 162.37890625 C265.77681132 186.78695686 265.77681132 186.78695686 249.9375 187.4375 C249.1125 187.47746094 248.2875 187.51742187 247.4375 187.55859375 C236.83478309 187.82057949 226.86177151 186.28658584 216.86328125 182.87109375 C216.09006531 182.60988235 215.31684937 182.34867096 214.52020264 182.07954407 C205.50609406 178.99977024 196.5979936 175.63557989 187.69064331 172.26205444 C182.45948472 170.28142565 177.22355994 168.31345661 171.98828125 166.34375 C170.91490005 165.93960373 169.84151886 165.53545746 168.73561096 165.11906433 C158.11714827 161.12321239 147.48549049 157.16337245 136.84558105 153.2250061 C134.89266393 152.50184093 132.94009776 151.77772716 130.98791504 151.05258179 C97.80451181 138.7285837 70.29723088 132.76949141 34.9375 138.4375 C34.68500488 139.11441895 34.43250977 139.79133789 34.17236328 140.48876953 C33.82931152 141.38192871 33.48625977 142.27508789 33.1328125 143.1953125 C32.79781738 144.07848145 32.46282227 144.96165039 32.11767578 145.87158203 C28.99126941 152.66896121 23.69234165 156.0249693 16.90234375 158.62597656 C11.32554443 160.1524325 5.74272182 159.97138569 0 159.875 C-1.21751953 159.88208984 -2.43503906 159.88917969 -3.68945312 159.89648438 C-12.49303423 159.83307908 -12.49303423 159.83307908 -14.70496559 158.29656219 C-16.66567595 155.6114866 -16.44011785 153.59364283 -16.44345093 150.28845215 C-16.4519104 149.00129807 -16.46036987 147.71414398 -16.46908569 146.38798523 C-16.46325257 144.95852535 -16.45710805 143.52906672 -16.45068359 142.09960938 C-16.45474795 140.59666054 -16.46008906 139.0937147 -16.46661377 137.59077454 C-16.48030952 133.50609599 -16.47497949 129.42164434 -16.46547651 125.33696175 C-16.45789158 121.06622828 -16.46492227 116.79551449 -16.46963501 112.52478027 C-16.47509597 105.35225937 -16.46789204 98.17983107 -16.45361328 91.00732422 C-16.43728609 82.70992597 -16.44257435 74.41274886 -16.4590925 66.11535597 C-16.47269769 58.9968169 -16.47463177 51.87834448 -16.46677649 44.75979662 C-16.46209464 40.50581772 -16.46148913 36.25194283 -16.47138596 31.99797058 C-16.48003933 27.99899612 -16.47406379 24.0003073 -16.45670319 20.00136375 C-16.45272959 18.5319739 -16.45388729 17.06256009 -16.46049118 15.5931797 C-16.46866146 13.5909777 -16.45660969 11.58872328 -16.44345093 9.58654785 C-16.44175431 7.90412868 -16.44175431 7.90412868 -16.44002342 6.18772125 C-16.0625 3.4375 -16.0625 3.4375 -14.70496559 1.57843781 C-10.75624345 -1.16453982 -4.61522239 -0.0268753 0 0 Z M-5.0625 11.4375 C-5.0625 56.6475 -5.0625 101.8575 -5.0625 148.4375 C7.31109737 149.45007785 7.31109737 149.45007785 17.87109375 144.6640625 C22.36050082 139.80430193 24.05299753 136.49874884 24.07794189 129.86552429 C24.08365204 128.95299896 24.08936218 128.04047363 24.09524536 127.10029602 C24.09636322 126.10644394 24.09748108 125.11259186 24.09863281 124.08862305 C24.10359772 123.0361438 24.10856262 121.98366455 24.11367798 120.89929199 C24.12828833 117.4159276 24.13509965 113.93260875 24.140625 110.44921875 C24.14637723 108.02789814 24.15213496 105.60657754 24.15789795 103.18525696 C24.16840463 98.1069823 24.17424953 93.02872345 24.17773438 87.95043945 C24.18321934 81.44709353 24.20724908 74.94395695 24.23570633 68.44067669 C24.2543403 63.43835338 24.25953872 58.43608044 24.26107025 53.43372536 C24.26409541 51.03637357 24.2721193 48.63902264 24.28525543 46.24170494 C24.30233185 42.88582858 24.30043154 39.53046287 24.29394531 36.17456055 C24.3031601 35.18678116 24.31237488 34.19900177 24.3218689 33.18128967 C24.28268106 26.70069942 23.60226958 21.60743917 19.2890625 16.4765625 C18.71929687 16.00992187 18.14953125 15.54328125 17.5625 15.0625 C16.99789062 14.58039063 16.43328125 14.09828125 15.8515625 13.6015625 C9.82684127 9.93754837 1.33389759 11.4375 -5.0625 11.4375 Z M45.703125 30.24609375 C44.84620056 30.35034164 43.98927612 30.45458954 43.10638428 30.56199646 C38.89164324 31.02496391 38.89164324 31.02496391 34.9375 32.4375 C34.9375 63.4575 34.9375 94.4775 34.9375 126.4375 C42.3625 125.4475 42.3625 125.4475 49.9375 124.4375 C55.16676055 124.08606723 60.38525204 124.04614283 65.625 124.0625 C66.31993561 124.06337616 67.01487122 124.06425232 67.73086548 124.06515503 C83.23872702 124.12925818 96.97120336 126.64561117 111.6484375 131.578125 C112.55513687 131.88192581 113.46183624 132.18572662 114.39601135 132.49873352 C123.65975282 135.63382959 132.81205446 139.04888796 141.95501709 142.51782227 C146.03450077 144.06465101 150.11821847 145.60016189 154.20166016 147.13650513 C157.48516788 148.37193419 160.7682388 149.60851885 164.05126953 150.84521484 C174.9377602 154.94429089 185.82723009 159.0351066 196.7270813 163.09854126 C199.10077051 163.98498499 201.47340871 164.87424864 203.84494019 165.76644897 C207.17266472 167.0180754 210.50383626 168.26008067 213.8359375 169.5 C214.81316269 169.8700264 215.79038788 170.2400528 216.79722595 170.62129211 C237.67190925 178.33951856 257.21923784 176.82382644 277.37646484 167.77563477 C294.81024611 159.74262348 311.98308159 151.11949811 329.20019531 142.63598633 C340.36365915 137.13642795 351.54708394 131.6858486 362.78077698 126.33105469 C368.58850015 123.56266974 374.3868112 120.77637377 380.171875 117.9609375 C380.88098022 117.61593201 381.59008545 117.27092651 382.32067871 116.91546631 C385.19398154 115.51650189 388.06649237 114.1159338 390.93783569 112.71295166 C405.42319279 105.63544086 405.42319279 105.63544086 412.19140625 102.59375 C413.06893555 102.19623535 413.94646484 101.7987207 414.85058594 101.38916016 C416.37169523 100.70661112 417.89912757 100.03784678 419.43457031 99.38818359 C425.37744028 96.71403784 429.02559255 92.59630361 432.375 87.0625 C433.39065845 82.32276059 433.07778065 77.80928374 430.9609375 73.40625 C427.71889088 68.46997257 424.07410909 66.35709607 418.40600586 64.6953125 C413.36726286 64.32078497 409.18110953 65.74632867 404.37890625 67.1875 C403.30048965 67.50041992 402.22207306 67.81333984 401.11097717 68.13574219 C398.05167627 69.02746995 394.99627768 69.931344 391.94235992 70.84130859 C389.15092199 71.67140714 386.35709823 72.49334057 383.56343651 73.31591797 C374.14111118 76.091392 364.72795547 78.8973494 355.31622314 81.70849609 C348.86010731 83.63643688 342.40291696 85.56077448 335.94569778 87.48501587 C333.61445378 88.18016162 331.28356677 88.87649401 328.95272827 89.57299805 C322.09634503 91.6197535 315.23641311 93.64877648 308.35595703 95.61328125 C307.22718643 95.93651367 306.09841583 96.25974609 304.93544006 96.59277344 C302.88050191 97.17874693 300.82398426 97.75922203 298.76560974 98.33300781 C297.43832603 98.71150879 297.43832603 98.71150879 296.08422852 99.09765625 C295.32433121 99.31043213 294.5644339 99.52320801 293.7815094 99.74243164 C291.72863539 100.37152435 291.72863539 100.37152435 289.9375 102.4375 C289.504375 103.675 289.07125 104.9125 288.625 106.1875 C286.01104314 113.3661278 281.61213032 117.1608633 274.9375 120.4375 C265.5842759 123.38124647 256.11277458 121.09569032 247.10546875 118.140625 C246.00589844 117.79537781 244.90632812 117.45013062 243.7734375 117.09442139 C240.21874496 115.9745396 236.67207421 114.83125668 233.125 113.6875 C230.67087608 112.9097293 228.2161994 112.13370067 225.76098633 111.359375 C220.83186144 109.80331518 215.90531043 108.23948188 210.98046875 106.66992188 C201.05290092 103.51330146 191.08926097 100.47579982 181.125 97.4375 C177.99270335 96.48171228 174.86124928 95.52324105 171.73046875 94.5625 C171.06233154 94.35913025 170.39419434 94.1557605 169.70581055 93.94622803 C167.3648268 93.227058 165.13223081 92.5348654 162.9375 91.4375 C162.0625 89.125 162.0625 89.125 161.9375 86.4375 C163.47932434 84.18006897 163.47932434 84.18006897 165.9375 82.4375 C168.61964793 82.68528055 170.61176873 83.08977344 173.14331055 83.86889648 C173.84756763 84.06600692 174.5518247 84.26311735 175.2774229 84.46620083 C177.50568579 85.09808977 179.72138697 85.76435476 181.9375 86.4375 C183.30241379 86.84012299 184.66745192 87.24232475 186.03262329 87.64407349 C190.24947112 88.90050828 194.44691468 90.21617659 198.64453125 91.53515625 C200.18701012 92.01594377 201.72963115 92.49627545 203.27238464 92.97618103 C207.28540206 94.22554589 211.2968549 95.47985272 215.30786133 96.73565674 C221.74095917 98.74909481 228.17617701 100.7557316 234.6119442 102.76061821 C236.8340935 103.45380309 239.05538016 104.14969621 241.27656555 104.84596252 C255.93923489 110.54407306 255.93923489 110.54407306 270.9375 110.4375 C275.51626744 107.53174374 277.95795959 104.75834915 279.5859375 99.55078125 C280.22262992 95.72355238 279.62791016 92.89864961 277.9375 89.4375 C273.18584239 83.91347648 266.99019612 81.43754789 260.3359375 78.8984375 C259.31487915 78.49563568 258.2938208 78.09283386 257.24182129 77.67782593 C253.93682288 76.37681376 250.62478229 75.0948393 247.3125 73.8125 C245.01775749 72.91209701 242.72365162 72.01006984 240.43017578 71.10644531 C237.02397843 69.7645026 233.6174993 68.42337096 230.20895386 67.08740234 C222.03474941 63.88268516 213.90942907 60.58240345 205.8125 57.1875 C169.14988522 40.99501683 169.14988522 40.99501683 130.9375 29.4375 C130.17904785 29.26976074 129.4205957 29.10202148 128.63916016 28.92919922 C101.25262353 23.12478605 73.14182915 26.86786308 45.703125 30.24609375 Z " fill="#000000" transform="translate(42.0625,250.5625)"/>
<path d="M0 0 C1.48826099 -0.00576172 1.48826099 -0.00576172 3.00658786 -0.01163983 C4.09946806 -0.01077335 5.19234825 -0.00990687 6.31834602 -0.00901413 C7.47711034 -0.01198525 8.63587466 -0.01495637 9.82975304 -0.01801753 C13.05137742 -0.02520472 16.27296935 -0.02787738 19.49460053 -0.028615 C22.9670746 -0.03046464 26.43953709 -0.03801147 29.91200447 -0.04475021 C37.50696005 -0.05833714 45.10191034 -0.06435866 52.69687605 -0.06876087 C57.4376248 -0.07152238 62.17837151 -0.07575954 66.91911888 -0.08026505 C80.04068753 -0.09245761 93.16225454 -0.10275732 106.28382874 -0.10614014 C107.12376716 -0.1063597 107.96370558 -0.10657927 108.82909668 -0.10680549 C109.67106031 -0.10702377 110.51302395 -0.10724204 111.38050163 -0.10746694 C113.08668129 -0.1079104 114.79286095 -0.10835697 116.4990406 -0.10880661 C117.34536714 -0.10902804 118.19169368 -0.10924947 119.06366648 -0.10947761 C132.78209159 -0.11342698 146.50046363 -0.13088528 160.21886824 -0.15416613 C174.29781398 -0.17786636 188.37673307 -0.19034136 202.45569909 -0.19150805 C210.3627932 -0.1924255 218.26981815 -0.19819545 226.17689323 -0.21632767 C232.90886867 -0.23171066 239.64075357 -0.23685977 246.37274323 -0.22858956 C249.80830382 -0.22467678 253.24368195 -0.22564303 256.6792202 -0.23964691 C260.40186101 -0.2522767 264.12402943 -0.24653816 267.84666634 -0.23606491 C268.93508509 -0.24412132 270.02350384 -0.25217772 271.14490497 -0.26047826 C277.57372153 -0.21800247 281.31361832 0.23758245 285.99775982 4.91844654 C287.63358173 7.90594638 287.58996865 10.13813426 287.59716988 13.53912735 C287.61202682 15.51806992 287.61202682 15.51806992 287.62718391 17.53699112 C287.62294585 18.99742601 287.61838799 20.45786 287.61354256 21.918293 C287.6192453 23.45755382 287.62620919 24.99681042 287.63434029 26.53606033 C287.65229782 30.71583883 287.65109845 34.89540769 287.6453979 39.07521319 C287.64230971 42.56435889 287.6483944 46.05346409 287.65443665 49.54260403 C287.66848885 57.7738249 287.66691489 66.004942 287.65553474 74.23616409 C287.64405316 82.72842382 287.65812819 91.22036776 287.68493122 99.71258587 C287.70708153 107.00357744 287.71372711 114.29446984 287.70785481 121.58549267 C287.70448236 125.9401649 287.70691923 130.2946347 287.72410583 134.64927864 C287.73956229 138.74436007 287.73563422 142.83897341 287.71680069 146.93403625 C287.71311113 148.43645449 287.71623403 149.93890731 287.72668648 151.44129372 C287.73987441 153.49365116 287.72837153 155.54445391 287.71069527 157.59674454 C287.71048598 158.74471229 287.7102767 159.89268003 287.71006107 161.07543468 C287.10085596 164.79463868 285.81061717 166.45525153 283.20948982 169.13142776 C280.76730701 170.35251917 279.19479927 170.26116363 276.46394062 170.26844215 C275.4563407 170.2735167 274.44874077 170.27859124 273.41060752 170.28381956 C271.73773585 170.28456619 271.73773585 170.28456619 270.0310688 170.28532791 C268.26357732 170.29190129 268.26357732 170.29190129 266.46037894 170.29860747 C263.17949172 170.30968892 259.89863145 170.31622513 256.61772978 170.32078862 C253.08320245 170.32673854 249.54869277 170.33834983 246.01417732 170.34907913 C237.47357915 170.37361599 228.93297513 170.38823157 220.39235255 170.4011392 C217.98112487 170.40485 215.56989777 170.40882332 213.15867066 170.41289186 C198.19296132 170.43812573 183.22725108 170.46018405 168.26152515 170.47262001 C164.79406608 170.47554982 161.32660703 170.47851147 157.85914803 170.48152542 C156.99730291 170.48227147 156.1354578 170.48301752 155.24749617 170.48378618 C141.28000853 170.49644511 127.31264804 170.52967472 113.34521987 170.57132725 C99.01318427 170.61371765 84.68121381 170.63731163 70.34911567 170.64254057 C62.29886742 170.64595785 54.24881792 170.65775011 46.19863129 170.69064331 C39.34399212 170.71860523 32.48959243 170.72966023 25.63490065 170.71844785 C22.1364406 170.71325128 18.63848233 170.71621142 15.14009476 170.74091339 C11.34926005 170.76345052 7.55970099 170.75538002 3.76886177 170.73942947 C2.66030616 170.75331156 1.55175055 170.76719365 0.40960234 170.78149641 C-4.32050682 170.73224951 -6.9738713 170.6767274 -10.97328854 168.00617027 C-13.1550034 164.55481998 -13.41882453 162.59615235 -13.42542839 158.52754593 C-13.43322834 157.87751681 -13.4410283 157.22748769 -13.44906461 156.55776072 C-13.46895428 154.38707247 -13.4532348 152.21814354 -13.43748283 150.04744339 C-13.44426041 148.48832554 -13.45316434 146.9292157 -13.46403313 145.370121 C-13.48681678 141.14067754 -13.47799427 136.91184427 -13.4621377 132.68239021 C-13.44947376 128.25510775 -13.46122018 123.82787733 -13.46906853 119.4005928 C-13.47816367 111.96588643 -13.46618081 104.53142845 -13.44236565 97.0967598 C-13.41515452 88.50271719 -13.42396879 79.90926767 -13.45149767 71.31523943 C-13.47419167 63.93502747 -13.47738744 56.55499401 -13.46430433 49.17475843 C-13.45651137 44.76754123 -13.45546382 40.36060275 -13.47198677 35.95340347 C-13.48643664 31.809763 -13.47640113 27.66688674 -13.44751549 23.52332878 C-13.44090732 22.00318356 -13.44279787 20.48297395 -13.45382881 18.96285439 C-13.46750872 16.88613983 -13.45034583 14.81186866 -13.42542839 12.7353096 C-13.42354326 11.57389198 -13.42165813 10.41247437 -13.41971588 9.21586227 C-12.59667589 5.18123108 -10.94500743 3.69255725 -7.79051018 1.13142776 C-4.87820945 0.16066086 -3.02977022 0.00439715 0 0 Z M-1.79051018 12.13142776 C-1.79051018 60.64142776 -1.79051018 109.15142776 -1.79051018 159.13142776 C89.94948982 159.13142776 181.68948982 159.13142776 276.20948982 159.13142776 C276.20948982 110.62142776 276.20948982 62.11142776 276.20948982 12.13142776 C184.46948982 12.13142776 92.72948982 12.13142776 -1.79051018 12.13142776 Z " fill="#000000" transform="translate(170.7905101776123,73.86857223510742)"/>
<path d="M0 0 C0.77067798 -0.00367669 1.54135597 -0.00735338 2.33538783 -0.01114148 C4.93173858 -0.02220208 7.52804935 -0.02602614 10.12442017 -0.02983093 C11.98027169 -0.0360937 13.83612195 -0.04274033 15.69197083 -0.04974365 C20.74360838 -0.0671686 25.79523647 -0.07770907 30.84689665 -0.08594918 C34.0004782 -0.09109522 37.15405679 -0.09717107 40.30763626 -0.10346031 C50.16729693 -0.1225149 60.0269501 -0.13674655 69.88662565 -0.14507228 C81.28165533 -0.15485252 92.67649116 -0.18119147 104.0714525 -0.22157317 C112.87063496 -0.25168997 121.66976171 -0.26653686 130.46899474 -0.26985329 C135.72855636 -0.27220849 140.98791095 -0.28122993 146.24741745 -0.30631447 C151.19355295 -0.32952326 156.13934404 -0.33385753 161.08551979 -0.32355309 C162.90281759 -0.32305589 164.72013193 -0.32943022 166.53737831 -0.34310913 C169.01483805 -0.3607172 171.49104682 -0.35377758 173.96850586 -0.34057617 C174.69087948 -0.35154542 175.4132531 -0.36251466 176.15751684 -0.37381631 C179.56732932 -0.32982359 181.31921311 -0.07854032 184.05253029 2.03410053 C185.84419868 4.46298765 186.14391778 5.9187608 186.42373657 8.89717102 C187.41960635 14.8112398 190.07373554 18.31201231 194.61123657 22.14717102 C199.12980372 24.6574861 203.65358546 25.7090413 208.69326782 26.61982727 C210.61123657 27.14717102 210.61123657 27.14717102 212.61123657 29.14717102 C212.86520386 31.72125244 212.86520386 31.72125244 212.87002563 35.01802063 C212.87632996 36.24947311 212.88263428 37.4809256 212.88912964 38.74969482 C212.88554956 40.09963625 212.88144752 41.44957638 212.87686157 42.79951477 C212.87820846 44.17952544 212.88014919 45.55953564 212.88265991 46.93954468 C212.88561107 49.83391328 212.88131455 52.72815854 212.87197876 55.62251282 C212.86059477 59.33277955 212.86713686 63.0427566 212.87912369 66.75301266 C212.88635167 69.60374126 212.88404988 72.45440124 212.8788681 75.30513191 C212.87753365 76.67307634 212.87917221 78.041027 212.88382721 79.40896416 C212.88890635 81.32161719 212.87979221 83.23429204 212.87002563 85.14692688 C212.86843445 86.23565598 212.86684326 87.32438507 212.86520386 88.44610596 C212.61123657 91.14717102 212.61123657 91.14717102 210.61123657 94.14717102 C207.81826782 94.92060852 207.81826782 94.92060852 204.42373657 95.52217102 C197.97088433 96.91102995 193.2257354 98.3660762 189.37686157 103.93232727 C187.03260487 108.20465017 185.94478328 112.46789225 185.20108032 117.26435852 C184.61123657 119.14717102 184.61123657 119.14717102 181.61123657 121.14717102 C179.08418898 121.34239413 176.66745862 121.42113268 174.1401825 121.40786743 C172.98900921 121.41360575 172.98900921 121.41360575 171.8145799 121.41946 C169.23509236 121.4298041 166.65582683 121.42579521 164.07632446 121.42182922 C162.23017673 121.42617492 160.3840308 121.43135759 158.53788757 121.43731689 C153.51727536 121.45073342 148.4967383 121.45128262 143.47611165 121.4487536 C139.28855386 121.44768569 135.10101138 121.45256261 130.91345686 121.45735902 C121.03641936 121.46846336 111.15941988 121.46888638 101.28237915 121.46284485 C91.08436991 121.45680302 80.88649857 121.46911929 70.68851286 121.49041492 C61.94025798 121.50801317 53.19204706 121.51403509 44.44377512 121.51077718 C39.2155768 121.50896135 33.98747685 121.51163024 28.75929451 121.52549171 C23.84354289 121.53803659 18.92800671 121.53615771 14.01225853 121.52308083 C12.20625868 121.5207082 10.40024383 121.52347417 8.59426117 121.53170395 C6.13234648 121.54211534 3.67116222 121.5341164 1.20927429 121.52139282 C0.49147374 121.52876711 -0.22632682 121.53614139 -0.9658789 121.54373914 C-4.03129494 121.5103181 -6.11340367 121.30134102 -8.81139469 119.79077435 C-11.01174374 117.49803142 -11.22005191 115.50184259 -11.76376343 112.39717102 C-13.3630645 105.24786297 -16.05573442 101.34394014 -22.13876343 97.33467102 C-25.77899041 96.00458808 -29.2856227 95.38215296 -33.11923218 94.86982727 C-36.10950432 93.91767521 -36.79233694 92.82565067 -38.38876343 90.14717102 C-38.76298523 87.45320129 -38.76298523 87.45320129 -38.76107788 84.3405304 C-38.76730667 83.17251892 -38.77353546 82.00450745 -38.779953 80.80110168 C-38.77074326 79.54374207 -38.76153351 78.28638245 -38.75204468 76.99092102 C-38.75254318 75.69650085 -38.75304169 74.40208069 -38.7535553 73.06843567 C-38.7534657 70.33137832 -38.74306243 67.5946163 -38.72494507 64.85762024 C-38.70225805 61.35374821 -38.70171505 57.85030741 -38.70846272 54.34638214 C-38.71261251 50.99867946 -38.70062706 47.65110887 -38.68954468 44.30342102 C-38.69045609 43.0460614 -38.69136749 41.78870178 -38.69230652 40.49324036 C-38.68277451 39.32522888 -38.67324249 38.15721741 -38.66342163 36.95381165 C-38.65651054 35.41303955 -38.65651054 35.41303955 -38.64945984 33.84114075 C-38.38191313 31.07638177 -37.95340254 29.43251797 -36.38876343 27.14717102 C-33.56063843 26.24092102 -33.56063843 26.24092102 -30.13876343 25.64717102 C-22.27277569 24.03407982 -18.09679541 21.85170572 -13.38876343 15.14717102 C-12.13649348 11.62484034 -12.13649348 11.62484034 -11.26376343 7.89717102 C-10.69518498 5.63225523 -10.0832988 3.37668792 -9.38876343 1.14717102 C-6.385129 -0.35464619 -3.29459666 -0.00083568 0 0 Z M0.61123657 12.14717102 C-1.36876343 16.10717102 -3.34876343 20.06717102 -5.38876343 24.14717102 C-10.00520637 31.47916864 -18.17070895 35.0926574 -26.38876343 37.14717102 C-26.38876343 52.32717102 -26.38876343 67.50717102 -26.38876343 83.14717102 C-22.42876343 84.79717102 -18.46876343 86.44717102 -14.38876343 88.14717102 C-6.46299601 93.95195843 -2.9902726 100.1433981 0.61123657 109.14717102 C58.03123657 109.14717102 115.45123657 109.14717102 174.61123657 109.14717102 C176.26123657 105.18717102 177.91123657 101.22717102 179.61123657 97.14717102 C180.60123657 96.15717102 181.59123657 95.16717102 182.61123657 94.14717102 C182.61123657 93.48717102 182.61123657 92.82717102 182.61123657 92.14717102 C183.16811157 91.87002258 183.72498657 91.59287415 184.29873657 91.30732727 C185.88623831 90.51089481 187.46937697 89.7057238 189.04873657 88.89326477 C189.89436157 88.46142883 190.73998657 88.0295929 191.61123657 87.58467102 C192.45686157 87.15025696 193.30248657 86.7158429 194.17373657 86.26826477 C196.61123657 85.14717102 196.61123657 85.14717102 200.61123657 84.14717102 C200.61123657 68.63717102 200.61123657 53.12717102 200.61123657 37.14717102 C196.65123657 35.49717102 192.69123657 33.84717102 188.61123657 32.14717102 C181.12007431 26.76619531 177.50857179 20.83917668 174.61123657 12.14717102 C117.19123657 12.14717102 59.77123657 12.14717102 0.61123657 12.14717102 Z " fill="#000000" transform="translate(220.38876342773438,98.85282897949219)"/>
<path d="M0 0 C8.56099015 6.16743716 14.24659852 14.93779827 16.95703125 25.21875 C18.67394046 38.20025869 16.29471376 50.14854881 8.27734375 60.640625 C0.41466341 69.42832656 -8.51978778 74.33746411 -20.28515625 75.578125 C-32.34377472 76.05298706 -42.51791025 73.05997947 -51.97265625 65.453125 C-60.36335594 57.65570711 -64.98395992 46.86966636 -65.71875 35.56640625 C-65.73554818 22.98457275 -61.55475891 12.80091546 -52.94921875 3.6796875 C-37.94468476 -10.06130679 -16.79571659 -10.93180922 0 0 Z M-47.72265625 15.640625 C-53.02029808 23.42276883 -54.59405621 30.26685111 -53.72265625 39.640625 C-51.74098178 47.77026544 -47.35984602 54.49172248 -40.41015625 59.2109375 C-32.50919213 63.75918987 -24.24519072 65.32976809 -15.21875 62.9921875 C-6.55566327 59.46668786 0.22933289 53.06674202 4.27734375 44.640625 C6.74881189 37.19433068 6.46472021 28.08995121 3.02734375 21.078125 C2.14429141 19.5786483 1.23167695 18.09577446 0.27734375 16.640625 C-0.27953125 15.733125 -0.83640625 14.825625 -1.41015625 13.890625 C-9.15166058 6.35835052 -16.90688998 4.24978869 -27.40234375 4.3671875 C-35.71360573 5.05164437 -42.2358144 9.52022624 -47.72265625 15.640625 Z " fill="#000000" transform="translate(331.72265625,125.359375)"/>
<path d="M0 0 C3.5 1.75 3.5 1.75 6 4 C6.7425 4.61875 7.485 5.2375 8.25 5.875 C11.64788817 10.00100706 12.19570307 13.79053064 11.875 19 C11.1133088 24.89867836 8.84434672 28.33558955 4.4375 32.3125 C-0.40406623 35.66435355 -5.31278277 35.47985895 -11 35 C-16.96923165 32.97271378 -20.35661264 29.0520051 -23.3125 23.5625 C-24.9754896 17.36408423 -24.12937 12.55210806 -21 7 C-14.45579886 0.25886688 -9.36833519 -0.89514198 0 0 Z M-10.25 12.6875 C-12.15162176 14.86900988 -12.15162176 14.86900988 -12.5625 17.5 C-11.77346174 21.00683673 -9.90241012 22.04087317 -7 24 C-4.08482708 22.92598892 -2.22189824 22.22189824 0 20 C-0.08743691 16.47105052 -0.08743691 16.47105052 -1 13 C-4.63308656 10.57794229 -6.62619015 9.96964262 -10.25 12.6875 Z " fill="#000000" transform="translate(391,142)"/>
<path d="M0 0 C4.88006234 2.62528299 8.1174457 6.04374335 9.86328125 11.28125 C10.60884958 17.87420421 10.41782753 23.16860645 6.3984375 28.62109375 C2.27753802 33.07753721 -1.51430843 34.51686687 -7.57421875 34.84375 C-13.19211725 34.61224319 -17.00850839 33.09863041 -21.13671875 29.28125 C-25.28463741 24.75731605 -25.76158357 19.92009328 -25.5234375 13.93359375 C-24.75798286 8.68365741 -22.47606961 5.52259957 -18.57421875 1.90625 C-13.26544618 -1.63293172 -6.03198962 -2.02904221 0 0 Z M-11.88671875 12.46875 C-14.38177951 15.02365377 -14.38177951 15.02365377 -14.26171875 17.90625 C-12.75291097 21.09151086 -11.4095732 22.01673805 -8.13671875 23.28125 C-4.28367073 22.38519232 -3.36902609 21.62971101 -1.13671875 18.28125 C-1.29737344 15.06815612 -1.67992959 13.72281286 -4.01171875 11.46875 C-7.56492466 9.48313493 -8.73146952 9.95889266 -11.88671875 12.46875 Z " fill="#000000" transform="translate(238.13671875,142.71875)"/>
<path d="M0 0 C1.45653449 2.91306897 1.38960309 4.76133313 1 8 C-0.69399726 10.2796578 -2.24575993 12.06571312 -4.2578125 14.01953125 C-4.79848358 14.56357101 -5.33915466 15.10761078 -5.89620972 15.6681366 C-7.04072866 16.81235719 -8.19271941 17.94914636 -9.3515625 19.07885742 C-11.117648 20.80531298 -12.85255538 22.55913894 -14.5859375 24.31835938 C-15.703983 25.42884416 -16.82372148 26.53762756 -17.9453125 27.64453125 C-18.71912766 28.42882256 -18.71912766 28.42882256 -19.50857544 29.22895813 C-22.85733077 32.4505545 -25.31746505 33.88584209 -30 34 C-32.4375 32.4375 -32.4375 32.4375 -34 30 C-33.85788275 24.53207454 -31.5060998 21.81564693 -27.72265625 18.19921875 C-27.19610947 17.67737503 -26.66956268 17.15553131 -26.12705994 16.61787415 C-24.45026536 14.96234234 -22.75661606 13.32528195 -21.0625 11.6875 C-19.92664551 10.56816115 -18.79186741 9.44772891 -17.65820312 8.32617188 C-7.64031613 -1.52806323 -7.64031613 -1.52806323 0 0 Z " fill="#000000" transform="translate(324,143)"/>
<path d="M0 0 C1.9375 1.6875 1.9375 1.6875 3 4 C2.75925978 7.37036311 2.41201979 8.58798021 0 11 C-3.13704316 11.333728 -5.16554166 11.52849028 -7.875 9.8125 C-9.40659584 7.34492892 -9.42822025 5.85480169 -9 3 C-6.74280427 -0.63659311 -4.02330328 -0.58673173 0 0 Z " fill="#000000" transform="translate(323,166)"/>
<path d="M0 0 C2 2 2 2 2.3125 4.9375 C2 8 2 8 0.8125 9.875 C-1.65507108 11.40659584 -3.14519831 11.42822025 -6 11 C-7.8125 9.875 -7.8125 9.875 -9 8 C-9.4375 5 -9.4375 5 -9 2 C-6.12524616 -1.3006433 -4.03854228 -1.38160657 0 0 Z " fill="#000000" transform="translate(299,142)"/>
</svg>
