<?xml version="1.0" encoding="UTF-8"?>
<svg version="1.1" xmlns="http://www.w3.org/2000/svg" width="512" height="512">
<path d="M0 0 C4.94385805 2.79551488 8.13292115 5.84780716 11.4375 10.4375 C12.16453125 9.64085937 12.16453125 9.64085937 12.90625 8.828125 C18.66287176 2.7615313 24.81543088 -2.11653613 33.44140625 -2.80078125 C46.41649654 -3.07139235 54.84164821 0.38996872 64.27734375 9.14453125 C72.26902442 17.45098271 76.12443737 28.14063361 77.4375 39.4375 C78.38109375 39.34210937 79.3246875 39.24671875 80.296875 39.1484375 C95.48186779 37.8372835 108.59935865 39.80761019 120.9609375 49.39453125 C126.63519103 54.74182965 131.04684336 61.51266465 131.67578125 69.44140625 C131.84274599 77.44692599 130.94632833 83.26483485 127.4375 90.4375 C127.1075 91.4275 126.7775 92.4175 126.4375 93.4375 C127.5925 93.953125 128.7475 94.46875 129.9375 95 C136.31237515 98.1930991 142.41248343 102.82027625 145.4375 109.4375 C145.4375 110.0975 145.4375 110.7575 145.4375 111.4375 C146.11554688 111.58445312 146.79359375 111.73140625 147.4921875 111.8828125 C165.36652044 116.19047722 176.92291022 129.76796299 189.4453125 142.34765625 C190.66391318 143.56812692 191.88273848 144.78837337 193.10177612 146.00840759 C196.2767692 149.18718014 199.44874516 152.36894617 202.62005615 155.5513916 C205.86985176 158.81150078 209.12255552 162.06870571 212.375 165.32617188 C218.73198158 171.69380994 225.08577271 178.06462107 231.4375 184.4375 C237.64097387 179.31208022 243.29434676 173.7098094 248.96484375 168.0078125 C249.96353017 167.00725714 250.96244047 166.00692519 251.96156311 165.00680542 C254.56941964 162.3951612 257.17425695 159.78052633 259.77844238 157.16522217 C262.44485236 154.48851677 265.11415464 151.81469898 267.78320312 149.140625 C273.00411101 143.90904602 278.22182751 138.67429904 283.4375 133.4375 C282.36406359 131.28550881 281.28370474 129.13853352 280.18359375 127 C279.53583984 125.7315625 279.53583984 125.7315625 278.875 124.4375 C278.44058594 123.591875 278.00617188 122.74625 277.55859375 121.875 C273.82410382 113.75541214 274.22939824 102.93350618 277 94.5625 C281.47694052 84.02760151 288.91264221 76.99815165 299.4375 72.625 C309.86606443 69.17618342 320.23351298 70.23393609 330.1875 74.8125 C354.02372388 87.62095582 379.06225357 111.14408333 388.06640625 137.26171875 C389.98765374 148.52629611 389.05013132 159.12420889 382.9296875 168.828125 C377.23195904 176.83144591 369.22172866 182.68618097 359.4375 184.4375 C348.65249282 185.40815065 339.24313095 184.53559243 330.25 178.1875 C329.651875 177.61 329.05375 177.0325 328.4375 176.4375 C324.23324792 178.09601937 321.3409508 181.18053355 318.171875 184.28564453 C317.24429382 185.18387436 317.24429382 185.18387436 316.29797363 186.10025024 C314.25467533 188.08375335 312.21990729 190.07565345 310.1875 192.0703125 C309.14136536 193.09673166 309.14136536 193.09673166 308.07409668 194.14388657 C304.37958529 197.77323818 300.69323666 201.41069502 297.01171875 205.05322266 C293.97822671 208.05120396 290.92870986 211.03126978 287.86328125 213.99658203 C284.14865809 217.59004999 280.46507284 221.21281482 276.80090332 224.85769272 C275.4078152 226.23378515 274.00456805 227.5996792 272.59069824 228.95441055 C264.21581976 236.99767302 259.01258555 243.19834819 257.09228516 254.84127808 C255.49061544 263.63799511 250.60731305 271.12746393 244.4375 277.4375 C241.62834526 278.84207737 239.54939466 278.68645157 236.4375 278.4375 C234.125 277.375 234.125 277.375 232.4375 275.4375 C231.14536955 271.23807605 231.05236456 269.22317629 233 265.25 C233.36867188 264.68152344 233.73734375 264.11304688 234.1171875 263.52734375 C235.79632275 260.86954091 237.20412626 258.11649479 238.625 255.3125 C239.13417969 254.31992187 239.64335937 253.32734375 240.16796875 252.3046875 C244.46293778 242.60466513 243.24192097 231.23676651 239.8984375 221.44921875 C235.95833394 213.32670579 230.51831492 207.10316864 224.0625 200.875 C223.32644531 200.15248047 222.59039062 199.42996094 221.83203125 198.68554688 C220.04060424 196.92901779 218.24120416 195.18139115 216.4375 193.4375 C211.3029039 197.7522097 206.42877535 202.2484907 201.63452148 206.93652344 C200.88901535 207.66260803 200.14350922 208.38869263 199.37541199 209.13677979 C192.56745729 215.77727546 185.79402 222.45299721 179.03144741 229.13967514 C174.49510934 233.62441282 169.94779469 238.0966641 165.37280273 242.54199219 C160.93571191 246.85385322 156.52855033 251.19427534 152.14100838 255.55652618 C150.46672305 257.21116735 148.78204714 258.85536286 147.08697319 260.48870087 C144.72111386 262.77223947 142.39558211 265.09056784 140.07592773 267.42089844 C139.36907837 268.08617554 138.662229 268.75145264 137.93395996 269.43688965 C134.30554031 273.1283026 134.30554031 273.1283026 133.46482849 278.05613995 C133.96563749 280.59556862 134.64022512 282.97766241 135.4375 285.4375 C135.68439024 287.21020715 135.90420534 288.9874387 136.0703125 290.76953125 C136.15458496 291.66381836 136.23885742 292.55810547 136.32568359 293.47949219 C138.855962 323.081141 138.855962 323.081141 131.77734375 332.69140625 C125.84281635 339.30834337 119.08255314 342.21718561 110.26953125 342.77734375 C99.92942435 343.1423558 91.8009174 342.47300801 83.625 335.75 C78.40992761 330.7988667 75.42264503 325.58228919 74.4375 318.4375 C74.4142257 315.53309308 74.57293329 312.6483644 74.75 309.75 C74.79850098 308.92000488 74.84700195 308.09000977 74.89697266 307.23486328 C76.38656445 283.43289649 76.38656445 283.43289649 80.4375 272.4375 C80.1075 271.4475 79.7775 270.4575 79.4375 269.4375 C79.12890625 266.72265625 79.12890625 266.72265625 79 263.5 C78.93941406 262.45972656 78.87882813 261.41945313 78.81640625 260.34765625 C80.48960308 249.81388249 86.95872709 242.03987891 94.38037109 234.81347656 C95.69841736 233.49411606 95.69841736 233.49411606 97.04309082 232.14810181 C99.42468004 229.76994371 101.81864875 227.40578282 104.21948195 225.04715443 C106.73675568 222.56773143 109.23672234 220.07097319 111.73867798 217.57611084 C116.46516112 212.86817662 121.20670808 208.17573009 125.9540478 203.48883796 C131.36387085 198.14639225 136.7563935 192.78662446 142.14762759 187.42543077 C153.22529486 176.41025267 164.32417611 165.41670996 175.4375 154.4375 C169.52922258 142.19910861 156.87835892 133.1215083 144.4375 128.4375 C135.79235168 125.49029034 123.29005379 126.36674876 115.07276535 130.10387897 C104.22585151 135.59314492 96.09981554 144.34117696 87.62792969 152.84301758 C86.15898566 154.30625087 84.68941463 155.76885493 83.2192688 157.23088074 C79.2496684 161.18261527 75.28960161 165.14377224 71.33178616 169.10730577 C68.01947474 172.42271771 64.70256833 175.73351358 61.38569379 179.04435939 C53.55888632 186.8571456 45.73987588 194.67767417 37.92578125 202.50317383 C29.87812709 210.56231451 21.81776502 218.60858088 13.75098491 226.6485737 C6.81013702 233.56723917 -0.12289681 240.49366657 -7.04972911 247.42636412 C-11.18024395 251.56024268 -15.31357274 255.69120057 -19.45438385 259.81476784 C-23.34746044 263.69233641 -27.23064112 267.57955483 -31.1065712 271.47426033 C-32.52607486 272.89743873 -33.94895734 274.31725669 -35.37553787 275.73334122 C-47.27293569 287.549899 -56.72699498 298.29054131 -57 315.8125 C-56.82910958 337.37278434 -40.75004323 351.13231012 -26.63232422 365.58276367 C-24.57429784 367.69450329 -22.54488265 369.82886658 -20.53564453 371.98706055 C-18.08411598 374.61991257 -15.59049013 377.20507971 -13.0612793 379.76332664 C-11.6582106 381.20417637 -10.30000523 382.68828591 -8.94335938 384.17292786 C-6.20946467 386.88088157 -4.05440065 388.80733308 -0.5625 390.4375 C4.80463057 390.30938777 9.30412632 389.02071334 14.4375 387.4375 C25.85642558 385.71056468 38.67177181 390.5443292 47.80859375 397.15234375 C57.01075786 404.7406376 61.84614595 414.24933524 65.4375 425.4375 C76.74239416 420.69170743 84.33176643 414.52389287 92.82104492 405.83276367 C94.08764554 404.56254226 95.35581019 403.29387883 96.62539673 402.02664185 C100.03505783 398.61473834 103.42288665 395.18189947 106.80707335 391.74475265 C110.36271432 388.14129344 113.93891368 384.55835321 117.51301575 380.97322083 C124.26614181 374.19327985 131.00165096 367.39612674 137.73049575 360.59209567 C147.62377429 350.58996611 157.54466954 340.61528567 167.46421528 330.63921833 C168.92776306 329.16723441 170.39129564 327.69523537 171.85481262 326.22322083 C172.56911589 325.50481579 173.28341917 324.78641075 174.01936799 324.04623586 C178.26474488 319.77533041 182.50541658 315.49982002 186.74186265 311.22005594 C189.36946669 308.5659225 191.99887726 305.91358302 194.62849808 303.26144791 C195.84887897 302.02958969 197.06835587 300.79683517 198.28687096 299.56313133 C199.94684359 297.88256688 201.60985954 296.20507184 203.27360535 294.52824402 C203.75724948 294.03691221 204.24089361 293.5455804 204.73919362 293.03935975 C210.17502587 287.57522445 210.17502587 287.57522445 214.875 287.0625 C218.4375 287.4375 218.4375 287.4375 220.875 288.9375 C223.02417898 292.37618637 223.11622402 295.52923848 222.4375 299.4375 C220.82150699 301.83859415 219.49613379 303.45002872 217.45559692 305.40835571 C216.91954012 305.95407018 216.38348331 306.49978465 215.83118236 307.06203592 C214.03503133 308.88068027 212.21178353 310.66938215 210.38720703 312.45947266 C209.09141173 313.7595612 207.79735052 315.06138006 206.50489807 316.36479187 C202.99148514 319.89758823 199.45358545 323.40488377 195.91024637 326.9076314 C192.20084373 330.5818602 188.51258474 334.27720203 184.82150269 337.96981812 C178.61558428 344.1719901 172.39437386 350.35847887 166.16308594 356.53515625 C158.97217449 363.66327638 151.8022709 370.81197517 144.64416039 377.97302401 C137.01131027 385.60858358 129.36327752 393.22879628 121.71075964 400.84463835 C119.51369849 403.03319929 117.31947023 405.22456638 115.12585831 407.41658401 C111.66657352 410.87182845 108.19718582 414.31661443 104.7199688 417.75380898 C103.45006079 419.01210501 102.18343455 420.27372375 100.92048454 421.53900337 C92.56588716 429.90317018 84.56763223 437.21777763 73 440.8125 C72.01128906 441.12960937 71.02257812 441.44671875 70.00390625 441.7734375 C67.4375 442.4375 67.4375 442.4375 64.4375 442.4375 C64.375625 443.55125 64.31375 444.665 64.25 445.8125 C62.70733985 457.49557954 54.37951555 466.65855832 45.5 473.8125 C34.6452908 481.49128226 22.31373093 482.47176937 9.4375 481.4375 C-2.3067504 479.16651235 -11.95644387 472.54146652 -19.5625 463.4375 C-27.40798084 451.80173492 -30.12345219 439.15251083 -28.1015625 425.2734375 C-26.07534037 416.04816735 -21.72973543 408.55354088 -15.5625 401.4375 C-17.03921489 398.00163784 -18.96118997 395.81566799 -21.62573242 393.21069336 C-22.46387985 392.38560776 -23.30202728 391.56052216 -24.16557312 390.71043396 C-25.07386368 389.82501419 -25.98215424 388.93959442 -26.91796875 388.02734375 C-28.34717972 386.61695956 -29.7763783 385.20656258 -31.2048769 383.79545689 C-34.71848817 380.32752146 -38.24249148 376.87021695 -41.77270508 373.41918945 C-44.23474612 371.01136083 -46.68642232 368.5933511 -49.13241005 366.16922188 C-50.50227225 364.81750129 -51.88332943 363.47715534 -53.26469421 362.13719177 C-65.35994793 350.13765532 -73.67596355 335.80648667 -73.89233398 318.50048828 C-73.743129 298.05310085 -66.97141647 283.86016544 -52.5625 269.4375 C-51.4374192 268.29825688 -50.31242105 267.15893212 -49.1875 266.01953125 C-46.33144532 263.13933268 -43.45325374 260.28284923 -40.5625 257.4375 C-43.02497827 255.45110086 -45.46993199 253.5022976 -48.0625 251.6875 C-53.23073862 247.03608524 -56.22428374 241.25023732 -57.5625 234.4375 C-57.7002085 231.74506144 -57.65721745 229.13694734 -57.5625 226.4375 C-58.41521484 226.6540625 -58.41521484 226.6540625 -59.28515625 226.875 C-68.77221309 229.1556948 -77.05290515 229.03217893 -85.76953125 224.21875 C-94.33360685 218.323784 -98.82714282 209.53668845 -101.25 199.625 C-102.49943481 186.88076495 -100.26700263 175.90441899 -94.5625 164.4375 C-95.696875 163.921875 -96.83125 163.40625 -98 162.875 C-109.28063621 157.11552025 -117.74731931 147.9580534 -122.625 136.1875 C-124.87026176 127.81035095 -125.21631406 116.90264319 -121.625 108.875 C-117.17906555 101.49449693 -110.67985711 96.20085561 -102.5625 93.4375 C-102.91183594 92.69886719 -103.26117188 91.96023437 -103.62109375 91.19921875 C-108.02661495 81.37727773 -110.1534222 73.06876166 -106.515625 62.66796875 C-104.85246369 58.77589864 -103.11679715 55.62912782 -99.6875 53 C-96.66852919 52.20086067 -94.55309852 52.61031318 -91.5625 53.4375 C-89.12531791 55.03427447 -88.62832877 56.25756802 -87.625 59 C-87.55937602 62.6093189 -88.16165775 64.09413579 -89.625 67.3125 C-91.4394546 71.53569049 -92.01386176 74.12276528 -90.53125 78.5 C-88.69457637 82.17334725 -86.16060114 85.27746859 -83.5625 88.4375 C-80.71576615 91.94117243 -79.22278501 94.07163355 -79.5625 98.5625 C-80.04630767 102.32712847 -81.59516573 104.11292706 -84.5625 106.4375 C-87.05702177 107.22302096 -89.39464286 107.84225242 -91.9375 108.375 C-97.63157937 109.71759535 -101.60248344 111.01159914 -105.5625 115.4375 C-107.67743344 119.66736689 -107.05452154 124.84529898 -106.5625 129.4375 C-104.13728118 136.52827432 -98.95612119 142.75825257 -92.5703125 146.65234375 C-87.0715473 149.32115836 -81.38430168 150.41915764 -75.3828125 151.43359375 C-72.5625 152.4375 -72.5625 152.4375 -70.6796875 154.84765625 C-69.20289 158.27114136 -69.38688957 159.9106687 -70.5625 163.4375 C-72.75 165.8125 -72.75 165.8125 -75.5625 168.4375 C-81.96581581 175.5790427 -85.24179404 183.52495065 -84.84765625 193.20703125 C-83.98270004 199.97264767 -82.05433321 205.12248819 -76.5625 209.4375 C-72.26954929 211.99006528 -68.26954896 211.6204233 -63.5625 210.4375 C-61.88515823 209.7548299 -60.2186169 209.04516001 -58.5625 208.3125 C-53.63134964 206.23383046 -50.73677729 206.01011316 -45.5625 207.4375 C-42.50393011 209.4765466 -41.73784651 210.76533839 -40.8125 214.3125 C-40.55528598 216.83538646 -40.58431494 219.25224068 -40.65234375 221.79296875 C-41.18375328 229.25131455 -41.18375328 229.25131455 -38.875 236.125 C-34.88899485 240.11100515 -31.28924068 242.30086856 -25.5625 242.4375 C-23.101782 240.65034101 -21.26539434 239.02865001 -19.18994141 236.85961914 C-18.58434387 236.25504379 -17.97874634 235.65046844 -17.35479736 235.02757263 C-15.35751321 233.02541219 -13.38615887 230.99960558 -11.4140625 228.97265625 C-10.03411451 227.57965245 -8.65261266 226.18818636 -7.2696228 224.79820251 C-3.63395263 221.1358066 -0.01979001 217.45287851 3.59033203 213.76531982 C7.27796081 210.00608169 10.98548826 206.26658461 14.69140625 202.52539062 C21.9597488 195.18197652 29.20552923 187.81672421 36.4375 180.4375 C34.8197107 176.12446093 32.62571015 172.74261243 29.8125 169.125 C29.39226562 168.57521484 28.97203125 168.02542969 28.5390625 167.45898438 C27.51029961 166.11457832 26.4745991 164.77548587 25.4375 163.4375 C24.6021875 163.59992188 23.766875 163.76234375 22.90625 163.9296875 C19.20142787 164.47206011 15.68071728 164.57010817 11.9375 164.5625 C10.6690625 164.56507813 9.400625 164.56765625 8.09375 164.5703125 C4.77644482 164.4498121 1.69119236 164.0701624 -1.5625 163.4375 C-1.89983154 163.8907666 -2.23716309 164.3440332 -2.5847168 164.81103516 C-4.1380657 166.89616356 -5.69401374 168.97933903 -7.25 171.0625 C-8.04567383 172.13177734 -8.04567383 172.13177734 -8.85742188 173.22265625 C-10.41357734 175.30389485 -11.98288043 177.37402387 -13.5625 179.4375 C-14.02027832 180.03900879 -14.47805664 180.64051758 -14.94970703 181.26025391 C-17.29299433 184.22510282 -18.36371089 185.3736035 -22.0625 186.5625 C-25.5625 186.4375 -25.5625 186.4375 -28.4375 184.8125 C-30.88380235 182.07839737 -31.64581502 181.10336106 -31.5625 177.4375 C-28.84786148 171.31148765 -25.40198821 166.2205709 -21.3125 160.9375 C-20.75820312 160.21046875 -20.20390625 159.4834375 -19.6328125 158.734375 C-18.28185782 156.96415853 -16.92510209 155.19875614 -15.5625 153.4375 C-15.8711499 152.82326172 -16.1797998 152.20902344 -16.49780273 151.57617188 C-17.58968202 149.38289912 -18.6189757 147.17140947 -19.625 144.9375 C-19.96660156 144.1846875 -20.30820313 143.431875 -20.66015625 142.65625 C-22.18929093 138.8962998 -22.68465606 135.74411233 -22.625 131.6875 C-22.61597656 130.88828125 -22.60695313 130.0890625 -22.59765625 129.265625 C-22.58605469 128.66234375 -22.57445313 128.0590625 -22.5625 127.4375 C-23.18253906 127.27894531 -23.80257812 127.12039062 -24.44140625 126.95703125 C-30.17176495 125.44728609 -35.85277049 123.79392344 -41.5 122 C-42.74652344 121.60941406 -43.99304688 121.21882813 -45.27734375 120.81640625 C-48.61385495 119.41594435 -50.36722625 118.28703021 -52.5625 115.4375 C-53.01627473 111.80730218 -52.99949866 109.41432053 -51.5 106.0625 C-48.71992069 103.73082057 -46.09369763 103.36589243 -42.5625 103.4375 C-38.73335236 104.27839087 -35.07544355 105.52752159 -31.375 106.8125 C-29.423417 107.46686182 -27.47160301 108.12053519 -25.51953125 108.7734375 C-24.66335205 109.06782715 -23.80717285 109.3622168 -22.92504883 109.66552734 C-20.81669273 110.35444147 -18.72108006 110.93176306 -16.5625 111.4375 C-16.31757812 110.86128906 -16.07265625 110.28507812 -15.8203125 109.69140625 C-14.34617833 107.04986769 -12.67971614 105.40236964 -10.4375 103.375 C-9.71304688 102.70339844 -8.98859375 102.03179687 -8.2421875 101.33984375 C-4.82207615 98.91186383 -1.53023487 97.78384555 2.4375 96.4375 C2.45208252 95.64577393 2.46666504 94.85404785 2.48168945 94.03833008 C2.55628356 90.44173457 2.65290833 86.84605557 2.75 83.25 C2.77255859 82.00412109 2.79511719 80.75824219 2.81835938 79.47460938 C2.85380859 78.27255859 2.88925781 77.07050781 2.92578125 75.83203125 C2.95196533 74.72706299 2.97814941 73.62209473 3.00512695 72.48364258 C3.48893824 69.07510873 4.39253919 67.18633024 6.4375 64.4375 C9.4375 62.4375 9.4375 62.4375 12.9375 62.625 C17.53799046 63.692971 17.53799046 63.692971 19.4375 66.4375 C19.77807617 69.53198242 19.77807617 69.53198242 19.73046875 73.29296875 C19.72622391 73.95460526 19.72197906 74.61624176 19.71760559 75.29792786 C19.70083693 77.4073691 19.66319099 79.51584846 19.625 81.625 C19.60995068 83.05662681 19.5962627 84.48826862 19.58398438 85.91992188 C19.5509403 89.42609288 19.49917167 92.93170254 19.4375 96.4375 C20.05020752 96.63303467 20.66291504 96.82856934 21.29418945 97.0300293 C22.10073975 97.29211182 22.90729004 97.55419434 23.73828125 97.82421875 C24.53661377 98.08162842 25.33494629 98.33903809 26.1574707 98.60424805 C32.07257066 100.76596088 36.27519193 104.87878164 40.4375 109.4375 C40.4375 110.0975 40.4375 110.7575 40.4375 111.4375 C41.18845947 111.18991943 41.93941895 110.94233887 42.71313477 110.68725586 C46.13730476 109.56787153 49.56837026 108.47129131 53 107.375 C54.18142578 106.98505859 55.36285156 106.59511719 56.58007812 106.19335938 C67.6884611 102.67726056 67.6884611 102.67726056 73.4375 104.4375 C76.000464 106.66975897 76.37502331 108.01801369 76.875 111.375 C76.32349464 115.23553754 75.1161342 116.6333223 72.4375 119.4375 C69.68847656 120.73950195 69.68847656 120.73950195 66.578125 121.67578125 C65.46308594 122.02060547 64.34804687 122.36542969 63.19921875 122.72070312 C62.04035156 123.06037109 60.88148438 123.40003906 59.6875 123.75 C58.51316406 124.10900391 57.33882812 124.46800781 56.12890625 124.83789062 C53.23605161 125.7198585 50.33934633 126.58567793 47.4375 127.4375 C47.27894531 128.4996875 47.12039062 129.561875 46.95703125 130.65625 C44.88013942 143.52689323 44.88013942 143.52689323 41.625 148.125 C40.903125 149.218125 40.18125 150.31125 39.4375 151.4375 C40.46769762 155.34340262 42.51904984 158.04250587 45.0625 161.125 C48.4375 165.22321429 48.4375 165.22321429 48.4375 167.4375 C54.22735031 162.52619074 59.6235418 157.33650027 64.92578125 151.90625 C66.53535355 150.27429194 68.14539416 148.64279566 69.75585938 147.01171875 C72.25506229 144.47549969 74.75105821 141.93641657 77.23901367 139.38916016 C79.66692282 136.90629488 82.10774795 134.43672386 84.55078125 131.96875 C85.27824051 131.21750854 86.00569977 130.46626709 86.75520325 129.69226074 C96.46605333 119.9334107 108.00369897 113.36851113 121.4375 110.4375 C119.06473185 109.44246819 116.71834121 108.51745479 114.2421875 107.8125 C110.5215803 106.73192761 107.85252476 105.77347243 104.8125 103.3125 C103.14238396 99.82043919 102.96160759 97.64244147 103.55078125 93.84765625 C104.98349523 89.9534513 107.6232653 87.37400608 110.52734375 84.48046875 C114.29945833 80.44608036 114.88653863 77.06846843 114.75390625 71.68359375 C114.10686729 67.09041595 111.39716576 64.37050838 108.1875 61.25 C100.96108413 56.48713499 92.27175365 54.36015203 83.6875 55.9453125 C80.04741727 56.97450256 77.00287031 58.07404766 73.8125 60.125 C70.12991729 62.1601115 67.62427871 61.90269763 63.4375 61.4375 C61.16796875 59.921875 61.16796875 59.921875 59.4375 57.4375 C59.36024488 54.55231849 59.47490582 52.08400623 59.8125 49.25 C60.75944177 38.25179876 59.41110962 30.42097091 52.4375 21.4375 C47.13753979 16.57099379 42.97024799 14.03317124 35.74609375 14.171875 C32.01016913 14.60172758 30.20335491 15.91749886 27.4375 18.4375 C25.27692178 21.33993089 23.34415301 24.36384386 21.4375 27.4375 C18.54708445 32.06216488 18.54708445 32.06216488 15.58984375 33.0625 C12.30556077 33.65182928 9.99284784 33.62261595 6.8125 32.5625 C3.24683379 29.37216708 0.9860915 25.45453204 -1.5625 21.4375 C-4.46708186 17.42234272 -6.64867811 14.95782534 -11.640625 14.06640625 C-17.88669194 13.87542938 -21.76568296 15.46119114 -26.5625 19.4375 C-32.87977783 25.75477783 -36.33885868 33.73464639 -36.6875 42.625 C-36.64124808 46.22877804 -36.64124808 46.22877804 -36.1953125 48.93359375 C-35.21319434 55.67813987 -35.21319434 55.67813987 -37 59.5625 C-39.84289714 61.64266864 -41.7808447 62.14570327 -45.30078125 61.9375 C-48.83765914 61.15559953 -51.75159045 59.40744686 -54.90234375 57.6640625 C-57.79563846 56.33000297 -60.28957466 55.86504778 -63.4375 55.4375 C-67.08119778 54.87494609 -68.34928042 54.60710648 -71.3125 52.25 C-72.9767982 48.50532904 -72.64961382 46.35110975 -71.5625 42.4375 C-69.95036914 39.89203022 -68.82138822 39.51763207 -65.9375 38.625 C-61.5568459 38.38163033 -57.77322513 39.3052828 -53.5625 40.4375 C-53.46453125 39.68726563 -53.3665625 38.93703125 -53.265625 38.1640625 C-51.15522242 23.7187207 -45.89430084 13.39750712 -34.6171875 3.94140625 C-24.44439503 -3.50445896 -11.52369694 -5.42971184 0 0 Z M297.203125 92.6796875 C292.91312435 96.95070585 291.23235172 101.42989623 290.9375 107.4375 C291.28706362 114.57078259 293.88995242 119.28721707 299.125 124.0625 C301.90938914 126.34765486 304.78622103 128.36282647 307.8125 130.3125 C318.54230808 137.29333899 326.7010431 146.53119557 333.5625 157.25 C337.00417417 162.52909913 341.12493484 166.85935871 347.4375 168.4375 C354.20237694 169.19957453 359.93440032 168.69150211 365.4375 164.4375 C371.16352116 158.23742916 372.94324243 153.10531286 372.83203125 144.68359375 C372.14870425 139.06136865 369.59614296 135.0480998 366.4375 130.4375 C365.756875 129.44234375 365.07625 128.4471875 364.375 127.421875 C352.61571777 111.29258924 335.05767171 91.59254293 314.9375 86.5625 C307.7460029 86.30566082 302.71038996 88.19148338 297.203125 92.6796875 Z M-4.43359375 120.75390625 C-7.23892281 124.93763228 -7.11089007 129.6038332 -6.5625 134.4375 C-4.9070724 140.03204748 -2.07336721 143.35574983 2.75390625 146.52734375 C7.17806399 148.9190578 11.54318733 148.89922761 16.4375 148.4375 C22.47469279 146.23160264 26.22117394 142.70238301 29.25 137.0625 C31.0405963 131.59646918 31.16587872 127.56082994 28.8125 122.3125 C26.17427865 117.50217414 22.84703623 114.73494259 18 112.125 C8.35084318 109.53620183 1.55838739 113.42311733 -4.43359375 120.75390625 Z M297.4375 142.4375 C279.6175 160.2575 261.7975 178.0775 243.4375 196.4375 C245.4175 199.0775 247.3975 201.7175 249.4375 204.4375 C250.58489748 206.46505922 251.67792257 208.52541176 252.6875 210.625 C253.40679687 212.10033203 253.40679687 212.10033203 254.140625 213.60546875 C255.32403642 216.18972562 256.41053386 218.7877336 257.4375 221.4375 C264.29657115 215.81812338 270.46759491 209.53435489 276.71484375 203.2578125 C277.89289258 202.07789553 279.07116466 200.89820142 280.24964905 199.71871948 C283.33097142 196.63360309 286.40927716 193.54549411 289.48693848 190.45672607 C292.63594034 187.29744267 295.78782171 184.14103484 298.93945312 180.984375 C305.1082711 174.80487473 311.27390129 168.6222061 317.4375 162.4375 C316.82108643 161.3343042 316.20467285 160.2311084 315.56958008 159.09448242 C315.22284744 158.47393478 314.87611481 157.85338715 314.51887512 157.21403503 C313.00977553 154.73481369 311.18391814 152.78697585 309.125 150.75 C308.40699219 150.02425781 307.68898438 149.29851562 306.94921875 148.55078125 C303.88430712 145.84383972 303.88430712 145.84383972 297.4375 142.4375 Z M183.83839417 168.78263855 C183.09112061 169.52427246 182.34384705 170.26590637 181.57392883 171.03001404 C180.75361679 171.85437454 179.93330475 172.67873505 179.08813477 173.52807617 C178.22459381 174.38811249 177.36105286 175.2481488 176.47134399 176.13424683 C174.09768745 178.50058835 171.72864776 180.87137306 169.3618176 183.24453139 C166.88514494 185.72625792 164.40360711 188.2031117 161.9228363 190.68074036 C157.7537867 194.84614648 153.58898193 199.01576204 149.42651367 203.18774414 C144.61787431 208.00724739 139.80210127 212.8195321 134.98251683 217.62808818 C130.84543679 221.75608063 126.71228194 225.88797276 122.58235782 230.02312452 C120.11563309 232.49296361 117.64758596 234.96144051 115.17599678 237.42641258 C112.41699908 240.17854002 109.66625049 242.93882235 106.91625977 245.69995117 C105.68882805 246.9213102 105.68882805 246.9213102 104.43659973 248.16734314 C103.68650635 248.92307617 102.93641296 249.6788092 102.16358948 250.45744324 C101.51263589 251.10915088 100.8616823 251.76085852 100.19100285 252.43231487 C96.93891915 256.15117389 95.4375 258.41541398 95.4375 263.4375 C96.40429688 263.41429687 97.37109375 263.39109375 98.3671875 263.3671875 C99.66914063 263.34914063 100.97109375 263.33109375 102.3125 263.3125 C103.58867187 263.28929687 104.86484375 263.26609375 106.1796875 263.2421875 C109.46833835 263.2433991 112.02551938 263.93600436 115.15072632 264.91744995 C118.29309623 265.55076293 119.80999579 265.76084991 122.68526077 264.27923965 C125.05595797 262.29952519 127.16146145 260.1980032 129.28369141 257.95361328 C130.1044516 257.13460541 130.92521179 256.31559753 131.77084351 255.47177124 C134.47300463 252.76125859 137.13020544 250.01076145 139.7890625 247.2578125 C141.65549643 245.36899338 143.52415087 243.48266929 145.39608765 241.59933472 C149.81183645 237.1463365 154.19611774 232.66365283 158.56982839 228.1694001 C163.55213347 223.05281072 168.56869329 217.97038945 173.58837628 212.89050698 C183.9098636 202.44369947 194.18782387 191.95476673 204.4375 181.4375 C203.49003226 180.32543021 202.54160201 179.21418043 201.59277344 178.10327148 C201.06472107 177.48435532 200.5366687 176.86543915 199.99261475 176.22776794 C197.97160695 173.90115798 195.85706055 171.68826366 193.6875 169.5 C192.92953125 168.72785156 192.1715625 167.95570313 191.390625 167.16015625 C187.9023668 164.08351251 186.7277768 165.89660486 183.83839417 168.78263855 Z M95.3671875 282.59375 C93.0859372 285.95559254 92.69010227 288.22807532 92.25 292.25 C92.14328979 293.21764282 92.14328979 293.21764282 92.03442383 294.20483398 C91.81540347 296.28090728 91.6258965 298.35844425 91.4375 300.4375 C91.32680176 301.50774414 91.32680176 301.50774414 91.21386719 302.59960938 C90.99565897 304.73170552 90.80544129 306.86440371 90.625 309 C90.51542969 310.28003906 90.40585938 311.56007813 90.29296875 312.87890625 C90.5033373 318.05852114 92.18263434 321.18263434 95.8125 324.8125 C101.21093231 327.2324869 106.60815929 327.24733332 112.4375 326.4375 C116.85672661 324.1691697 119.84304947 322.22085158 121.4375 317.4375 C121.87610739 310.88384033 121.21896258 304.27423462 120.625 297.75 C120.55474609 296.83927734 120.48449219 295.92855469 120.41210938 294.99023438 C119.94891585 289.88769453 119.32373198 285.81875861 116.4375 281.4375 C109.44964557 277.40604552 101.29811153 276.41663667 95.3671875 282.59375 Z M-6.9375 416.1875 C-11.60831571 422.99910625 -13.76182282 431.23304164 -12.5625 439.4375 C-10.21367071 449.19632645 -4.99927708 456.88157363 3.4375 462.4375 C11.07264638 466.32448361 19.73208231 466.86598014 28.05859375 464.78125 C36.71892115 461.29910796 43.34516877 454.75470761 47.4375 446.4375 C50.45395742 438.6808952 50.5000388 430.44338872 47.53125 422.6640625 C43.17700867 413.80007122 36.48933354 408.02109211 27.23046875 404.62890625 C14.42935354 401.07983989 1.40235158 406.01945435 -6.9375 416.1875 Z " fill="#000000" transform="translate(123.5625,16.5625)"/>
<path d="M0 0 C3.02706748 2.15081111 3.87395791 3.25950274 4.5 6.9375 C3.86162709 10.84753406 3.02791041 12.42627616 0 15 C-2.8229596 15.71730941 -5.1770404 15.71730941 -8 15 C-11.02791041 12.42627616 -11.86162709 10.84753406 -12.5 6.9375 C-11.88967138 3.35181933 -10.80986461 2.23136307 -8 0 C-5.02898609 -1.48550695 -3.16565278 -0.82306972 0 0 Z " fill="#000000" transform="translate(146,444)"/>
</svg>
