<?xml version="1.0" encoding="UTF-8"?>
<svg version="1.1" xmlns="http://www.w3.org/2000/svg" width="512" height="512">
<path d="M0 0 C0.70560059 0.18804199 1.41120117 0.37608398 2.13818359 0.56982422 C19.32382875 5.32700457 35.33367757 13.52678726 49 25 C49.85722656 25.71800781 50.71445313 26.43601563 51.59765625 27.17578125 C76.19813504 48.58238026 91.60423316 77.68601834 94.75 110.2578125 C94.8325 111.49273437 94.915 112.72765625 95 114 C95.0825 115.19367188 95.165 116.38734375 95.25 117.6171875 C96.81086505 162.97982796 66.5618188 209.02838388 44 246 C43.11006348 247.46904785 43.11006348 247.46904785 42.20214844 248.96777344 C34.22858015 262.10202473 25.79393938 274.90029257 17.1875 287.625 C16.70521942 288.33834503 16.22293884 289.05169006 15.7260437 289.78665161 C10.01383531 298.22300722 4.20522373 306.58038426 -1.74291992 314.85205078 C-3.71950654 317.60879581 -5.67101529 320.38039263 -7.609375 323.1640625 C-8.65618107 324.65109019 -9.70305362 326.13807109 -10.75 327.625 C-11.27464844 328.38683594 -11.79929688 329.14867187 -12.33984375 329.93359375 C-16.18544486 335.35541656 -19.54570635 338.84856878 -26 341 C-32.45056884 341.72946659 -37.77138147 341.62325234 -43.12109375 337.7109375 C-51.22231576 330.33394116 -57.11687597 320.30301199 -63.35400391 311.35351562 C-65.01133689 308.98379002 -66.68166937 306.62374283 -68.35546875 304.265625 C-77.23728628 291.72220494 -85.69355986 278.93038162 -94 266 C-94.52835449 265.18176758 -95.05670898 264.36353516 -95.60107422 263.52050781 C-118.38041049 228.20631673 -140.04183661 191.13921824 -153 151 C-153.25426758 150.23026855 -153.50853516 149.46053711 -153.77050781 148.66748047 C-162.42760889 121.61247355 -156.72256987 90.18056173 -144.23388672 65.19360352 C-135.35166108 48.21158155 -123.28620561 33.59719356 -108 22 C-107.21109375 21.39542969 -106.4221875 20.79085937 -105.609375 20.16796875 C-76.04049854 -1.51913766 -35.54656219 -9.64646483 0 0 Z M-92.5078125 72.84765625 C-105.5884899 89.32044151 -111.37903316 109.0386959 -110 130 C-107.32622049 151.93405563 -97.01979567 170.86544509 -80 185 C-72.27262963 190.61820889 -63.99709771 194.82455375 -55 198 C-54.13890625 198.3196875 -53.2778125 198.639375 -52.390625 198.96875 C-34.35748101 204.59759263 -13.55668269 201.69349625 3.25 193.8125 C22.90247112 183.29396148 36.761567 167.62003491 43.9921875 146.484375 C50.27862972 124.74985385 47.81634275 103.37123487 37.06640625 83.55859375 C34.46392908 78.97453498 31.55281438 74.89853338 28 71 C27.28457031 70.19304687 26.56914062 69.38609375 25.83203125 68.5546875 C11.72899297 53.50837912 -6.9894987 45.03037177 -27.546875 43.78515625 C-53.20463748 43.11975785 -75.69473279 53.75616854 -92.5078125 72.84765625 Z " fill="#000000" transform="translate(157,142)"/>
<path d="M0 0 C14.93421842 10.65147593 25.55854118 25.43864865 29.5234375 43.51953125 C31.43737037 57.49751641 30.31983383 69.96292804 25 83 C24.72124023 83.69770508 24.44248047 84.39541016 24.15527344 85.11425781 C16.27341648 104.55268024 5.43375928 122.47818614 -6 140 C-6.64751221 140.99507568 -6.64751221 140.99507568 -7.30810547 142.01025391 C-12.18620918 149.48264784 -17.23958065 156.82738122 -22.375 164.125 C-22.87515625 164.8360791 -23.3753125 165.5471582 -23.890625 166.27978516 C-32.01280967 177.74688304 -32.01280967 177.74688304 -36 179 C-41.13260484 179.46660044 -43.9042198 179.11064357 -48 176 C-50.35010236 173.17949096 -52.38618627 170.16698201 -54.4375 167.125 C-55.04513184 166.23876953 -55.65276367 165.35253906 -56.27880859 164.43945312 C-58.19667888 161.63348796 -60.09886671 158.81732448 -62 156 C-63.20170468 154.23689857 -64.40352505 152.47387599 -65.60546875 150.7109375 C-114.536935 78.5344886 -114.536935 78.5344886 -108.3125 44.83203125 C-105.62800134 32.37156975 -100.44261658 21.57410127 -92 12 C-91.34386719 11.24976562 -90.68773437 10.49953125 -90.01171875 9.7265625 C-66.90985137 -15.02242156 -27.9118682 -18.15491052 0 0 Z M-73 31 C-75.38028363 34.18369173 -77.26750714 37.4263761 -79 41 C-79.33902344 41.67160156 -79.67804688 42.34320313 -80.02734375 43.03515625 C-83.72864446 51.88757592 -83.41529633 63.96815735 -80.375 73 C-75.01153211 85.35279539 -66.91007399 93.79874195 -54.48046875 99.08984375 C-44.60480134 102.71351384 -32.06741716 102.44360624 -22.41796875 98.25390625 C-10.25928699 91.9486771 -1.51180084 82.90313035 2.74609375 69.68359375 C5.58825144 58.41296841 4.06563147 46.99240741 -1.625 36.8125 C-8.70022901 26.00890277 -18.06465989 18.81926146 -30.6875 15.625 C-47.25676355 12.73950886 -61.70761478 18.93209084 -73 31 Z " fill="#000000" transform="translate(482,11)"/>
<path d="M0 0 C1.32104492 1.3918457 1.32104492 1.3918457 2.48046875 3.17578125 C3.13668213 4.16227661 3.13668213 4.16227661 3.80615234 5.16870117 C4.26199707 5.87615479 4.7178418 6.5836084 5.1875 7.3125 C6.16080121 8.77474348 7.13608549 10.23566881 8.11328125 11.6953125 C8.59748535 12.42266602 9.08168945 13.15001953 9.58056641 13.89941406 C11.60195421 16.89081769 13.71903204 19.79120804 15.875 22.6875 C16.55304688 23.59886719 17.23109375 24.51023437 17.9296875 25.44921875 C21.21343896 29.49504838 24.60429118 33.02012263 29.0625 35.75 C29.71347656 36.15734375 30.36445312 36.5646875 31.03515625 36.984375 C36.95907383 40.04643975 44.3015565 39.90152955 50.66015625 38.3515625 C63.25156169 33.79763843 69.28793747 23.70274267 76.52490234 13.12402344 C78.69138267 10.00446388 80.95694299 6.96470697 83.25 3.9375 C83.97703125 2.97714844 84.7040625 2.01679688 85.453125 1.02734375 C86.21882813 0.02380859 86.21882813 0.02380859 87 -1 C100.60396641 1.61614739 114.8229215 7.12044966 123 18.875 C124.7388944 24.309045 125.10098252 29.4983013 122.4375 34.6875 C113.50145431 48.04550644 95.82547405 52.68504517 81 56 C80.2879541 56.16516113 79.5759082 56.33032227 78.84228516 56.50048828 C46.20612026 63.7173123 3.06326893 61.96594057 -26.28515625 44.85546875 C-31.43514536 41.33569202 -35.61601321 37.60189517 -38.5625 32.0625 C-39.35727279 26.49909047 -39.46524483 22.43578071 -36.484375 17.48046875 C-30.22780178 9.70751233 -10.63052772 -4.19032242 0 0 Z " fill="#000000" transform="translate(83,453)"/>
<path d="M0 0 C1.46044922 1.59472656 1.46044922 1.59472656 2.8046875 3.640625 C3.55685547 4.75244141 3.55685547 4.75244141 4.32421875 5.88671875 C4.83597656 6.66660156 5.34773438 7.44648438 5.875 8.25 C10.67231803 15.52572786 14.99108072 21.97758955 24 24 C29.55392017 24.51425187 34.21072429 23.86435528 39 21 C45.91373094 14.8681791 50.89984259 6.63843019 56 -1 C60.18317486 -0.50470255 62.8721305 0.19858592 66.1875 2.8125 C66.84105469 3.31394531 67.49460937 3.81539062 68.16796875 4.33203125 C70.1146511 6.10438384 71.60520964 7.7648701 73 10 C72.93117732 13.78524717 72.38168887 16.30300293 70.5625 19.625 C57.16871924 32.03874802 35.89066362 31.58231573 18.81103516 31.140625 C7.32485208 30.56601657 -6.05496233 27.63600777 -15 20 C-17.0625 16.6875 -17.0625 16.6875 -18 13 C-16.1673042 6.24193423 -12.74476098 3.62445038 -6.9375 0.1875 C-3.7735446 -1.0915458 -3.05638335 -1.23034603 0 0 Z " fill="#000000" transform="translate(415,175)"/>
<path d="M0 0 C1.20269531 -0.02578125 2.40539062 -0.0515625 3.64453125 -0.078125 C7.54259663 0.28288657 9.89951803 1.15015311 13.1875 3.25 C15.11123448 7.3283171 15.52098614 9.26806859 14.0625 13.5625 C12.05760597 16.43618144 11.39260459 17.08741631 8.1875 18.25 C4.69140625 18.55078125 4.69140625 18.55078125 0.75 18.5625 C-0.54808594 18.57925781 -1.84617187 18.59601563 -3.18359375 18.61328125 C-6.98725615 18.23250557 -8.81962706 17.56934074 -11.8125 15.25 C-14.15418764 11.73746854 -14.30873677 10.38530644 -13.8125 6.25 C-10.02032326 0.36558781 -6.71396882 0.08580152 0 0 Z " fill="#000000" transform="translate(349.8125,287.75)"/>
<path d="M0 0 C3.44483318 2.41871266 4.74697953 3.96683308 5.75 8.0625 C5.32488998 13.89810112 1.43209991 19.45927208 -2 24 C-5.24625491 26.3994058 -6.46733134 27 -10.5625 27 C-14.7052961 25.79482295 -15.91786087 24.74785043 -18 21 C-18.63917709 15.76023429 -16.98767414 12.51646497 -14.1875 8.25 C-13.83107422 7.67378906 -13.47464844 7.09757812 -13.10742188 6.50390625 C-9.50659296 0.83507834 -6.75485089 -0.81524062 0 0 Z " fill="#000000" transform="translate(467,421)"/>
<path d="M0 0 C5.32663209 3.16315407 10.66537817 6.66677747 14 12 C14.55716153 15.74094169 14.28133554 17.49359602 12.4375 20.8125 C10 23 10 23 6.9375 24.25 C0.04447605 23.81234769 -5.15657732 19.42271218 -10.296875 15.04296875 C-12.79102857 12.05112858 -12.6313649 9.89336654 -12.4453125 6.12890625 C-12 4 -12 4 -9.9375 1.4375 C-5.99582852 -0.49140307 -4.37163986 -0.84612384 0 0 Z " fill="#000000" transform="translate(435,303)"/>
<path d="M0 0 C2.4375 1.5625 2.4375 1.5625 4 4 C4.87562189 8.93532338 4.87562189 8.93532338 4 12 C2.02057948 14.54995938 -0.32374428 16.22632464 -3 18 C-3.86238281 18.62261719 -3.86238281 18.62261719 -4.7421875 19.2578125 C-9.35826102 22.29974114 -12.67346265 22.69856228 -18 22 C-21.06458538 19.95694308 -21.82153128 18.55920198 -22.9375 15.0625 C-23.01508661 11.26075628 -22.23775985 10.04981291 -20 7 C-17.109375 4.7265625 -17.109375 4.7265625 -13.75 2.625 C-12.65171875 1.91601562 -11.5534375 1.20703125 -10.421875 0.4765625 C-6.36123583 -1.27563111 -4.23861658 -1.08143664 0 0 Z " fill="#000000" transform="translate(439,455)"/>
<path d="M0 0 C4.56218732 0.81467631 5.69924583 1.93979715 8.5 5.625 C11.81761462 11.03554505 14.77444252 16.12534317 13.5 22.625 C11.50100675 25.56102134 10.05479057 27.24630844 6.52734375 28.10546875 C3.03632631 28.3469036 0.98087011 28.03717438 -1.6875 25.75 C-2.5846875 24.203125 -2.5846875 24.203125 -3.5 22.625 C-3.94472656 21.861875 -4.38945312 21.09875 -4.84765625 20.3125 C-7.53997755 15.39282654 -9.62172319 11.34578826 -8.5 5.625 C-5.90783917 1.93313458 -4.45850936 0.79616239 0 0 Z " fill="#000000" transform="translate(461.5,334.375)"/>
<path d="M0 0 C2.95179091 2.05065709 5.43259494 4.49585748 8 7 C8.99 7.78375 9.98 8.5675 11 9.375 C13.51468529 12.67552444 13.73188856 14.82917202 13.48046875 18.90625 C13 21 13 21 10.9375 23.5625 C7.10363218 25.43864808 5.22942654 25.78853715 1 25 C-2.01020156 22.9819248 -4.48980545 20.6029626 -7 18 C-7.804375 17.175 -8.60875 16.35 -9.4375 15.5 C-11.49435332 12.20903469 -12 9.87812592 -12 6 C-8.76149887 0.86306717 -6.08685855 -0.90175682 0 0 Z " fill="#000000" transform="translate(309,269)"/>
<path d="M0 0 C3.23613354 1.74253345 3.82395315 2.47185944 5 6 C5.12065456 8.10163415 5.17536009 10.20744033 5.1875 12.3125 C5.20167969 13.42238281 5.21585937 14.53226562 5.23046875 15.67578125 C4.93239025 19.97518463 4.24250967 23.6194337 1.3125 26.875 C-2.00139412 28.48716471 -4.3650247 28.45437191 -8 28 C-10.36497439 26.13291495 -11.66030715 24.67938569 -13 22 C-13.47285156 15.42180038 -13.94341506 7.18720069 -10.4375 1.4375 C-6.94802667 -0.62039453 -3.95513677 -0.68220018 0 0 Z " fill="#000000" transform="translate(477,378)"/>
<path d="M0 0 C1.89615855 3.16026425 1.837168 6.36947403 1.125 9.875 C-0.8125 12.4375 -0.8125 12.4375 -3.875 14.875 C-4.57625 15.48859375 -5.2775 16.1021875 -6 16.734375 C-11.82301929 21.65246562 -11.82301929 21.65246562 -16.125 22.5625 C-19.63035871 21.68616032 -21.39378597 20.49799769 -23.875 17.875 C-25.27423744 14.63926343 -24.90462436 12.99577624 -24.0625 9.5625 C-21.48058512 4.07291462 -15.40096492 -0.84165247 -9.75 -2.8984375 C-6.12366598 -3.33661953 -3.05606433 -1.8336386 0 0 Z " fill="#000000" transform="translate(323.875,193.125)"/>
<path d="M0 0 C0.87140625 0.00322266 1.7428125 0.00644531 2.640625 0.00976562 C3.50429688 -0.00634766 4.36796875 -0.02246094 5.2578125 -0.0390625 C11.53663859 -0.04390727 11.53663859 -0.04390727 14.80859375 1.59960938 C17.21699262 4.44707292 17.46197132 7.72492061 17.265625 11.32226562 C15.92611169 14.32022398 15.2100275 15.85006438 12.265625 17.32226562 C9.14744781 17.61157692 6.02068205 17.60003866 2.890625 17.63476562 C2.02695312 17.66376953 1.16328125 17.69277344 0.2734375 17.72265625 C-6.09136008 17.78650067 -6.09136008 17.78650067 -9.27734375 15.48632812 C-11.18131419 12.65844709 -11.66479182 10.73184156 -11.734375 7.32226562 C-8.77092857 1.11313978 -6.53365578 0.0556271 0 0 Z " fill="#000000" transform="translate(350.734375,180.677734375)"/>
<path d="M0 0 C3.10133731 4.67673189 3.36632821 8.68644929 2.9375 14.125 C2.90978516 14.82753906 2.88207031 15.53007812 2.85351562 16.25390625 C2.62594428 19.64503978 2.22579287 21.70197254 0.15625 24.43359375 C-2.9102103 26.66122161 -5.23832753 26.93400575 -9 27 C-11.94755732 25.65437601 -13.54277272 24.91445456 -15 22 C-15.15129552 19.21558045 -15.23138429 16.47287513 -15.25 13.6875 C-15.270625 12.92759766 -15.29125 12.16769531 -15.3125 11.38476562 C-15.34469148 6.75321594 -14.99069265 3.76712248 -12 0 C-7.69049278 -2.75329628 -4.55464298 -2.02428577 0 0 Z " fill="#000000" transform="translate(300,229)"/>
<path d="M0 0 C3.91077296 0.38340911 5.4418075 1.5668075 8.1875 4.3125 C9.61412219 7.16574437 9.49783868 9.14704549 9.1875 12.3125 C6.34064831 16.88779736 6.34064831 16.88779736 3.51171875 17.9296875 C0.24687746 18.46742607 -2.94217981 18.56271201 -6.25 18.625 C-7.54808594 18.66238281 -8.84617187 18.69976562 -10.18359375 18.73828125 C-14.37283397 18.24675576 -15.98556742 17.40662847 -18.8125 14.3125 C-19.73845755 11.21871243 -19.50501617 8.45190665 -18.8125 5.3125 C-16.65263421 2.43267894 -15.01713209 1.54854277 -11.5 0.859375 C-7.67631961 0.41638764 -3.83620006 0.31444263 0 0 Z " fill="#000000" transform="translate(392.8125,469.6875)"/>
<path d="M0 0 C0.85078125 -0.04125 1.7015625 -0.0825 2.578125 -0.125 C8.65939956 -0.20077912 8.65939956 -0.20077912 11.33862305 1.74365234 C13.89703181 4.62925221 14.62057111 6.2431242 14.6875 10.125 C13.48475665 13.94547887 12.8554821 15.173254 9.625 17.5 C6.44825377 18.09305338 3.34795254 18.05833398 0.125 18 C-1.15697266 18.02320313 -1.15697266 18.02320313 -2.46484375 18.046875 C-8.66308692 18.00819642 -8.66308692 18.00819642 -11.9140625 15.6875 C-13.9602639 12.62366903 -14.24450437 10.1538777 -14.375 6.5 C-12.10050224 -0.51303477 -6.22683837 0.07479686 0 0 Z " fill="#000000" transform="translate(298.375,470.5)"/>
<path d="M0 0 C4.04852257 1.49156095 5.50527 2.54091167 7.5625 6.3125 C8.19876723 10.13010338 7.87788452 11.76664218 5.9375 15.125 C3.01414075 17.81756773 1.47710519 17.92338356 -2.4375 18.3125 C-8.3838843 18.0126823 -13.73093772 17.43947509 -18.75 14.125 C-20.94456905 10.46738491 -21.18697816 8.50957769 -20.4375 4.3125 C-15.86649268 -3.09568428 -7.55707656 -1.44348653 0 0 Z " fill="#000000" transform="translate(401.4375,289.6875)"/>
<path d="M0 0 C0.7940625 -0.02384766 1.588125 -0.04769531 2.40625 -0.07226562 C6.71302637 -0.06149868 8.50253364 0.18136621 12.0234375 2.87890625 C14 5.5625 14 5.5625 14.625 9.0625 C13.81972502 13.5720399 12.61971146 14.78925853 9 17.5625 C5.97650507 18.25707678 3.08936817 18.21778135 0 18.125 C-0.7940625 18.13595703 -1.588125 18.14691406 -2.40625 18.15820312 C-6.33838763 18.1090514 -8.5635525 17.81568466 -12.0234375 15.80859375 C-14.21553458 13.31757435 -14.680993 12.332491 -14.625 9.0625 C-14.63789063 8.3096875 -14.65078125 7.556875 -14.6640625 6.78125 C-12.57819224 -0.18801063 -6.07968948 -0.08389182 0 0 Z " fill="#000000" transform="translate(254,470.4375)"/>
<path d="M0 0 C0.7940625 -0.01933594 1.588125 -0.03867187 2.40625 -0.05859375 C6.68176833 -0.02296443 8.51707006 0.25999481 12.0234375 2.91015625 C14.68700568 6.56861451 14.68700568 6.56861451 14.625 9.6875 C14 13.625 14 13.625 12.0234375 15.8359375 C7.92469999 18.26128864 4.67760559 18.25204488 0 18.1875 C-0.7940625 18.21134766 -1.588125 18.23519531 -2.40625 18.25976562 C-6.71302637 18.24899868 -8.50253364 18.00613379 -12.0234375 15.30859375 C-14 12.625 -14 12.625 -14.625 9.125 C-13.12300215 0.71381202 -7.35660696 -0.17913816 0 0 Z " fill="#000000" transform="translate(343,470.375)"/>
</svg>
