<?xml version="1.0" encoding="UTF-8"?>
<svg version="1.1" xmlns="http://www.w3.org/2000/svg" width="512" height="512">
<path d="M0 0 C7.55913455 2.79336143 12.87613525 8.17240935 17 15 C17 15.66 17 16.32 17 17 C17.81984375 16.65066406 18.6396875 16.30132812 19.484375 15.94140625 C20.56203125 15.48636719 21.6396875 15.03132813 22.75 14.5625 C23.81734375 14.11003906 24.8846875 13.65757813 25.984375 13.19140625 C33.22991763 10.32885379 39.95264904 9.98496975 47.18359375 13.02734375 C53.14620448 16.22022563 56.78832355 22.05227994 58.7265625 28.3671875 C63.31465245 48.98300502 55.36696968 71.36090531 44.5625 88.875 C39.7180695 96.10354349 34.3882807 103.06802507 28 109 C27.28199219 109.69996094 26.56398437 110.39992188 25.82421875 111.12109375 C17.60523726 118.90547902 11.33191017 122.58351123 0 124 C0.33 155.68 0.66 187.36 1 220 C4.3 211.75 7.6 203.5 11 195 C25.06187464 167.94617596 25.06187464 167.94617596 31.6875 165.8125 C35 166 35 166 36.69140625 167.25585938 C38.301783 169.4022272 38.34581174 170.4373696 38.25 173.09375 C38.20939453 174.29257812 38.20939453 174.29257812 38.16796875 175.515625 C37.95377885 178.68364299 37.64995018 181.83143965 37.28808594 184.98583984 C32.88676524 223.39668778 36.63979997 266.86513464 51 303 C51.32871094 301.75347656 51.65742188 300.50695312 51.99609375 299.22265625 C58.03041327 277.25816734 68.92757739 256.54677334 87 242 C89.98638937 241.05670088 91.30435905 240.74879632 94.25 241.8125 C96 243 96 243 97 245 C97.05060625 247.41897884 97.04288788 249.80931759 96.9921875 252.2265625 C96.97213903 253.73786134 96.95313884 255.24917437 96.93505859 256.76049805 C96.92464539 257.55499359 96.91423218 258.34948914 96.90350342 259.1680603 C96.68725962 277.80785902 97.75564253 295.78617033 102 314 C102.33 314 102.66 314 103 314 C107.34388148 264.89862541 99.6597802 214.60438829 76 171 C75.49702393 170.07018311 75.49702393 170.07018311 74.98388672 169.12158203 C71.16046193 162.11410727 67.11865005 155.45396297 62.15234375 149.18359375 C61 147 61 147 61.25 144.33984375 C62.49546748 140.45424469 62.49546748 140.45424469 65 139 C80.94137449 139 96.58353815 149.8578527 108 160 C108.69867188 160.61488281 109.39734375 161.22976563 110.1171875 161.86328125 C126.86956821 177.57284308 136.16714583 199.55483447 143 221 C143.33 221.99 143.66 222.98 144 224 C144.33 201.89 144.66 179.78 145 157 C142.36 156.67 139.72 156.34 137 156 C115.72425093 148.6011201 101.93597166 126.96167648 92.5703125 107.6640625 C86.05462406 92.46078948 81.009138 73.34017669 86.89453125 57.1484375 C89.63988079 51.81295252 93.19641957 48.08895422 98.3125 45 C106.49797271 42.78021079 112.76320085 43.85850297 120.5546875 47.02734375 C122.70032716 47.88080106 124.74973067 48.50284747 127 49 C127.35191406 48.49210937 127.70382812 47.98421875 128.06640625 47.4609375 C132.30005645 41.55814583 137.06928151 35.74496198 144 33 C150.94628076 32.1271208 157.37297065 32.02057189 163.1484375 36.296875 C167.16917653 39.9952763 171.53521463 44.07042926 174 49 C175.2065625 48.5978125 175.2065625 48.5978125 176.4375 48.1875 C177.613125 47.795625 178.78875 47.40375 180 47 C181.01513672 46.60361328 181.01513672 46.60361328 182.05078125 46.19921875 C189.14014213 43.54228243 196.12103895 42.41217817 203.25 45.5625 C209.81972179 49.35833925 213.1544241 54.45764383 215.39575195 61.56713867 C216.35221773 65.4181211 216.49012861 69.10872408 216.4375 73.0625 C216.42920166 73.88468018 216.42090332 74.70686035 216.41235352 75.55395508 C215.76786756 99.34030315 203.43705121 121.53752009 188 139 C187.06414062 140.07894531 187.06414062 140.07894531 186.109375 141.1796875 C179.45918119 148.36077913 170.49499321 154.42464568 161 157 C159.68 157 158.36 157 157 157 C157.33 184.72 157.66 212.44 158 241 C161.3 233.74 164.6 226.48 168 219 C170.08663813 215.06885921 172.13304639 211.28255514 174.4375 207.5 C174.98116211 206.59475586 175.52482422 205.68951172 176.08496094 204.75683594 C180.82667764 197.00494381 186.0838544 189.88704679 192 183 C192.75796875 182.11441406 193.5159375 181.22882813 194.296875 180.31640625 C196.48497494 177.82957636 198.72477692 175.40723261 201 173 C202.22589844 171.67742187 202.22589844 171.67742187 203.4765625 170.328125 C220.26454081 152.79731579 247.99251679 133.60652416 273.22265625 132.94140625 C275.125 133.125 275.125 133.125 278 134 C280.16810496 137.25215744 280.54475269 138.22687087 280 142 C278.34765625 144.0703125 278.34765625 144.0703125 276.0625 146.125 C270.85573726 151.05515347 266.43591588 156.37616089 262 162 C261.21882813 162.96421875 260.43765625 163.9284375 259.6328125 164.921875 C249.03276403 178.265067 240.12518119 192.71067808 232.88378906 208.13085938 C232.03514324 209.92567497 231.15491967 211.70545624 230.2734375 213.484375 C216.82561628 241.11688436 201.06362402 279.75909228 202 311 C202.73863281 310.16597656 203.47726562 309.33195312 204.23828125 308.47265625 C222.19222138 288.43688344 244.62150087 274.64255069 272.04736328 272.79467773 C275.15924919 272.69888594 278.26174521 272.6777589 281.375 272.6875 C282.42816406 272.67138672 283.48132813 272.65527344 284.56640625 272.63867188 C294.36803471 272.63246045 294.36803471 272.63246045 298 276 C298.8125 279.375 298.8125 279.375 298 283 C296.21795599 284.58963823 294.38433673 285.62512544 292.28515625 286.76171875 C273.62454396 296.87353772 265.05884266 315.59567481 259 335 C252.99558202 355.90064278 250.36923752 377.43958075 248 399 C248.89535965 399.01213028 248.89535965 399.01213028 249.80880737 399.02450562 C256.0054097 399.11037197 262.20168548 399.20986693 268.39794922 399.31738281 C270.71234669 399.35573401 273.02680502 399.3905759 275.34130859 399.421875 C278.66265664 399.4673924 281.98358341 399.52540843 285.3046875 399.5859375 C286.34430634 399.59748871 287.38392517 399.60903992 288.45504761 399.62094116 C289.41589264 399.64081085 290.37673767 399.66068054 291.36669922 399.68115234 C292.21497284 399.69447601 293.06324646 399.70779968 293.93722534 399.7215271 C296 400 296 400 298 402 C298.25 405.5 298.25 405.5 298 409 C295.43959684 411.56040316 293.76856766 411.24199963 290.27793264 411.26587117 C289.46875088 411.26118883 288.65956912 411.2565065 287.8258667 411.25168228 C286.96646437 411.25458916 286.10706204 411.25749604 285.22161722 411.26049101 C282.31011045 411.26785377 279.39881031 411.26081865 276.48730469 411.25396729 C274.39160427 411.25626924 272.29590466 411.25944397 270.20020676 411.26342177 C264.41656546 411.27181487 258.63298968 411.26762414 252.84934807 411.26144934 C246.62160663 411.2569442 240.39387685 411.26389892 234.1661377 411.26940918 C222.66282905 411.27780962 211.15954981 411.2770519 199.6562413 411.27158624 C189.03071297 411.26656222 178.40519236 411.26523841 167.77966309 411.26763153 C167.07582665 411.2677843 166.37199022 411.26793707 165.6468254 411.26809447 C162.78998128 411.26871711 159.93313715 411.26935391 157.07629304 411.270014 C130.25729817 411.27613693 103.43831671 411.27057727 76.61932391 411.2598202 C52.77355251 411.25032845 28.92780246 411.25117768 5.08203125 411.26074219 C-21.68678999 411.27144314 -48.45559938 411.27570276 -75.22442245 411.26951766 C-78.07616933 411.26887619 -80.92791621 411.26825051 -83.77966309 411.26763153 C-84.48187568 411.26747338 -85.18408828 411.26731522 -85.90758005 411.26715227 C-96.52843714 411.26487389 -107.14928569 411.26754427 -117.7701416 411.27259064 C-129.8421975 411.2782978 -141.91422265 411.27671041 -153.98627758 411.26602915 C-160.15146506 411.26075493 -166.31660906 411.2587453 -172.48179626 411.26532745 C-178.11700622 411.27125301 -183.7521321 411.26806842 -189.38733435 411.25737235 C-191.43440209 411.25512381 -193.48147682 411.25630677 -195.52854013 411.26112393 C-198.29441907 411.26713722 -201.06000359 411.26103766 -203.8258667 411.25168228 C-204.63504846 411.25636461 -205.44423022 411.26104695 -206.27793264 411.26587117 C-211.77169926 411.22830074 -211.77169926 411.22830074 -214 409 C-214.25 405.5 -214.25 405.5 -214 402 C-212 400 -212 400 -210.08908081 399.75949097 C-209.31186676 399.76393219 -208.53465271 399.76837341 -207.73388672 399.77294922 C-206.85312469 399.77310028 -205.97236267 399.77325134 -205.06491089 399.77340698 C-203.63672531 399.78889084 -203.63672531 399.78889084 -202.1796875 399.8046875 C-200.71899338 399.80893234 -200.71899338 399.80893234 -199.22879028 399.81326294 C-196.11073651 399.82448087 -192.99296732 399.8495883 -189.875 399.875 C-187.76432706 399.88502772 -185.65364962 399.89415393 -183.54296875 399.90234375 C-178.36188165 399.92442542 -173.18096115 399.95791871 -168 400 C-170.03607287 359.89365598 -181.86572456 321.96631026 -212.23046875 293.94140625 C-214 292 -214 292 -214.5 288.4375 C-214 285 -214 285 -212.3359375 283.3046875 C-204.20957195 278.76588132 -189.32694246 282.28720431 -180.77246094 284.60302734 C-178.39728489 285.30251124 -176.04120016 286.0439349 -173.6875 286.8125 C-172.95893799 287.04855957 -172.23037598 287.28461914 -171.47973633 287.52783203 C-165.77452981 289.49095553 -161.44840891 291.97310616 -156 295 C-155.67 271.24 -155.34 247.48 -155 223 C-157.97 222.34 -160.94 221.68 -164 221 C-184.5349548 212.70889149 -198.99721321 191.26643211 -207.53125 171.65625 C-209.72130827 166.20440281 -211.52681666 160.68680449 -213 155 C-213.19207031 154.26394531 -213.38414062 153.52789062 -213.58203125 152.76953125 C-215.20507073 142.01499859 -216.02225316 128.44667163 -210 119 C-209.62617188 118.401875 -209.25234375 117.80375 -208.8671875 117.1875 C-206.03790134 113.29020515 -202.64802806 111.0281744 -198 110 C-188.51319425 108.90067058 -179.98085615 110.67942923 -172 116 C-171.7215625 115.01 -171.7215625 115.01 -171.4375 114 C-167.77961776 106.36615881 -161.88076624 101.20528734 -154 98.25 C-146.07921963 97.25990245 -140.39826884 98.68917719 -133.875 103.125 C-130.13754731 106.46201133 -127.6030725 110.76308412 -125 115 C-124.21238281 114.6390625 -123.42476563 114.278125 -122.61328125 113.90625 C-113.57162988 110.05418551 -105.07075491 107.94027958 -95.5 111.1875 C-89.32022287 115.66783842 -85.317087 120.87121088 -83.41015625 128.296875 C-79.82818891 151.90374549 -89.35508777 176.03875093 -103 195 C-106.40160475 199.2574924 -110.17388636 203.12701207 -114 207 C-114.90685547 208.01513672 -114.90685547 208.01513672 -115.83203125 209.05078125 C-121.93646563 215.74932116 -130.29064511 220.57745217 -139 223 C-140.32 223 -141.64 223 -143 223 C-143.05476925 233.79707319 -143.06627412 244.59325801 -143.02334595 255.39041042 C-143.00475203 260.4047084 -143.00076685 265.41811163 -143.03076172 270.43237305 C-143.05919076 275.27637613 -143.04846935 280.11888885 -143.01119995 284.96281624 C-143.00378349 286.80586509 -143.01020575 288.64902592 -143.03103638 290.49197197 C-143.48772589 302.29516989 -143.48772589 302.29516989 -138.15625 312.35571289 C-136.78558837 313.58709977 -135.4019405 314.80434546 -134 316 C-131.90625 319.06640625 -131.90625 319.06640625 -130.5 321.5625 C-130.0153125 322.40941406 -129.530625 323.25632812 -129.03125 324.12890625 C-128.6909375 324.74636719 -128.350625 325.36382812 -128 326 C-127.84442627 325.34104736 -127.68885254 324.68209473 -127.52856445 324.00317383 C-121.61304703 299.140634 -121.61304703 299.140634 -117 289 C-116.46503906 287.82179688 -115.93007812 286.64359375 -115.37890625 285.4296875 C-111.615468 277.42151495 -107.28021578 270.28021578 -101 264 C-97.5 264.125 -97.5 264.125 -94 265 C-92.1804265 267.75528879 -91.61970761 270.41495443 -91.140625 273.6484375 C-90.99778076 274.56004639 -90.85493652 275.47165527 -90.70776367 276.41088867 C-90.48117065 277.87812378 -90.48117065 277.87812378 -90.25 279.375 C-87.38626733 296.71489446 -82.51642234 313.21828928 -76.515625 329.71484375 C-75.16872312 333.43877802 -74.03794904 337.17892291 -73 341 C-72.34 341 -71.68 341 -71 341 C-70.41161006 296.71234176 -75.01670242 252.80885458 -95.88745117 212.97705078 C-97.79091318 209.22579854 -99.00705431 206.78479219 -98.96875 202.5234375 C-98 200 -98 200 -95 198 C-78.81900409 197.1673587 -62.5426277 206.29721955 -50.68359375 216.50390625 C-32.59332303 233.33022792 -21.62583523 253.99777273 -13 277 C-13 226.84 -13 176.68 -13 125 C-16.96 123.68 -20.92 122.36 -25 121 C-28.60489357 118.75793205 -31.73446785 116.640776 -35 114 C-35.82242188 113.34128906 -36.64484375 112.68257813 -37.4921875 112.00390625 C-55.92637489 96.35494655 -69.5614757 71.17917052 -72 47 C-72.66648546 35.20178939 -72.08462476 25.18958486 -64 16 C-58.40333637 11.61211901 -52.9665521 10.55054503 -46 11 C-40.08312365 12.37933613 -34.51649455 14.48160031 -29 17 C-28.79375 16.319375 -28.5875 15.63875 -28.375 14.9375 C-22.92689999 3.29837726 -12.4626492 -1.53340195 0 0 Z " fill="#333433" transform="translate(214,101)"/>
<path d="M0 0 C0.66 0.33 1.32 0.66 2 1 C1.29617188 1.82757813 0.59234375 2.65515625 -0.1328125 3.5078125 C-46.72674358 59.37572024 -75.02966442 146.09587563 -69 219 C-67.81575674 220.41577477 -67.81575674 220.41577477 -64.4375 220.0625 C-62.7359375 220.0315625 -62.7359375 220.0315625 -61 220 C-59.98599846 216.01959922 -58.99329998 212.04552454 -58.140625 208.02734375 C-52.70096012 182.72814658 -40.87714927 162.13310242 -19.265625 147.09765625 C-7.87741655 139.9092429 6.45438209 134.73439965 20 135 C19.64808594 135.46148437 19.29617188 135.92296875 18.93359375 136.3984375 C17.27549322 138.58903506 15.63798452 140.79432548 14 143 C13.44699219 143.72445312 12.89398438 144.44890625 12.32421875 145.1953125 C-7.64605279 172.28142792 -12.71388492 208.01100284 -16.69042969 240.58251953 C-17.09299539 243.72621482 -17.551784 246.86248799 -18 250 C-147.69 250 -277.38 250 -411 250 C-411.99 234.655 -411.99 234.655 -413 219 C-414.4207081 212.40949298 -415.8390447 206.30769411 -418 200 C-418.21640137 199.33081543 -418.43280273 198.66163086 -418.65576172 197.97216797 C-423.8212448 182.08936996 -431.7418583 167.30718366 -441.7734375 153.98046875 C-443.96574278 151.0458566 -445.99441738 148.0633214 -448 145 C-434.39173957 143.611402 -420.25956717 151.28034101 -409.90625 159.4375 C-393.4788733 173.3653953 -385.68815163 191.71431341 -380.52099609 212.05908203 C-379.79935617 214.74747818 -378.9172218 217.37284436 -378 220 C-376.00045254 220.04254356 -373.99958364 220.04080783 -372 220 C-370.67901306 218.90768527 -370.67901306 218.90768527 -370.91821289 216.21875 C-370.9361792 214.9915625 -370.95414551 213.764375 -370.97265625 212.5 C-370.98732284 211.1323304 -371.00137782 209.76465413 -371.01489258 208.39697266 C-371.02324127 207.67858215 -371.03158997 206.96019165 -371.04019165 206.22003174 C-371.29534205 180.82855315 -367.91133124 159.08045281 -357 136 C-356.34 136 -355.68 136 -355 136 C-354.82726562 137.02351562 -354.65453125 138.04703125 -354.4765625 139.1015625 C-350.13173603 162.85909542 -341.52039309 186.30470919 -331 208 C-330.59475098 208.8564209 -330.18950195 209.7128418 -329.77197266 210.59521484 C-329.35866699 211.41328613 -328.94536133 212.23135742 -328.51953125 213.07421875 C-328.15577393 213.80600342 -327.7920166 214.53778809 -327.41723633 215.29174805 C-326.06955777 217.2285384 -326.06955777 217.2285384 -323.4675293 217.80786133 C-320.99739772 218.21340718 -320.99739772 218.21340718 -319 217 C-302.45428443 173.48476804 -315.51460621 110.62636901 -333.4375 69.8125 C-333.93121094 68.72582031 -334.42492187 67.63914062 -334.93359375 66.51953125 C-336 64 -336 64 -336 62 C-314.41337655 68.01594424 -300.54370202 85.58679083 -289.66650391 104.17163086 C-275.34052516 129.64283011 -267.1280413 160.91972214 -264.6315918 189.91357422 C-264.31498872 193.39310842 -263.99203684 195.01194474 -262 198 C-258.41642759 198.25015873 -258.41642759 198.25015873 -255 198 C-254.97231478 196.35426767 -254.95330415 194.70838931 -254.9375 193.0625 C-254.92009766 191.68771484 -254.92009766 191.68771484 -254.90234375 190.28515625 C-254.95131029 186.89360328 -254.95131029 186.89360328 -255.484375 183.12890625 C-260.85356255 137.11895144 -250.14778389 89.67116494 -231 48 C-230.67 48 -230.34 48 -230 48 C-229.97494385 48.94617188 -229.9498877 49.89234375 -229.92407227 50.8671875 C-229.82814227 54.46069344 -229.72841686 58.05408665 -229.62768555 61.64746094 C-229.58502301 63.18714721 -229.54331853 64.7268604 -229.50268555 66.26660156 C-229.08742615 86.71418336 -229.08742615 86.71418336 -226.75 107 C-226.55929932 108.15495972 -226.55929932 108.15495972 -226.36474609 109.33325195 C-223.74274547 124.75849075 -220.81529646 140.14946291 -215.69775391 154.96142578 C-214.93346514 157.19438981 -214.20709746 159.43810602 -213.48046875 161.68359375 C-207.63993138 181.71536061 -207.63993138 181.71536061 -197 199 C-194.54190002 199.2500773 -194.54190002 199.2500773 -192 199 C-189.7423982 197.21129308 -189.7423982 197.21129308 -189.98828125 194.79296875 C-190.14876953 193.50326172 -190.14876953 193.50326172 -190.3125 192.1875 C-190.41175781 191.33542969 -190.51101563 190.48335937 -190.61328125 189.60546875 C-190.85834734 187.95436693 -191.15157442 186.30912292 -191.50927734 184.67871094 C-193.98387698 171.17059788 -193.12967104 155.72859368 -188 143 C-187.56429688 141.83597656 -187.12859375 140.67195312 -186.6796875 139.47265625 C-182.53197566 129.03538138 -177.14123415 119.80260396 -169 112 C-168.9906543 112.61593018 -168.98130859 113.23186035 -168.97167969 113.86645508 C-168.55946021 135.8252251 -166.71047825 157.97230274 -160 179 C-159.63938477 180.143479 -159.63938477 180.143479 -159.27148438 181.31005859 C-156.4807605 191.04635842 -156.4807605 191.04635842 -152 200 C-148.91634129 200.2502157 -148.91634129 200.2502157 -146 200 C-127.04554514 167.56500612 -138.60632743 100.73955241 -147.1171875 66.98046875 C-152.34114852 47.16424326 -159.83224935 27.45429324 -170.8828125 10.1171875 C-171.25148438 9.41851562 -171.62015625 8.71984375 -172 8 C-171.67 7.34 -171.34 6.68 -171 6 C-166.63383126 8.95455028 -162.29992279 11.94978856 -158 15 C-157.32839844 15.47566406 -156.65679687 15.95132812 -155.96484375 16.44140625 C-136.92940641 31.36107336 -126.60900395 57.53458832 -120.50683594 80.14306641 C-120.07073524 81.74084189 -119.60462811 83.33037298 -119.1328125 84.91796875 C-115.97485744 95.67780532 -114.38524627 106.745245 -112.9921875 117.84765625 C-112.90494919 118.54045685 -112.81771088 119.23325745 -112.72782898 119.947052 C-112.28778091 123.4590807 -111.85894951 126.97203877 -111.44555664 130.48730469 C-111.20760376 132.43685059 -111.20760376 132.43685059 -110.96484375 134.42578125 C-110.8268335 135.59536377 -110.68882324 136.76494629 -110.54663086 137.9699707 C-110.05114094 140.71652068 -109.40901363 142.61723313 -108 145 C-105.08347826 145.16681109 -105.08347826 145.16681109 -102 145 C-99.59573389 142.59573389 -99.33994372 141.09696832 -98.51953125 137.8203125 C-98.11009277 136.22485596 -98.11009277 136.22485596 -97.69238281 134.59716797 C-97.40202148 133.45135254 -97.11166016 132.30553711 -96.8125 131.125 C-88.57787045 99.8017031 -76.37373956 69.48517245 -56 44 C-55.27039063 43.06671875 -54.54078125 42.1334375 -53.7890625 41.171875 C-39.96790561 23.81056213 -21.46704546 7.15568182 0 0 Z " fill="#58DAA5" transform="translate(468,251)"/>
<path d="M0 0 C11.61046869 6.55692616 18.20500623 18.22994814 22.3125 30.625 C24.56450437 39.28731506 24.15301586 48.06517005 23.8125 56.9375 C28.2675 56.4425 28.2675 56.4425 32.8125 55.9375 C32.4825 55.2775 32.1525 54.6175 31.8125 53.9375 C30.99990855 43.40045352 31.36711079 33.86745016 37.90625 25.14453125 C46.32019704 15.42642241 46.32019704 15.42642241 52.9375 14.5 C55.8125 14.9375 55.8125 14.9375 57.75 16.5625 C58.8125 18.9375 58.8125 18.9375 59.0625 21.75 C57.64208606 25.37205554 56.59520363 26.04715327 53.5 28.25 C48.62792508 31.79544306 46.19780284 35.04298991 44.8125 40.9375 C44.03501717 48.32500297 44.03501717 48.32500297 46.8125 54.9375 C47.080625 54.29683594 47.34875 53.65617187 47.625 52.99609375 C50.94189756 45.67491525 54.75160857 40.19036105 62.26953125 36.84375 C67.51048521 35.10481597 72.31684283 34.35900977 77.8125 34.9375 C79.8125 36.0625 79.8125 36.0625 80.8125 37.9375 C81.45557798 43.08212384 81.45557798 43.08212384 79.59375 45.55859375 C77.37401664 47.27693997 75.69910926 47.56771162 72.9375 48 C67.6882569 48.88703517 67.6882569 48.88703517 62.8125 50.9375 C61.75277156 52.75889981 61.75277156 52.75889981 60.8125 54.9375 C60.461875 55.68386719 60.11125 56.43023437 59.75 57.19921875 C57.78136706 62.17688219 57.78136706 62.17688219 58.78125 67.23828125 C59.82363275 68.73537688 60.91366273 70.20014888 62.04296875 71.6328125 C69.20764567 80.96429016 70.64886324 90.49127162 69.8125 101.9375 C68.22922591 108.17521841 64.13666805 112.49181866 58.8125 115.9375 C55.19506185 117.69967116 51.8897972 118.9375 47.8125 118.9375 C47.6475 120.0925 47.4825 121.2475 47.3125 122.4375 C44.83618115 133.53702845 38.38264416 144.5749354 30.8125 152.9375 C30.24402344 153.5975 29.67554687 154.2575 29.08984375 154.9375 C18.28371065 166.68429437 0.80219394 176.4298367 -15.296875 177.17578125 C-31.37937314 177.55730037 -31.37937314 177.55730037 -38.1875 172.9375 C-39.26 172.215625 -40.3325 171.49375 -41.4375 170.75 C-48.5095082 163.51726434 -50.52272045 156.03142722 -50.57250977 146.13549805 C-50.25836806 131.88025685 -43.08774452 118.7268555 -34.1875 107.9375 C-35.72857422 107.40962891 -35.72857422 107.40962891 -37.30078125 106.87109375 C-49.21054455 102.67307146 -62.33461183 97.42186029 -69.4375 86.375 C-69.93765625 85.61058594 -70.4378125 84.84617187 -70.953125 84.05859375 C-74.20294697 78.47424776 -73.824524 72.19663112 -73.1875 65.9375 C-71.20007517 60.09595692 -67.36346173 56.89177467 -62.15234375 53.84765625 C-52.5937768 49.41993041 -40.75282946 51.65795847 -31.1875 54.9375 C-31.39246094 54.29425781 -31.59742188 53.65101562 -31.80859375 52.98828125 C-35.9192551 39.20084773 -37.11050517 23.7138951 -30.9375 10.3125 C-24.50393724 -1.03088698 -11.91767912 -5.48792823 0 0 Z " fill="#343434" transform="translate(73.1875,2.0625)"/>
<path d="M0 0 C8.33846033 4.16923017 13.0000158 12.46879493 16 21 C22.02321527 41.35524088 22.40316929 65.16549231 14 85 C13.47792969 86.26070312 13.47792969 86.26070312 12.9453125 87.546875 C10.35162691 93.27671636 7.52475212 97.77032692 2 101 C-2.2016846 102.32684777 -4.04131296 102.43043091 -8.0625 100.625 C-18.16532858 91.59694042 -23.23353326 76.77879819 -24.27270508 63.52075195 C-24.36525493 59.86341115 -24.36065835 56.22060809 -24.3125 52.5625 C-24.31572266 51.34240234 -24.31894531 50.12230469 -24.32226562 48.86523438 C-24.21836138 31.09760879 -21.46218037 14.46218037 -8.5 1.5 C-5.3059573 -0.41642562 -3.67255143 -0.59960023 0 0 Z " fill="#FB7F9F" transform="translate(367,145)"/>
<path d="M0 0 C5.55559765 1.35354561 8.97050846 5.62758332 11.87890625 10.30859375 C19.06730053 24.06416305 20.33297027 37.02478903 20.3984375 52.3359375 C20.4190625 53.53025391 20.4396875 54.72457031 20.4609375 55.95507812 C20.49564949 63.92581819 19.47945459 70.90710812 17.1484375 78.5234375 C16.78363281 79.74417969 16.41882813 80.96492188 16.04296875 82.22265625 C13.35177741 89.65500779 9.60482591 97.7952433 2.1484375 101.5234375 C-4.84197991 102.22247924 -4.84197991 102.22247924 -8.88671875 99.421875 C-12.02045536 96.62852531 -13.72927637 93.57019162 -15.5390625 89.7734375 C-15.83449951 89.15364014 -16.12993652 88.53384277 -16.43432617 87.89526367 C-21.93034143 76.15606845 -24.24891278 64.41739619 -24.2265625 51.4609375 C-24.22495117 50.47013184 -24.22333984 49.47932617 -24.22167969 48.45849609 C-23.95695305 32.29719458 -20.14137874 16.33425872 -9.8515625 3.5234375 C-6.69739924 0.74777383 -4.31645358 -0.20860185 0 0 Z " fill="#FC7F9F" transform="translate(66.8515625,210.4765625)"/>
<path d="M0 0 C9.99293265 5.84857686 13.58361492 17.1636952 16.375 27.8125 C21.19239121 48.59528115 19.12419652 72.36597724 8.78515625 91.15625 C3.8954672 98.94551396 3.8954672 98.94551396 -0.94140625 100.70703125 C-4.63538431 101.45704198 -6.63714577 101.15965586 -10.125 99.625 C-21.17748057 89.5336047 -25.29618371 74.24846248 -26.20458984 59.73022461 C-26.30238173 56.35888664 -26.32906455 52.99768683 -26.3125 49.625 C-26.30758545 48.4383374 -26.3026709 47.2516748 -26.29760742 46.02905273 C-26.08739607 30.32572545 -23.14567414 13.88871908 -12 2 C-7.89812651 -1.47081603 -5.10977088 -1.55891315 0 0 Z " fill="#B692DA" transform="translate(212,113)"/>
<path d="M0 0 C2.54158797 1.18396955 2.93893476 2.40550369 4.07421875 4.94140625 C8.49723958 13.43577041 15.84441917 18.94947212 24.88671875 21.87890625 C28.24524125 22.65112948 28.24524125 22.65112948 30.88671875 22.87890625 C28.81200686 36.47979528 21.06002739 48.65060655 10.27929688 57.14550781 C-2.07050463 66.21868568 -16.51271899 72.5528861 -32.11328125 70.87890625 C-37.80517937 68.08470172 -41.63284199 63.69474468 -44.11328125 57.87890625 C-46.05592582 45.63002099 -40.10617276 33.61844138 -33.11328125 23.87890625 C-25.18413963 14.12330788 -17.29118589 7.56200631 -6.11328125 1.87890625 C-5.42621094 1.4715625 -4.73914063 1.06421875 -4.03125 0.64453125 C-2.11328125 -0.12109375 -2.11328125 -0.12109375 0 0 Z " fill="#F7EB98" transform="translate(78.11328125,97.12109375)"/>
<path d="M0 0 C7.0158642 5.04629435 10.81107845 11.70832483 13 20 C14.28703556 29.54456462 12.70081712 38.06219871 7.59765625 46.25 C2.1823388 53.24092326 -6.29127845 57.69009312 -15 59 C-23.8987461 59.60330482 -31.9126945 57.60391597 -39 52 C-46.2665434 45.61962043 -50.1133257 38.39349957 -51.25390625 28.8828125 C-51.7418229 20.03735583 -48.30418273 11.59646336 -42.765625 4.78515625 C-31.00434278 -7.10622865 -14.21549782 -8.32971147 0 0 Z " fill="#353433" transform="translate(463,41)"/>
<path d="M0 0 C4.90824009 1.1124342 7.56630778 3.60877529 10.55078125 7.578125 C16.52772186 17.49587609 20.93468155 27.13378056 20.80078125 38.828125 C20.79062988 40.09402466 20.79062988 40.09402466 20.78027344 41.38549805 C20.62743721 50.60276646 19.70839641 56.84170226 14.55078125 64.578125 C13.65320929 67.8791952 13.05862621 71.19694671 12.55078125 74.578125 C7.7126989 73.7328167 5.68415981 70.59939644 2.80078125 66.890625 C2.27363525 66.22087646 1.74648926 65.55112793 1.20336914 64.86108398 C-10.81430135 49.25697868 -16.53096565 34.36425928 -15.44921875 14.578125 C-14.6264816 9.82309296 -13.07260161 6.50375409 -10.38671875 2.515625 C-6.74053085 0.11069256 -4.32110631 -0.28167212 0 0 Z " fill="#94DCED" transform="translate(65.44921875,11.421875)"/>
<path d="M0 0 C7.15684842 2.50255811 12.83939051 8.93372019 16.32421875 15.4921875 C19.00577906 21.68329868 20.25246483 26.74359144 17.75 33.25 C15.69807347 36.47445597 13.93776542 38.3830433 10.2578125 39.5546875 C1.6982625 41.24290324 -6.56991287 40.68734012 -14 36 C-18.93495468 32.65541157 -22.75362618 29.04268738 -24 23 C-24.60732962 17.35942616 -24.8057389 12.67116217 -22.3125 7.5 C-15.37801417 0.00325857 -10.03843444 -1.0132692 0 0 Z " fill="#FCFCFC" transform="translate(113,70)"/>
<path d="M0 0 C4.02511943 2.61204559 6.39981191 6.05456081 8.203125 10.4296875 C8.85955795 17.02811741 9.3708381 23.95956406 5.203125 29.4296875 C-0.36203016 35.08936759 -4.07105483 37.50844275 -12.046875 37.8046875 C-17.84831327 37.75046845 -21.43620373 36.19244167 -25.796875 32.4296875 C-30.16788567 27.82862363 -31.89025475 23.85201284 -32.109375 17.5546875 C-31.95124959 11.93707417 -30.96264523 7.72671653 -26.9921875 3.515625 C-18.21569976 -4.53224866 -10.51176955 -5.70731046 0 0 Z " fill="#F7EB98" transform="translate(455.796875,50.5703125)"/>
<path d="M0 0 C5.51912415 -0.28063343 8.4031393 -0.36681388 13 3 C14.85272066 5.00924852 16.5288854 6.96810855 18.1875 9.125 C18.6616333 9.73827148 19.1357666 10.35154297 19.62426758 10.98339844 C40.46735747 38.58949789 50.33708899 70.61692346 50 105 C45.71 105 41.42 105 37 105 C36.91363281 102.98261719 36.82726563 100.96523438 36.73828125 98.88671875 C35.99318263 83.76102952 34.94479935 69.43356177 30 55 C29.78359863 54.33081543 29.56719727 53.66163086 29.34423828 52.97216797 C24.1787552 37.08936996 16.2581417 22.30718366 6.2265625 8.98046875 C4.03425722 6.0458566 2.00558262 3.0633214 0 0 Z " fill="#02C88B" transform="translate(20,396)"/>
<path d="M0 0 C3.78590524 2.10328069 5.96619271 4.67423252 7.49609375 8.765625 C11.55978459 26.78447118 2.25426789 47.02620378 -7 62 C-15.08206585 73.72137724 -15.08206585 73.72137724 -20 77 C-19.35587386 74.22875964 -18.70977252 71.45800555 -18.0625 68.6875 C-17.88009766 67.90181641 -17.69769531 67.11613281 -17.50976562 66.30664062 C-17.33251953 65.54931641 -17.15527344 64.79199219 -16.97265625 64.01171875 C-16.81031494 63.31522217 -16.64797363 62.61872559 -16.48071289 61.90112305 C-16.06234435 60.2465594 -15.53968631 58.61905892 -15 57 C-14.79283324 52.75012192 -14.81420464 48.49748766 -14.81469727 44.24316406 C-14.81254367 42.16709854 -14.79447487 40.09159416 -14.77539062 38.015625 C-14.74003258 29.51347677 -15.47256166 21.37703278 -17 13 C-17.21607325 11.56364302 -17.42594467 10.1263141 -17.625 8.6875 C-17.74875 7.800625 -17.8725 6.91375 -18 6 C-16.70903219 5.18639005 -15.41720125 4.37414954 -14.125 3.5625 C-13.04605469 2.88380859 -13.04605469 2.88380859 -11.9453125 2.19140625 C-8.01003017 -0.21875662 -4.5609658 -0.61397617 0 0 Z " fill="#EE5E7D" transform="translate(112,222)"/>
<path d="M0 0 C4.11967705 2.36662299 5.58686806 4.55079419 7 9 C9.13447261 30.99003177 0.2832097 51.88823777 -13 69 C-15.2597067 71.7406718 -17.56774933 74.4113345 -20 77 C-21 75 -21 75 -20.29296875 72.85546875 C-19.74576172 71.53482422 -19.74576172 71.53482422 -19.1875 70.1875 C-12.95862978 53.39756955 -12.60901149 32.11623744 -17.24609375 14.8671875 C-18.10562518 11.59829596 -18.56978594 8.34982211 -19 5 C-12.82485371 1.39031115 -7.28022411 -1.55388183 0 0 Z " fill="#A078C9" transform="translate(255,124)"/>
<path d="M0 0 C3.39406852 2.54555139 5.44444238 5.08381546 7 9 C8.88489625 31.00893568 -0.39036793 53.46499345 -14.19628906 70.38183594 C-16.09028126 72.62511333 -18.02742701 74.8256398 -20 77 C-21.28968917 74.42062166 -20.79709087 73.56642887 -20.0390625 70.82421875 C-19.81476563 69.99599609 -19.59046875 69.16777344 -19.359375 68.31445312 C-18.99585938 67.01411133 -18.99585938 67.01411133 -18.625 65.6875 C-16.30212989 57.21923452 -14.80468817 49.81096731 -14.8125 41 C-14.81330566 40.06099854 -14.81411133 39.12199707 -14.81494141 38.15454102 C-14.87823818 30.9405702 -15.61341726 24.08281453 -17 17 C-17.38004434 14.73000543 -17.7551909 12.45918445 -18.125 10.1875 C-18.41582798 8.45819208 -18.70716556 6.72896929 -19 5 C-12.9096592 0.88092893 -7.43977308 -1.63883113 0 0 Z " fill="#F05F7E" transform="translate(412,157)"/>
<path d="M0 0 C3.51804789 1.36552377 6.87461033 2.87449553 10 5 C11.1772994 8.53189819 10.51332037 10.61150909 9.6640625 14.15478516 C5.52656917 31.57457243 5.42031571 48.99805401 10.02734375 66.3203125 C10.88010061 69.54640472 11.51200756 72.70219846 12 76 C7.4417108 72.48700789 4.20082975 68.99635368 1.0625 64.1875 C0.42127197 63.21115601 0.42127197 63.21115601 -0.23291016 62.21508789 C-10.04240681 46.82407224 -17.22741216 28.46143411 -15 10 C-11.93619306 2.66412423 -8.30457113 -1.22526459 0 0 Z " fill="#F05F7E" transform="translate(26,222)"/>
<path d="M0 0 C3.50112467 1.39558719 6.74857789 3.09937747 10 5 C9.36402288 9.81613738 8.46511719 14.50409646 7.4375 19.25 C3.99191403 36.64043806 5.46727452 54.66063477 11.29296875 71.35546875 C12 74 12 74 11 77 C-4.3841542 58.59652582 -16.96601563 37.76771512 -16.359375 12.92578125 C-15.81445718 8.48943947 -14.46056663 5.7260009 -12 2 C-7.91351804 -0.7243213 -4.80180993 -0.75394272 0 0 Z " fill="#F05F7E" transform="translate(326,157)"/>
<path d="M0 0 C5.74824564 0.08412067 10.12993836 2.59069988 15 5.4375 C14.55822217 10.69233099 13.95186243 15.85008058 12.98046875 21.03515625 C11.92998631 27.26424874 11.65476138 33.31636707 11.6875 39.625 C11.69023926 40.7063623 11.69297852 41.78772461 11.69580078 42.90185547 C11.84562692 54.50390931 13.71219645 65.31614712 17 76.4375 C2.97110571 66.28893817 -6.56446362 45.16911694 -9.70263672 28.49414062 C-10.26167553 24.62768501 -10.43675973 20.77799869 -10.5 16.875 C-10.51861084 16.12500732 -10.53722168 15.37501465 -10.55639648 14.60229492 C-10.47863096 7.89558498 -7.5762306 0.22999271 0 0 Z " fill="#A078C9" transform="translate(164,123.5625)"/>
<path d="M0 0 C12.06503284 4.10440199 22.38122053 12.73367755 29.9375 22.875 C28.41476286 27.44321141 25.45177854 29.06495193 21.43359375 31.53125 C13.58093038 34.54948039 5.15424632 32.39113351 -2.5390625 29.625 C-11.02405433 25.67249748 -18.64473395 20.54067525 -22.43359375 11.72265625 C-23.30962789 9.14896588 -23.71314585 7.54987737 -23.0625 4.875 C-16.61968626 -2.58510012 -9.22641408 -2.4857217 0 0 Z " fill="#94DBEC" transform="translate(34.0625,66.125)"/>
<path d="M0 0 C1.875 1 1.875 1 2.9921875 4.0625 C3.42917969 5.5165625 3.42917969 5.5165625 3.875 7 C3.19695312 7.40089844 2.51890625 7.80179687 1.8203125 8.21484375 C-14.6365967 18.26677859 -27.3341209 32.33212432 -32.4375 51.3125 C-33.63668555 57.45412318 -33.2844085 63.77421259 -33.125 70 C-38.37237949 67.00769269 -41.73988816 63.60603211 -44.125 58 C-46.06764457 45.75111474 -40.11789151 33.73953513 -33.125 24 C-25.19585838 14.24440163 -17.30290464 7.68310006 -6.125 2 C-5.39925781 1.61328125 -4.67351562 1.2265625 -3.92578125 0.828125 C-2.125 0 -2.125 0 0 0 Z " fill="#FBC17E" transform="translate(78.125,97)"/>
<path d="M0 0 C5.30629872 -0.68503447 9.73779977 -0.86468544 14.125 2.5 C22.27050845 10.56272889 28.21798819 24.4376538 28.27832031 35.77661133 C28.26897461 36.59282959 28.25962891 37.40904785 28.25 38.25 C28.23984863 39.51589966 28.23984863 39.51589966 28.22949219 40.80737305 C28.07665596 50.02464146 27.15761516 56.26357726 22 64 C21.10242804 67.3010702 20.50784496 70.61882171 20 74 C18.0625 73.625 18.0625 73.625 16 73 C14.57724574 70.15449148 15.54366109 68.78507969 16.4375 65.75 C20.73741475 47.85359557 18.57260931 31.2388402 9.4375 15.34375 C6.26675747 10.17406109 3.18713604 7.1830153 -2 4 C-1.34 2.68 -0.68 1.36 0 0 Z " fill="#35C4D3" transform="translate(58,12)"/>
<path d="M0 0 C12.06503284 4.10440199 22.38122053 12.73367755 29.9375 22.875 C28.9375 25.875 28.9375 25.875 25.875 27.5625 C24.905625 27.995625 23.93625 28.42875 22.9375 28.875 C22.15375 27.864375 21.37 26.85375 20.5625 25.8125 C14.47972217 18.75647772 6.98162333 14.05632845 -2.0625 11.875 C-2.81402344 11.68679687 -3.56554687 11.49859375 -4.33984375 11.3046875 C-7.84140332 10.75207408 -11.28071338 10.80695016 -14.8125 10.875 C-17.23595939 10.92063954 -19.63757976 10.92231552 -22.0625 10.875 C-23.0625 9.875 -23.0625 9.875 -23.4375 7.625 C-22.90727448 3.73667948 -20.97593465 2.3722297 -18.0625 -0.125 C-12.84126598 -2.73561701 -5.45246077 -1.46896724 0 0 Z " fill="#35C3D3" transform="translate(34.0625,66.125)"/>
<path d="M0 0 C2.8028966 1.03861379 4.57973607 2.19887336 7 4 C7 4.33 7 4.66 7 5 C6.15695313 5.20496094 5.31390625 5.40992187 4.4453125 5.62109375 C3.34960938 5.89050781 2.25390625 6.15992187 1.125 6.4375 C-0.51082031 6.83775391 -0.51082031 6.83775391 -2.1796875 7.24609375 C-4.92484721 7.8786478 -4.92484721 7.8786478 -7 9 C-5.906875 9.4125 -4.81375 9.825 -3.6875 10.25 C-0.48158846 11.64528538 1.42160326 12.75035965 3 16 C3.3125 19.125 3.3125 19.125 3 22 C1 24 1 24 -2.3125 24.5 C-6 24 -6 24 -8.875 21.3125 C-10.79966091 18.31229329 -11.69150596 16.49626583 -12 13 C-12.639375 14.11375 -13.27875 15.2275 -13.9375 16.375 C-14.29714844 17.00148438 -14.65679687 17.62796875 -15.02734375 18.2734375 C-16.76537686 21.35862077 -17.24511913 23.58847033 -17.5625 27.125 C-17.68818359 28.49011719 -17.68818359 28.49011719 -17.81640625 29.8828125 C-17.87699219 30.58148438 -17.93757813 31.28015625 -18 32 C-21.95971366 28.4362577 -23.71928879 25.42521428 -24.3359375 20.09765625 C-24.41577673 13.8941484 -24.41481243 9.7727702 -20 5 C-13.60052749 -0.63763055 -8.39666935 -0.76786644 0 0 Z " fill="#DDDDDD" transform="translate(113,70)"/>
<path d="M0 0 C-0.89138672 0.35771484 -0.89138672 0.35771484 -1.80078125 0.72265625 C-4.46660288 2.27101091 -5.53546457 3.85115147 -7.1875 6.4375 C-7.69667969 7.21996094 -8.20585937 8.00242187 -8.73046875 8.80859375 C-12.13285812 14.68164125 -11.53222297 21.42376555 -11 28 C-9.48213662 33.08051681 -6.47127834 37.03282476 -3 41 C-9.37220867 41.66377174 -13.01810529 39.96163741 -18 36 C-22.37101067 31.39893613 -24.09337975 27.42232534 -24.3125 21.125 C-24.15437459 15.50738667 -23.16577023 11.29702903 -19.1953125 7.0859375 C-12.86298144 1.27930939 -8.49490226 -0.28796279 0 0 Z " fill="#FAC17E" transform="translate(448,47)"/>
<path d="M0 0 C4.85102454 2.56818946 9.69371486 6.69992972 12.1875 11.6875 C12.44890874 14.75905269 12.62654748 16.886884 11.125 19.625 C7.97099702 21.35461454 5.61024572 20.47487533 2.1875 19.6875 C-0.68359375 17.6484375 -0.68359375 17.6484375 -3.25 15.0625 C-4.11496094 14.22460938 -4.97992188 13.38671875 -5.87109375 12.5234375 C-8.30212401 8.97227458 -8.34828031 6.90864767 -7.8125 2.6875 C-5.11607711 0.07038367 -3.73183057 -0.41464784 0 0 Z " fill="#303030" transform="translate(481.8125,97.3125)"/>
<path d="M0 0 C4.30227134 2.98225627 8.15922491 6.58294117 11 11 C11.3125 14.625 11.3125 14.625 11 18 C9 20 9 20 5.7109375 20.41015625 C1.14586236 19.90559531 -0.21490476 18.69969062 -3.375 15.4375 C-4.22835938 14.59058594 -5.08171875 13.74367188 -5.9609375 12.87109375 C-8.36922763 9.48011053 -8.81843232 7.12207698 -9 3 C-6.92801957 -0.77831726 -3.96978959 -0.7490169 0 0 Z " fill="#303030" transform="translate(403,18)"/>
<path d="M0 0 C2.90092306 0.5206785 3.63074453 1.15961264 5.4375 3.4375 C5.82568359 5.3828125 5.82568359 5.3828125 5.8359375 7.5625 C5.83980469 8.35140625 5.84367187 9.1403125 5.84765625 9.953125 C5.83605469 10.77296875 5.82445312 11.5928125 5.8125 12.4375 C5.82410156 13.25734375 5.83570313 14.0771875 5.84765625 14.921875 C5.84378906 15.71078125 5.83992188 16.4996875 5.8359375 17.3125 C5.83086182 18.39144531 5.83086182 18.39144531 5.82568359 19.4921875 C5.32391099 22.00673097 4.45696789 22.89546872 2.4375 24.4375 C-0.5625 24.875 -0.5625 24.875 -3.5625 24.4375 C-6.27656283 21.9405622 -6.56747141 20.39450401 -6.99609375 16.6875 C-7.01327222 15.27093689 -7.01411464 13.85409695 -7 12.4375 C-7.01998047 11.7259375 -7.03996094 11.014375 -7.06054688 10.28125 C-7.05726772 6.76599425 -6.8377337 4.80198313 -4.6953125 1.96484375 C-2.5625 0.4375 -2.5625 0.4375 0 0 Z " fill="#323232" transform="translate(444.5625,111.5625)"/>
<path d="M0 0 C0.78890625 -0.00386719 1.5778125 -0.00773437 2.390625 -0.01171875 C3.21046875 -0.00011719 4.0303125 0.01148438 4.875 0.0234375 C6.10476563 0.00603516 6.10476563 0.00603516 7.359375 -0.01171875 C8.54273438 -0.00591797 8.54273438 -0.00591797 9.75 0 C10.46929687 0.00338379 11.18859375 0.00676758 11.9296875 0.01025391 C14.45974467 0.51512224 15.36771384 1.32532279 16.875 3.3984375 C16.75 6.9609375 16.75 6.9609375 15.875 10.3984375 C12.15935162 12.87553642 9.237579 12.73018584 4.9375 12.7109375 C4.22142578 12.72705078 3.50535156 12.74316406 2.76757812 12.75976562 C-0.43846699 12.76273694 -2.75496588 12.59746216 -5.6015625 11.06640625 C-7.125 9.3984375 -7.125 9.3984375 -7.5625 6.3984375 C-6.86236634 1.59752095 -4.7635266 0.02240906 0 0 Z " fill="#323232" transform="translate(383.125,61.6015625)"/>
<path d="M0 0 C1.875 1.75 1.875 1.75 3 4 C2.7190121 8.7527096 0.60546374 10.96195848 -2.6875 14.25 C-3.53699219 15.12140625 -4.38648438 15.9928125 -5.26171875 16.890625 C-8.32231958 19.24829183 -10.1665134 19.85664247 -14 20 C-16.4375 18.4375 -16.4375 18.4375 -18 16 C-17.82067031 10.6051653 -15.90667012 8.32208839 -12.0625 4.6875 C-11.16660156 3.82511719 -10.27070313 2.96273437 -9.34765625 2.07421875 C-5.86888176 -0.99937402 -4.43664485 -1.40674105 0 0 Z " fill="#323232" transform="translate(412,98)"/>
<path d="M0 0 C2.38876665 -0.13030584 4.72251123 -0.09681333 7.11279297 -0.00097656 C7.93263672 0.00482422 8.75248047 0.010625 9.59716797 0.01660156 C15.66893235 0.14061636 15.66893235 0.14061636 19.11279297 2.43652344 C19.77985569 8.55126501 19.77985569 8.55126501 17.83349609 11.13427734 C14.84179784 13.39842582 11.21228641 12.86560598 7.61279297 12.81152344 C6.45457031 12.82892578 6.45457031 12.82892578 5.27294922 12.84667969 C-0.43055184 12.81702544 -0.43055184 12.81702544 -2.57666016 11.02880859 C-4.19015092 9.06845339 -4.73736432 7.98384945 -4.88720703 5.43652344 C-3.86174105 2.56263348 -3.12818026 0.72356873 0 0 Z " fill="#323232" transform="translate(492.88720703125,61.5634765625)"/>
<path d="M0 0 C2.56628339 3.84942509 2.29464462 7.04297887 2.25 11.5 C2.25773437 12.27214844 2.26546875 13.04429688 2.2734375 13.83984375 C2.25993153 17.73631468 2.20675169 19.68987247 0 23 C-2.68572559 24.20394595 -3.84122032 24.04800316 -6.6875 23.1875 C-9 22 -9 22 -10 20 C-10.15071519 17.17409019 -10.23132601 14.38927538 -10.25 11.5625 C-10.270625 10.78583984 -10.29125 10.00917969 -10.3125 9.20898438 C-10.35206327 3.46736465 -10.35206327 3.46736465 -8.70214844 1.27709961 C-5.89214555 -0.83120864 -3.37133977 -0.36778252 0 0 Z " fill="#323232" transform="translate(448,0)"/>
<path d="M0 0 C1.875 1.125 1.875 1.125 3 3 C3.58378864 7.10987204 3.29609951 8.59641953 0.8046875 11.9921875 C-0.15614271 12.96885557 -1.13337361 13.92961526 -2.125 14.875 C-2.599375 15.37257813 -3.07375 15.87015625 -3.5625 16.3828125 C-6.12232582 18.90112763 -7.65133327 19.95809294 -11.25 20.390625 C-14 20 -14 20 -15.875 18.875 C-17.56390768 16.06015386 -17.39012128 14.24580906 -17 11 C-15.33602741 8.73202312 -13.87550282 7.03221512 -11.875 5.125 C-11.400625 4.62742187 -10.92625 4.12984375 -10.4375 3.6171875 C-7.0045152 0.23987273 -4.76570862 -0.67694725 0 0 Z " fill="#333333" transform="translate(491,18)"/>
<path d="M0 0 C3.5625 1 3.5625 1 6 3.1875 C7.81590053 6.45612095 8.05367867 8.31616 7.5625 12 C5.5625 14 5.5625 14 2.25 14.5 C-1.4375 14 -1.4375 14 -4.375 11.3125 C-7.23993161 6.7112462 -7.23993161 6.7112462 -6.4375 3 C-4.66528611 -0.12743628 -3.62176191 0 0 0 Z " fill="#495059" transform="translate(108.4375,80)"/>
<path d="M0 0 C3.875 0.875 3.875 0.875 5 2 C7.45809998 2.2500773 7.45809998 2.2500773 10 2 C10.66 1.34 11.32 0.68 12 0 C14.125 0.375 14.125 0.375 16 1 C15.8125 3.3125 15.8125 3.3125 15 6 C12.31902045 8.22138306 10.44293165 8.9354058 7 9.4375 C3.31506879 8.9001142 1.67662329 7.51917486 -1 5 C-0.67 3.35 -0.34 1.7 0 0 Z " fill="#42383B" transform="translate(357,203)"/>
<path d="M0 0 C3.875 0.875 3.875 0.875 5 2 C7.45809998 2.2500773 7.45809998 2.2500773 10 2 C10.66 1.34 11.32 0.68 12 0 C14.125 0.375 14.125 0.375 16 1 C15.8125 3.3125 15.8125 3.3125 15 6 C12.31902045 8.22138306 10.44293165 8.9354058 7 9.4375 C3.31506879 8.9001142 1.67662329 7.51917486 -1 5 C-0.67 3.35 -0.34 1.7 0 0 Z " fill="#40383A" transform="translate(58,274)"/>
<path d="M0 0 C0.721875 0.144375 1.44375 0.28875 2.1875 0.4375 C3.5796875 0.7159375 3.5796875 0.7159375 5 1 C5.886875 1.226875 6.77375 1.45375 7.6875 1.6875 C8.8321875 1.8421875 8.8321875 1.8421875 10 2 C10.66 1.34 11.32 0.68 12 0 C14.625 0.375 14.625 0.375 17 1 C16.65557106 3.49710982 16.15296001 4.82154665 14.5 6.75 C10.7139866 8.6430067 7.14829998 8.69138333 3 8 C0.375 6.25 0.375 6.25 -1 4 C-0.75 1.75 -0.75 1.75 0 0 Z " fill="#3A383C" transform="translate(200,173)"/>
<path d="M0 0 C2.69082872 0.17635452 5.32851446 0.61835921 8 1 C8.6875 3.3125 8.6875 3.3125 9 6 C7.875 7.8125 7.875 7.8125 6 9 C3.08656107 9.43701584 1.62813794 9.39782069 -0.875 7.8125 C-2 6 -2 6 -1.75 3.375 C-1 1 -1 1 0 0 Z " fill="#F7CBDF" transform="translate(190,163)"/>
<path d="M0 0 C3.17280351 0.43762807 6.05667611 1.77361505 9 3 C8.42655063 5.86724686 8.1385485 6.8614515 6 9 C3 9.25 3 9.25 0 9 C-2 7 -2 7 -2.25 4.5 C-2 2 -2 2 0 0 Z " fill="#FEF8F9" transform="translate(48,264)"/>
<path d="M0 0 C0.125 2.375 0.125 2.375 0 5 C-2 7 -2 7 -4.9375 7.3125 C-8 7 -8 7 -9.9375 5.75 C-11 4 -11 4 -11 1.9375 C-10 0 -10 0 -7.75 -1.375 C-4.43432926 -2.12856153 -2.97513164 -1.5300677 0 0 Z " fill="#FEF8F9" transform="translate(384,195)"/>
<path d="M0 0 C2.31 0.66 4.62 1.32 7 2 C7.625 4.375 7.625 4.375 8 7 C6 9 6 9 2.5 9.25 C-1 9 -1 9 -3 7 C-2.67028521 3.70285207 -2.3773161 2.3773161 0 0 Z " fill="#FEF8FA" transform="translate(348,193)"/>
<path d="M0 0 C-0.33 1.98 -0.66 3.96 -1 6 C-7.44807122 7.33827893 -7.44807122 7.33827893 -9.9375 5.8125 C-11 4 -11 4 -11 0 C-6.53464227 -1.86921951 -4.33629181 -2.2956839 0 0 Z " fill="#FEF8FA" transform="translate(85,266)"/>
<path d="M0 0 C0.1875 2.875 0.1875 2.875 0 6 C-3 8 -3 8 -6.125 7.6875 C-9 7 -9 7 -10 6 C-10.04063832 4.33382885 -10.042721 2.66611905 -10 1 C-6.21812119 -0.83691257 -4.05431692 -1.15837626 0 0 Z " fill="#FBCEE1" transform="translate(227,164)"/>
<path d="M0 0 C3.53571429 0.53571429 3.53571429 0.53571429 5 2 C5.125 5 5.125 5 5 8 C4 9 4 9 1.5 9.125 C-1 9 -1 9 -2 8 C-2.1875 5.0625 -2.1875 5.0625 -2 2 C-1.34 1.34 -0.68 0.68 0 0 Z " fill="#4A3C3F" transform="translate(52,256)"/>
<path d="M0 0 C2.125 0.375 2.125 0.375 4 1 C4 3.64 4 6.28 4 9 C2.125 9.625 2.125 9.625 0 10 C-2 8 -2 8 -2.25 5 C-2 2 -2 2 0 0 Z " fill="#433A3C" transform="translate(375,185)"/>
<path d="M0 0 C3.69230769 0.69230769 3.69230769 0.69230769 5 2 C5.1875 4.9375 5.1875 4.9375 5 8 C4.34 8.66 3.68 9.32 3 10 C0.875 9.625 0.875 9.625 -1 9 C-1.09765625 2.84765625 -1.09765625 2.84765625 -1 1 C-0.67 0.67 -0.34 0.34 0 0 Z " fill="#40393B" transform="translate(351,185)"/>
<path d="M0 0 C1.67542976 0.28604898 3.34385343 0.61781233 5 1 C5 3.64 5 6.28 5 9 C3.33388095 9.042721 1.66617115 9.04063832 0 9 C-1 8 -1 8 -1.125 4.5 C-1 1 -1 1 0 0 Z " fill="#3F383A" transform="translate(75,256)"/>
<path d="M0 0 C1.67542976 0.28604898 3.34385343 0.61781233 5 1 C5 3.31 5 5.62 5 8 C3.34385343 8.38218767 1.67542976 8.71395102 0 9 C-1 8 -1 8 -1.125 4.5 C-1 1 -1 1 0 0 Z " fill="#3B393D" transform="translate(218,155)"/>
<path d="M0 0 C1.67542976 0.28604898 3.34385343 0.61781233 5 1 C5 3.31 5 5.62 5 8 C3.34385343 8.38218767 1.67542976 8.71395102 0 9 C-1 8 -1 8 -1.125 4.5 C-1 1 -1 1 0 0 Z " fill="#363537" transform="translate(194,155)"/>
</svg>
