<?xml version="1.0" encoding="UTF-8"?>
<svg version="1.1" xmlns="http://www.w3.org/2000/svg" width="512" height="512">
<path d="M0 0 C1.53762151 0.00258102 3.0752456 0.00387852 4.61286926 0.00402832 C8.87298563 0.00869487 13.13279076 0.03299334 17.39280701 0.06141663 C21.03497113 0.08391497 24.6771447 0.09690214 28.3193531 0.10993576 C36.52956191 0.13937123 44.7396553 0.17983949 52.94976616 0.22941971 C64.82539835 0.30082456 76.70086227 0.34764123 88.57666016 0.375 C102.64373565 0.40741572 116.71067536 0.45439737 130.77764416 0.51845169 C138.62625113 0.55389603 146.47477989 0.58342692 154.32345581 0.59802246 C161.09790663 0.61081596 167.8721285 0.63788782 174.64644819 0.68233681 C178.15264351 0.7049398 181.6585602 0.72108727 185.16483498 0.72007751 C189.01735434 0.71919618 192.86929304 0.74937394 196.72167969 0.78222656 C198.40095252 0.77467913 198.40095252 0.77467913 200.11415005 0.76697922 C208.7749108 0.88169915 216.52516628 2.35828948 222.83984375 8.66015625 C227.42325522 14.4744722 230.26787074 21.30843092 233.28515625 28.015625 C233.93513218 29.43408258 234.58619192 30.85204399 235.23828125 32.26953125 C236.90527797 35.90367007 238.55460285 39.54549802 240.19689941 43.19085693 C241.1297651 45.2606933 242.06578827 47.32906919 243.00292969 49.39697266 C253.13955868 71.77553316 253.13955868 71.77553316 256.34765625 79.62109375 C256.6621875 80.38035156 256.97671875 81.13960938 257.30078125 81.921875 C258.08217526 83.82563495 258.84118165 85.73854524 259.59765625 87.65234375 C261.55912574 91.01136025 262.47226485 91.2121662 266.16015625 92.328125 C269.22131234 92.83600185 272.29321864 93.13383882 275.3815918 93.42553711 C276.30260178 93.51854599 277.22361176 93.61155487 278.17253113 93.7073822 C280.16868682 93.90809392 282.16518146 94.10545675 284.16196251 94.29984856 C287.32894686 94.60859541 290.49483232 94.92696015 293.66059875 95.24794006 C302.66066536 96.15847097 311.66262669 97.04973306 320.66479492 97.93920898 C326.17624373 98.48444708 331.68666288 99.03929056 337.19660378 99.59955025 C340.303272 99.91232046 343.41091106 100.21371403 346.51872253 100.51487732 C348.44312622 100.70974786 350.36747129 100.90519839 352.29174805 101.10131836 C353.14561096 101.18089783 353.99947388 101.26047729 354.87921143 101.34246826 C362.48178719 102.1395796 370.93471902 103.31918154 376.66015625 108.765625 C377.28921875 109.34183594 377.91828125 109.91804688 378.56640625 110.51171875 C380.19115619 112.36345582 381.1049338 114.11725085 382.16015625 116.328125 C380.84660156 116.37710938 379.53304688 116.42609375 378.1796875 116.4765625 C376.4439903 116.55161968 374.70831422 116.62716623 372.97265625 116.703125 C372.10833984 116.7340625 371.24402344 116.765 370.35351562 116.796875 C362.54121323 117.1388482 362.54121323 117.1388482 356.16015625 121.328125 C354.35433141 126.52892924 354.97573505 132.33769657 354.97265625 137.765625 C354.96041016 138.89806641 354.94816406 140.03050781 354.93554688 141.19726562 C354.93361328 142.29103516 354.93167969 143.38480469 354.9296875 144.51171875 C354.92557861 145.50743896 354.92146973 146.50315918 354.91723633 147.52905273 C355.2735899 151.63517701 356.23626504 154.40423379 359.16015625 157.328125 C362.13900728 158.32227843 365.01999169 158.51116676 368.14453125 158.64453125 C368.98725586 158.68263916 369.82998047 158.72074707 370.69824219 158.76000977 C371.75817383 158.80311279 372.81810547 158.84621582 373.91015625 158.890625 C377.29265625 159.035 380.67515625 159.179375 384.16015625 159.328125 C384.16015625 168.898125 384.16015625 178.468125 384.16015625 188.328125 C374.29917014 189.288044 374.29917014 189.288044 369.16015625 188.328125 C365.79182379 185.15890579 364.10367192 181.48044334 362.16015625 177.328125 C353.20079364 164.52903555 338.51061076 157.67467885 323.56640625 154.83203125 C307.39732068 152.44004497 290.73139573 156.64865786 277.60546875 166.359375 C271.25544689 171.47185266 266.67383177 176.00430438 263.38574219 183.53186035 C261.18331039 187.3454633 260.10632717 189.00246146 255.89929199 190.45048523 C251.63725152 190.89653598 247.51630299 190.95266291 243.23828125 190.88085938 C241.61310187 190.89713396 239.98796678 190.91850828 238.36291504 190.94458008 C233.96106481 190.99917768 229.56259779 190.97813406 225.16069031 190.94003105 C220.54876782 190.90958813 215.93712954 190.93784226 211.32519531 190.95666504 C203.58085245 190.97848033 195.83788402 190.94977385 188.09375 190.89257812 C179.14774062 190.82726754 170.20501266 190.84842318 161.25908279 190.91449499 C153.57028801 190.96900287 145.88247955 190.97661193 138.19355392 190.94523096 C133.60476664 190.92654841 129.01752044 190.92394904 124.42883301 190.96366882 C120.11316365 190.99841788 115.80171076 190.97416964 111.48649597 190.90493774 C109.90597022 190.88911032 108.3250876 190.89356413 106.7447052 190.92008972 C102.0129855 190.99216878 97.68569114 190.89072113 93.16015625 189.328125 C89.81643413 185.68721241 88.07817198 181.83625655 86.16015625 177.328125 C76.99997425 164.42171185 62.23140931 157.65548742 47.12109375 154.7421875 C30.36422067 152.39887807 14.9325448 156.95970187 1.08203125 166.43359375 C-5.65118587 171.63068074 -11.78769651 177.84962479 -14.82421875 185.95605469 C-16.83984375 188.328125 -16.83984375 188.328125 -18.86303711 188.73150635 C-21.43418037 188.82148472 -23.95759966 188.76281473 -26.52734375 188.640625 C-27.42001953 188.61806641 -28.31269531 188.59550781 -29.23242188 188.57226562 C-31.43658647 188.51333074 -33.63737047 188.43113318 -35.83984375 188.328125 C-35.95676874 166.46603437 -36.04487686 144.60399548 -36.09890461 122.74165535 C-36.12466009 112.59003354 -36.15975982 102.43860629 -36.21704102 92.28710938 C-36.26695731 83.43659801 -36.29915406 74.58622759 -36.31028622 65.73557937 C-36.31679106 61.05138755 -36.33202371 56.36759885 -36.36849403 51.68353653 C-36.40258366 47.2692237 -36.41287071 42.85547773 -36.40538216 38.44104576 C-36.40675094 36.82620723 -36.41660615 35.21134856 -36.43587112 33.59662437 C-36.54824974 23.68630234 -36.06255728 15.22310363 -29.1631279 7.43558311 C-21.10110964 -0.48128336 -10.61372503 -0.09536833 0 0 Z M-15.83984375 24.328125 C-16.90551231 27.52513069 -16.97942813 29.84402566 -17.00097656 33.20483398 C-17.01058411 34.41296249 -17.02019165 35.621091 -17.03009033 36.86582947 C-17.03434021 38.17209793 -17.03859009 39.47836639 -17.04296875 40.82421875 C-17.04872245 42.17798362 -17.05448015 43.53174847 -17.0602417 44.88551331 C-17.07074021 47.7225889 -17.07659068 50.55963624 -17.08007812 53.39672852 C-17.08556674 57.02958245 -17.10960692 60.66206232 -17.13805008 64.29479885 C-17.15668386 67.09065337 -17.16188239 69.88641781 -17.163414 72.68232918 C-17.16790748 74.67208823 -17.18654778 76.66179903 -17.2053833 78.651474 C-17.2023822 79.86275467 -17.1993811 81.07403534 -17.19628906 82.32202148 C-17.19993469 83.38774887 -17.20358032 84.45347626 -17.20733643 85.55149841 C-16.78797313 88.72003849 -16.0699484 90.06869622 -13.83984375 92.328125 C-11.10823213 93.23866221 -9.52606175 93.45404537 -6.7180872 93.45675945 C-5.87508251 93.4599839 -5.03207783 93.46320835 -4.16352755 93.4665305 C-3.23727601 93.4649819 -2.31102448 93.4634333 -1.35670471 93.46183777 C-0.37282758 93.46410333 0.61104955 93.46636888 1.62474114 93.46870309 C4.93660678 93.47505633 8.24843165 93.47421288 11.56030273 93.47338867 C13.92860975 93.47637932 16.29691628 93.47978162 18.66522217 93.48356628 C24.4393827 93.49149919 30.21353076 93.49462133 35.98769646 93.49517866 C40.6800983 93.49565357 45.37249677 93.49770702 50.06489754 93.50087929 C63.3632565 93.50968684 76.66160738 93.51429846 89.95996927 93.51354881 C90.67708811 93.51350886 91.39420694 93.5134689 92.13305664 93.51342773 C92.85104905 93.51338685 93.56904147 93.51334597 94.30879123 93.51330385 C105.94889302 93.51289727 117.58896248 93.52246965 129.22905492 93.5365661 C141.17566262 93.55091983 153.12225454 93.55783685 165.06887108 93.55697232 C171.77816607 93.55664003 178.48742717 93.55940153 185.1967144 93.57015038 C191.50445197 93.57980266 197.81211775 93.57993031 204.11985779 93.57263374 C206.43865119 93.57158435 208.757449 93.57397164 211.07623482 93.5799942 C214.23425324 93.58766707 217.39202087 93.58310059 220.55003357 93.57536316 C221.47405438 93.58050672 222.3980752 93.58565029 223.35009664 93.59094971 C224.19570907 93.58635092 225.04132151 93.58175212 225.91255856 93.57701397 C226.64151425 93.57723134 227.37046995 93.57744871 228.12151521 93.57767266 C230.52343039 93.28365704 232.11443549 92.61077286 234.16015625 91.328125 C235.48351042 88.12125185 235.25429184 86.6005333 234.11889648 83.31494141 C233.30207397 81.63924072 233.30207397 81.63924072 232.46875 79.9296875 C232.02388748 78.99999146 232.02388748 78.99999146 231.57003784 78.05151367 C230.59160267 76.01249405 229.59481961 73.98304246 228.59765625 71.953125 C227.20908887 69.08088345 225.82928447 66.20445908 224.44921875 63.328125 C224.09428848 62.5917984 223.73935822 61.8554718 223.37367249 61.09683228 C220.88003165 55.90233748 218.50063782 50.66604926 216.18359375 45.390625 C215.86860428 44.67659515 215.55361481 43.96256531 215.2290802 43.22689819 C214.00769748 40.45575983 212.78730408 37.68452744 211.59054565 34.90264893 C210.76686461 32.98987167 209.92792378 31.08446167 209.0859375 29.1796875 C208.61583252 28.09510254 208.14572754 27.01051758 207.66137695 25.89306641 C205.91869216 22.91556658 205.36326828 22.45203681 202.16015625 21.328125 C199.28296564 21.13568669 196.50333198 21.05406688 193.6264801 21.06742859 C192.75679358 21.06360304 191.88710706 21.05977749 190.9910664 21.05583602 C188.07153844 21.04550208 185.15220701 21.04949893 182.23266602 21.0534668 C180.14169126 21.04912055 178.0507181 21.0439377 175.95974731 21.03797913 C170.27592754 21.02456873 164.59217417 21.02401271 158.90834165 21.02654243 C154.16660046 21.02761072 149.42487279 21.02273243 144.6831345 21.017937 C133.49862564 21.00683484 122.31415037 21.00640846 111.12963867 21.01245117 C99.5836824 21.01849315 88.03784792 21.00617584 76.49191242 20.9848811 C66.58524598 20.96728024 56.67861835 20.96126134 46.77193683 20.96451885 C40.8523499 20.9663342 34.93284986 20.96367032 29.01327705 20.94980431 C23.44746315 20.93725519 17.88183948 20.93914245 12.31602859 20.95221519 C10.27178954 20.95458686 8.22753722 20.95182528 6.18331337 20.94359207 C3.39559174 20.93317287 0.60851417 20.94118642 -2.17918396 20.9539032 C-2.99066326 20.94652891 -3.80214256 20.93915463 -4.63821214 20.93155688 C-9.18902027 20.97531633 -12.27640925 21.39426129 -15.83984375 24.328125 Z M125.16015625 165.328125 C124.16484831 167.22581259 124.16484831 167.22581259 124.16015625 169.328125 C125.93805476 172.75385753 125.93805476 172.75385753 130.03515625 173.140625 C132.56416939 173.3609383 134.130041 173.33661904 136.59765625 172.640625 C138.29147978 171.41018696 138.29147978 171.41018696 139.03515625 169.390625 C139.38753732 167.01484248 139.38753732 167.01484248 137.16015625 164.328125 C130.82069565 162.84118186 130.82069565 162.84118186 125.16015625 165.328125 Z M150.16015625 165.328125 C150.16015625 167.308125 150.16015625 169.288125 150.16015625 171.328125 C152.98874475 172.92442839 155.01652862 173.57859495 158.25878906 173.58209229 C159.06626587 173.58773193 159.87374268 173.59337158 160.70568848 173.59918213 C162.0211969 173.59310944 162.0211969 173.59310944 163.36328125 173.58691406 C164.29378296 173.5904187 165.22428467 173.59392334 166.1829834 173.59753418 C169.25878357 173.60633665 172.33435374 173.60050752 175.41015625 173.59375 C177.54720097 173.59509707 179.68424539 173.59703796 181.82128906 173.59954834 C186.30015989 173.60249759 190.77895094 173.59820829 195.2578125 173.58886719 C201.00138702 173.57747282 206.74477462 173.58403335 212.48834229 173.59601212 C216.90121878 173.60323604 221.31405089 173.60094032 225.72692871 173.59575653 C227.84484886 173.59442151 229.96277302 173.59606259 232.08068848 173.60071564 C235.03957812 173.60578953 237.99816423 173.59805833 240.95703125 173.58691406 C241.83403687 173.59096252 242.71104248 173.59501099 243.61462402 173.59918213 C244.42210083 173.59354248 245.22957764 173.58790283 246.06152344 173.58209229 C246.760578 173.58133823 247.45963257 173.58058418 248.17987061 173.57980728 C250.54101445 173.27972024 252.13795209 172.57080143 254.16015625 171.328125 C255.15546419 169.43043741 255.15546419 169.43043741 255.16015625 167.328125 C253.43789129 164.07962523 253.43789129 164.07962523 250.16015625 163.328125 C247.12276163 163.22603857 244.1082165 163.18129805 241.07055664 163.18286133 C240.14020096 163.17950272 239.20984528 163.1761441 238.251297 163.17268372 C235.17012199 163.1631702 232.08900129 163.16123046 229.0078125 163.16015625 C226.86933876 163.15694416 224.73086524 163.15358012 222.59239197 163.15007019 C218.10756928 163.14407807 213.62276586 163.1422304 209.13793945 163.14282227 C203.38650291 163.14292394 197.63518968 163.12926656 191.88378239 163.11205006 C187.46662323 163.10094135 183.04949401 163.0989027 178.63232231 163.09943199 C176.51160698 163.09825037 174.3908909 163.09381843 172.27018929 163.08609962 C169.30642129 163.07632177 166.34292255 163.07916901 163.37915039 163.08520508 C162.0612854 163.07677582 162.0612854 163.07677582 160.71679688 163.06817627 C159.50341393 163.074468 159.50341393 163.074468 158.26551819 163.08088684 C157.5651648 163.08034207 156.86481142 163.07979731 156.14323521 163.07923603 C153.81859667 163.37099289 152.18815783 164.18286454 150.16015625 165.328125 Z " fill="#000000" transform="translate(95.83984375,137.671875)"/>
<path d="M0 0 C11.55233761 12.46655138 15.21670239 26.38292311 14.6328125 42.99609375 C13.80709074 56.16349953 6.91773265 68.84161034 -2.75 77.75 C-16.34304705 87.97615386 -30.00567248 91.07897236 -46.75 89.75 C-59.44933105 87.41556415 -71.82285777 80.62861442 -79.66015625 70.2109375 C-89.25872042 55.74176434 -92.00439675 41.03192785 -89.1015625 23.9296875 C-85.24752104 10.25936952 -76.92698918 -0.67081906 -64.875 -8.0625 C-43.53413921 -19.84695017 -17.95082381 -16.67147779 0 0 Z M-59.75 19.75 C-64.5117851 27.56674853 -66.8991199 34.74163138 -65.39453125 43.91796875 C-63.35985342 51.63335783 -58.07222178 57.51046493 -51.76953125 62.234375 C-45.07611393 66.04341248 -37.10599085 66.58695943 -29.6875 64.875 C-22.19730873 62.25880879 -15.83099962 56.46143067 -12.1875 49.4375 C-8.80582236 40.76276172 -9.06914654 33.99632248 -12.49609375 25.36328125 C-16.02136712 18.01621619 -21.36846077 13.99787726 -28.75 10.75 C-39.85020581 7.31942458 -52.27894238 10.77712672 -59.75 19.75 Z " fill="#000000" transform="translate(447.75,315.25)"/>
<path d="M0 0 C11.55233761 12.46655138 15.21670239 26.38292311 14.6328125 42.99609375 C13.80709074 56.16349953 6.91773265 68.84161034 -2.75 77.75 C-16.34304705 87.97615386 -30.00567248 91.07897236 -46.75 89.75 C-59.44933105 87.41556415 -71.82285777 80.62861442 -79.66015625 70.2109375 C-89.25872042 55.74176434 -92.00439675 41.03192785 -89.1015625 23.9296875 C-85.24752104 10.25936952 -76.92698918 -0.67081906 -64.875 -8.0625 C-43.53413921 -19.84695017 -17.95082381 -16.67147779 0 0 Z M-59.75 19.75 C-64.5117851 27.56674853 -66.8991199 34.74163138 -65.39453125 43.91796875 C-63.35985342 51.63335783 -58.07222178 57.51046493 -51.76953125 62.234375 C-45.07611393 66.04341248 -37.10599085 66.58695943 -29.6875 64.875 C-22.19730873 62.25880879 -15.83099962 56.46143067 -12.1875 49.4375 C-8.80582236 40.76276172 -9.06914654 33.99632248 -12.49609375 25.36328125 C-16.02136712 18.01621619 -21.36846077 13.99787726 -28.75 10.75 C-39.85020581 7.31942458 -52.27894238 10.77712672 -59.75 19.75 Z " fill="#000000" transform="translate(171.75,315.25)"/>
<path d="M0 0 C52.14 0 104.28 0 158 0 C157.67 2.31 157.34 4.62 157 7 C157 15.58 157 24.16 157 33 C105.52 33 54.04 33 1 33 C1 24.42 1 15.84 1 7 C0.67 4.69 0.34 2.38 0 0 Z " fill="#000000" transform="translate(193,336)"/>
<path d="M0 0 C24.09 0 48.18 0 73 0 C73 17.16 73 34.32 73 52 C48.91 52 24.82 52 0 52 C0 34.84 0 17.68 0 0 Z " fill="#000000" transform="translate(159,169)"/>
<path d="M0 0 C17.82 0 35.64 0 54 0 C57.0525 6.579375 60.105 13.15875 63.25 19.9375 C64.68327637 23.02532837 64.68327637 23.02532837 66.14550781 26.17553711 C66.91477002 27.83444647 67.68397919 29.49338042 68.453125 31.15234375 C68.84290527 31.99156372 69.23268555 32.83078369 69.63427734 33.69543457 C70.76156018 36.12786199 71.88255487 38.56303913 73 41 C73.5802594 42.25914719 73.5802594 42.25914719 74.17224121 43.54373169 C74.72265076 44.75487137 74.72265076 44.75487137 75.28417969 45.99047852 C75.61440125 46.71372818 75.9446228 47.43697784 76.28485107 48.18214417 C77 50 77 50 77 52 C51.59 52 26.18 52 0 52 C0 34.84 0 17.68 0 0 Z " fill="#000000" transform="translate(242,169)"/>
<path d="M0 0 C19.8 0 39.6 0 60 0 C60 17.16 60 34.32 60 52 C40.2 52 20.4 52 0 52 C0 34.84 0 17.68 0 0 Z " fill="#000000" transform="translate(89,169)"/>
<path d="M0 0 C0 33 0 66 0 100 C-19 100 -19 100 -25 96 C-28.3216704 91.95319819 -28.43005429 88.12034033 -28.38818359 83.07617188 C-28.39344055 82.29343399 -28.39869751 81.51069611 -28.40411377 80.70423889 C-28.41728128 78.12553759 -28.40858741 75.54745722 -28.3984375 72.96875 C-28.40045917 71.17183311 -28.40337139 69.37491702 -28.40713501 67.57800293 C-28.41155395 63.81543146 -28.40514116 60.05307391 -28.39111328 56.29052734 C-28.37402162 51.47179892 -28.38386511 46.6535718 -28.40183067 41.83486176 C-28.41268013 38.12534825 -28.40921684 34.41595326 -28.4014473 30.70643616 C-28.3994485 28.92985474 -28.4018933 27.1532625 -28.40888596 25.37669373 C-28.4165196 22.89211597 -28.4048699 20.40834586 -28.38818359 17.92382812 C-28.39729263 16.8264608 -28.39729263 16.8264608 -28.40658569 15.70692444 C-28.35128455 11.25383294 -27.78974424 8.49296495 -25 5 C-19 0 -19 0 0 0 Z " fill="#000000" transform="translate(50,199)"/>
<path d="M0 0 C22.77 0 45.54 0 69 0 C69 7.59 69 15.18 69 23 C45.97137541 23.10139805 23.00885111 23.07464192 0 22 C0 14.74 0 7.48 0 0 Z " fill="#000000" transform="translate(158,107)"/>
<path d="M0 0 C16.5 0 33 0 50 0 C50 7.59 50 15.18 50 23 C33.5 23 17 23 0 23 C0 15.41 0 7.82 0 0 Z " fill="#000000" transform="translate(237,107)"/>
<path d="M0 0 C4.76890149 4.44001173 7.69220307 8.73735252 8.3125 15.3125 C7.78533849 21.53300583 6.39327522 26.09607607 1.6875 30.375 C-3.93704977 34.67543701 -8.67038882 35.43407892 -15.6015625 34.5390625 C-21.2771876 33.26343341 -24.81100474 29.6696002 -28 25 C-30.25336567 20.83127351 -30.69564046 16.65477936 -30 12 C-28.18805613 6.69149419 -25.38217557 2.54747546 -21 -1 C-13.78684825 -4.36613748 -6.81091536 -3.90996993 0 0 Z " fill="#000000" transform="translate(421,337)"/>
<path d="M0 0 C4.76890149 4.44001173 7.69220307 8.73735252 8.3125 15.3125 C7.78533849 21.53300583 6.39327522 26.09607607 1.6875 30.375 C-3.93704977 34.67543701 -8.67038882 35.43407892 -15.6015625 34.5390625 C-21.2771876 33.26343341 -24.81100474 29.6696002 -28 25 C-30.25336567 20.83127351 -30.69564046 16.65477936 -30 12 C-28.18805613 6.69149419 -25.38217557 2.54747546 -21 -1 C-13.78684825 -4.36613748 -6.81091536 -3.90996993 0 0 Z " fill="#000000" transform="translate(145,337)"/>
<path d="M0 0 C16.5 0 33 0 50 0 C50 7.26 50 14.52 50 22 C33.5 22 17 22 0 22 C0 14.74 0 7.48 0 0 Z " fill="#000000" transform="translate(98,107)"/>
<path d="M0 0 C8.25 0 16.5 0 25 0 C24.67 1.98 24.34 3.96 24 6 C23.92266151 8.08996873 23.89199042 10.18206395 23.90234375 12.2734375 C23.90717773 14.00400391 23.90717773 14.00400391 23.91210938 15.76953125 C23.92048828 16.95933594 23.92886719 18.14914062 23.9375 19.375 C23.94201172 20.58800781 23.94652344 21.80101562 23.95117188 23.05078125 C23.96291634 26.03387545 23.98085057 29.01694414 24 32 C16.08 32 8.16 32 0 32 C0 21.44 0 10.88 0 0 Z " fill="#000000" transform="translate(50,336)"/>
<path d="M0 0 C6.93 0 13.86 0 21 0 C21 10.56 21 21.12 21 32 C14.4 32 7.8 32 1 32 C1.01160156 30.19273437 1.02320313 28.38546875 1.03515625 26.5234375 C1.0445374 24.14062603 1.05363725 21.75781345 1.0625 19.375 C1.07087891 18.18519531 1.07925781 16.99539063 1.08789062 15.76953125 C1.09111328 14.61582031 1.09433594 13.46210938 1.09765625 12.2734375 C1.10289307 11.21560059 1.10812988 10.15776367 1.11352539 9.06787109 C1.04662729 5.49159975 1.04662729 5.49159975 0 0 Z " fill="#000000" transform="translate(469,336)"/>
<path d="M0 0 C6.93 0 13.86 0 21 0 C20.67 7.59 20.34 15.18 20 23 C13.4 23 6.8 23 0 23 C0 15.41 0 7.82 0 0 Z " fill="#000000" transform="translate(460,264)"/>
</svg>
