<?xml version="1.0" encoding="UTF-8"?>
<svg version="1.1" xmlns="http://www.w3.org/2000/svg" width="512" height="512">
<path d="M0 0 C2.95737956 2.21471686 3.90357334 3.39567222 4.49219131 7.08467484 C4.48666056 8.9153557 4.48666056 8.9153557 4.48101807 10.78302002 C4.48443577 11.46430741 4.48785347 12.1455948 4.49137473 12.84752727 C4.49796156 15.12957435 4.47596622 17.41044419 4.45410156 19.69238281 C4.45297325 21.32841972 4.45360663 22.96445866 4.45587158 24.60049438 C4.45702029 29.04244177 4.43348568 33.483958 4.40557575 37.92580509 C4.38058823 42.56760033 4.37822219 47.20940521 4.37347412 51.85125732 C4.36103654 60.64146263 4.32820436 69.43146919 4.28807616 78.22158694 C4.24338278 88.22871638 4.22137754 98.23585526 4.20129442 108.24305964 C4.15947242 128.8288174 4.08910516 149.41439618 4 170 C4.7628833 169.98187256 5.5257666 169.96374512 6.31176758 169.94506836 C7.30845459 169.93096924 8.3051416 169.91687012 9.33203125 169.90234375 C10.8166687 169.87515259 10.8166687 169.87515259 12.33129883 169.84741211 C15 170 15 170 17.6875 171.5625 C19.52035388 174.96637149 19.54407614 177.19146701 19 181 C16.85932336 183.8445301 15.71157925 184.88625495 12.15917969 185.45410156 C11.09086914 185.4331543 10.02255859 185.41220703 8.921875 185.390625 C7.76171875 185.37773437 6.6015625 185.36484375 5.40625 185.3515625 C4.1996875 185.31804687 2.993125 185.28453125 1.75 185.25 C0.52796875 185.23195312 -0.6940625 185.21390625 -1.953125 185.1953125 C-4.96908455 185.14818813 -7.98464119 185.07644572 -11 185 C-11 189.95 -11 194.9 -11 200 C3.85 200 18.7 200 34 200 C34 195.05 34 190.1 34 185 C37.15856107 176.31395706 41.73137259 171.0140749 49.73168945 166.43725586 C55.66815872 163.95860473 62.22871807 164.52739798 68.55078125 164.53125 C69.97413935 164.52413636 71.39749463 164.51643563 72.82084656 164.50817871 C75.7972308 164.49477369 78.77334999 164.49314644 81.74975586 164.49902344 C85.53919158 164.50490828 89.32734109 164.47436207 93.11652851 164.43390656 C96.055076 164.40788448 98.99331999 164.40516525 101.93196678 164.40879822 C103.32765108 164.40711968 104.72335136 164.39760082 106.11892128 164.37965393 C115.84728097 164.26832457 123.76909517 165.15937972 131.13447571 171.97521973 C138.24052771 179.46260494 139.52285317 186.97991652 140 197 C140.99966797 195.83984375 140.99966797 195.83984375 142.01953125 194.65625 C156.108371 178.6005038 175.12300296 166.43215829 196.88330078 164.78125 C223.08831847 163.46915398 244.27060502 169.85797941 264.35546875 187.01171875 C279.09244864 200.7341045 288.39284112 221.00166298 289.38671875 241.0234375 C290.09208763 266.56245454 282.98372239 288.23124021 265.3125 307.125 C248.05480149 323.57374389 226.75509977 330.69610955 203.22192383 330.46826172 C180.56165613 329.81154203 160.4587961 320.06368074 144.65625 303.859375 C142.99690159 301.9965216 141.49683586 299.99578114 140 298 C139.505 392.545 139.505 392.545 139 489 C141.97 489.66 144.94 490.32 148 491 C150.98082681 491.86417107 153.88970845 492.8949589 156.8125 493.9375 C157.54919922 494.18951172 158.28589844 494.44152344 159.04492188 494.70117188 C166.33908344 497.27751982 166.33908344 497.27751982 169 500 C169.55723448 504.38822151 169.77235685 506.71273859 167.5 510.5 C163.9465704 512.63205776 160.99618625 512.53083668 157 512 C152.66895181 510.84812548 148.44748859 509.44250344 144.22607422 507.94726562 C142.24635265 507.24871302 140.25901168 506.57643203 138.26953125 505.90625 C136.99686129 505.4650807 135.72470599 505.0224233 134.453125 504.578125 C133.31004883 504.18012695 132.16697266 503.78212891 130.98925781 503.37207031 C127.67843457 501.85240136 126.17386932 500.9230372 124 498 C123.42103105 495.00318464 123.49472062 492.05230994 123.54589844 489.00878906 C123.54531433 488.10112289 123.54473022 487.19345673 123.54412842 486.25828552 C123.54691351 483.26034199 123.5780258 480.26339468 123.609375 477.265625 C123.61683587 475.18626448 123.62252953 473.10689692 123.62652588 471.02752686 C123.64179425 465.55617846 123.68108674 460.0852552 123.7253418 454.61407471 C123.76626837 449.03053539 123.78453133 443.44692734 123.8046875 437.86328125 C123.84757957 426.90866744 123.91584571 415.95436908 124 405 C123.19393311 404.87665283 122.38786621 404.75330566 121.55737305 404.6262207 C120.49043213 404.45695068 119.42349121 404.28768066 118.32421875 404.11328125 C117.27065186 403.94868408 116.21708496 403.78408691 115.1315918 403.61450195 C106.21702694 401.86522623 97.12549235 397.4837491 90.1875 391.625 C88.19888851 389.75905813 88.19888851 389.75905813 86.12890625 390.22265625 C83.68533995 391.11489422 81.86994276 392.30642556 79.75 393.8125 C70.84924669 399.84715313 59.99859909 405 49 405 C49.00888245 406.15622864 49.01776489 407.31245728 49.0269165 408.50372314 C49.10795223 419.39236951 49.16794138 430.28095481 49.20724869 441.16983414 C49.22813628 446.76813561 49.25647564 452.36619394 49.30175781 457.96435547 C49.34517327 463.36544947 49.36912828 468.76630938 49.37950897 474.16756439 C49.38690804 476.22970007 49.40135647 478.29182274 49.42292023 480.35385895 C49.45189678 483.23911876 49.45595838 486.12340749 49.45410156 489.00878906 C49.46848267 489.86402664 49.48286377 490.71926422 49.49768066 491.60041809 C49.45731377 497.38541586 49.45731377 497.38541586 47.15745544 500.47619629 C44.41288961 502.41467415 41.75461187 503.46730579 38.58203125 504.578125 C37.9653508 504.79442566 37.34867035 505.01072632 36.71330261 505.23358154 C35.41171118 505.68628935 34.10804409 506.13306828 32.80249023 506.57421875 C30.82934516 507.24427955 28.86710332 507.94094252 26.90429688 508.640625 C20.12804403 511.00021736 14.21175103 512.76073323 7 512 C4.56051243 510.22582722 4.19570091 508.99481295 3.625 506.09375 C3.26872363 502.11533052 3.26872363 502.11533052 4 500 C8.88400585 495.84134156 14.65257878 494.18283387 20.6875 492.25 C21.63689453 491.93417969 22.58628906 491.61835938 23.56445312 491.29296875 C30.57736404 489 30.57736404 489 34 489 C34 398.58 34 308.16 34 215 C19.15 215 4.3 215 -11 215 C-10.8420358 223.37698876 -10.8420358 223.37698876 -10.63964844 231.75292969 C-10.6296582 232.79868164 -10.61966797 233.84443359 -10.609375 234.921875 C-10.58842773 235.99018555 -10.56748047 237.05849609 -10.54589844 238.15917969 C-11 241 -11 241 -12.47070312 243.34667969 C-16.20286931 245.78627712 -19.48709654 245.57394368 -23.859375 245.53125 C-24.72258362 245.5350769 -25.58579224 245.53890381 -26.47515869 245.54284668 C-28.3008338 245.54556597 -30.12654786 245.53820351 -31.95214844 245.52148438 C-34.72681254 245.50017805 -37.4988566 245.5212301 -40.2734375 245.546875 C-42.05208899 245.54422969 -43.83073887 245.53910051 -45.609375 245.53125 C-46.43048767 245.53934692 -47.25160034 245.54744385 -48.09759521 245.55578613 C-54.73140477 245.44954743 -59.96329619 243.62047607 -65.0234375 239.25390625 C-65.46945313 238.69574219 -65.91546875 238.13757813 -66.375 237.5625 C-66.83648437 237.00691406 -67.29796875 236.45132813 -67.7734375 235.87890625 C-71.83663254 229.65471257 -71.68933898 223.20751893 -71 216 C-69.32574858 209.8042672 -65.31106474 205.4670984 -60 202 C-55.93614766 200.02514532 -52.66437683 199.76507157 -48.16796875 199.8046875 C-46.22954102 199.81435547 -46.22954102 199.81435547 -44.25195312 199.82421875 C-42.8971327 199.84092673 -41.54231499 199.85785658 -40.1875 199.875 C-38.81315749 199.88503997 -37.43880797 199.89416404 -36.06445312 199.90234375 C-32.7095601 199.92588686 -29.35475766 199.96175704 -26 200 C-26 195.05 -26 190.1 -26 185 C-27.83046875 185.04640625 -29.6609375 185.0928125 -31.546875 185.140625 C-33.94790037 185.17814102 -36.34894336 185.21454136 -38.75 185.25 C-39.9565625 185.28351563 -41.163125 185.31703125 -42.40625 185.3515625 C-43.56640625 185.36445313 -44.7265625 185.37734375 -45.921875 185.390625 C-46.99018555 185.41157227 -48.05849609 185.43251953 -49.15917969 185.45410156 C-52.71157925 184.88625495 -53.85932336 183.8445301 -56 181 C-56.54407614 177.19146701 -56.52035388 174.96637149 -54.6875 171.5625 C-51.53832531 169.73158449 -49.92912969 169.83646283 -46.33203125 169.90234375 C-44.83700073 169.92349243 -44.83700073 169.92349243 -43.31176758 169.94506836 C-42.16744263 169.97225952 -42.16744263 169.97225952 -41 170 C-41.00276538 169.28069809 -41.00553076 168.56139618 -41.00837994 167.82029724 C-41.07469425 150.30093547 -41.12430707 132.78160566 -41.15543652 115.262146 C-41.17089143 106.7897897 -41.1919546 98.31751729 -41.22631836 89.84521484 C-41.25626289 82.45892752 -41.275585 75.07270097 -41.28226548 67.68635464 C-41.2861692 63.77698173 -41.29531464 59.86778266 -41.31719017 55.95846558 C-41.33763531 52.27473432 -41.3438177 48.59124759 -41.33932304 44.90746498 C-41.34053482 42.91941322 -41.35663479 40.93138776 -41.3732605 38.94340515 C-41.33216344 27.01095583 -37.90086378 17.95264599 -29.625 9.25 C-21.55868075 1.58525075 -11.09305376 -1.84623462 0 0 Z M-18 21 C-26.75107417 29.89375473 -26.14866292 39.0947311 -26.11352539 50.91186523 C-26.11367142 52.20035873 -26.11381744 53.48885223 -26.1139679 54.81639099 C-26.11425367 58.33240738 -26.10839249 61.84838934 -26.10139394 65.36439776 C-26.09512379 69.04526261 -26.09455371 72.72612832 -26.09336853 76.40699768 C-26.09026599 83.36955131 -26.08206715 90.33208914 -26.07201904 97.29463583 C-26.06082441 105.22451209 -26.05533902 113.15438912 -26.05032361 121.08427131 C-26.03988361 137.3895237 -26.02210258 153.69475921 -26 170 C-21.05 170 -16.1 170 -11 170 C-11 119.51 -11 69.02 -11 17 C-13.51012711 17 -16.06904033 19.48679603 -18 21 Z M53.25 184.25 C48.36098998 190.22545669 48.72815927 196.50661754 48.8046875 203.8671875 C48.80670166 204.78508057 48.80871582 205.70297363 48.81079102 206.64868164 C48.82120695 210.05750571 48.84912937 213.46625819 48.875 216.875 C48.91625 224.50625 48.9575 232.1375 49 240 C73.75 240 98.5 240 124 240 C124.04125 232.389375 124.0825 224.77875 124.125 216.9375 C124.14320801 214.54749756 124.16141602 212.15749512 124.18017578 209.69506836 C124.18602109 207.78499577 124.19111656 205.87492068 124.1953125 203.96484375 C124.20554443 202.98584106 124.21577637 202.00683838 124.22631836 200.99816895 C124.29455869 192.1374032 124.29455869 192.1374032 120.66796875 184.2578125 C115.83830317 180.56229002 111.98042307 179.8816995 106.02954102 179.85473633 C105.06826797 179.84835648 104.10699493 179.84197662 103.11659241 179.83540344 C102.08940598 179.83429062 101.06221954 179.8331778 100.00390625 179.83203125 C98.40445412 179.82703865 98.40445412 179.82703865 96.77268982 179.82194519 C94.52090892 179.81688982 92.26912055 179.81453644 90.01733398 179.81469727 C86.57848752 179.81251017 83.13996165 179.7943378 79.70117188 179.77539062 C77.51041776 179.77245652 75.31966213 179.77047184 73.12890625 179.76953125 C72.10374405 179.76234573 71.07858185 179.75516022 70.02235413 179.74775696 C63.52867295 179.76847256 58.4619264 179.98569658 53.25 184.25 Z M153.9453125 205.40625 C141.69781261 221.73624985 137.46339359 240.00668914 140.31347656 260.22363281 C143.4206255 277.03084511 153.40025684 291.80019263 167 302 C183.3776484 313.06707429 201.73200374 316.92020049 221.2890625 313.3046875 C239.28121047 308.94406508 254.37316566 297.81232263 264.20068359 282.14086914 C273.81859837 265.95511354 275.79121104 247.09650943 271.375 228.875 C265.59656856 210.34765164 252.81187535 195.7540631 235.71484375 186.765625 C207.53780616 172.88705276 173.82518667 181.90453641 153.9453125 205.40625 Z M-55 219 C-55.50814856 223.68209994 -55.50814856 223.68209994 -53.75 227.875 C-50.29786479 230.09422978 -46.81579801 230.12102208 -42.796875 230.09765625 C-41.8171875 230.09443359 -40.8375 230.09121094 -39.828125 230.08789062 C-38.81234375 230.07951172 -37.7965625 230.07113281 -36.75 230.0625 C-35.71875 230.05798828 -34.6875 230.05347656 -33.625 230.04882812 C-31.08330846 230.03706103 -28.54164682 230.0191261 -26 230 C-26 225.05 -26 220.1 -26 215 C-29.56270373 214.94597416 -33.12458523 214.9063125 -36.6875 214.875 C-37.69490234 214.85824219 -38.70230469 214.84148437 -39.74023438 214.82421875 C-40.71669922 214.81777344 -41.69316406 214.81132812 -42.69921875 214.8046875 C-43.59471436 214.79421387 -44.49020996 214.78374023 -45.4128418 214.77294922 C-49.41436012 215.12412522 -52.15527611 216.15527611 -55 219 Z M49 255 C49 264.9 49 274.8 49 285 C73.75 285 98.5 285 124 285 C124 275.1 124 265.2 124 255 C99.25 255 74.5 255 49 255 Z M49 300 C49 319.14 49 338.28 49 358 C54.48647152 355.41485816 54.48647152 355.41485816 58.25 351.5625 C58.96929687 350.69818359 58.96929687 350.69818359 59.703125 349.81640625 C64.35836679 343.29626338 64.14925718 335.95287765 64.09765625 328.22265625 C64.0962413 327.41130722 64.09482635 326.59995819 64.09336853 325.76402283 C64.08781357 323.19680953 64.07526967 320.62968652 64.0625 318.0625 C64.05747917 316.31185023 64.05291729 314.56119907 64.04882812 312.81054688 C64.03785893 308.5403303 64.02062582 304.27018041 64 300 C59.05 300 54.1 300 49 300 Z M79 300 C78.94987764 305.01300667 78.91394561 310.02586167 78.89013672 315.0390625 C78.88019214 316.73798164 78.86663169 318.43688419 78.84912109 320.13574219 C78.6468508 340.29138194 80.07473988 358.12031741 94 374 C102.55945021 382.33195652 112.32657211 386.89495563 124 389 C124 384.38 124 379.76 124 375 C122.94941406 374.53851563 121.89882813 374.07703125 120.81640625 373.6015625 C110.01419547 368.66491615 101.4319315 363.58355097 96.92578125 352.00976562 C94.85839022 346.19908065 94.39855454 340.99076461 94.390625 334.86328125 C94.37408875 333.85782761 94.35755249 332.85237396 94.34051514 331.81645203 C94.29246463 328.64840325 94.27076012 325.48083285 94.25 322.3125 C94.22180438 320.14646086 94.19187201 317.98044359 94.16015625 315.81445312 C94.0867175 310.54300822 94.03688145 305.27182225 94 300 C89.05 300 84.1 300 79 300 Z M109 300 C108.95020689 305.10455945 108.91409591 310.2089745 108.89013672 315.3137207 C108.88013839 317.04681871 108.86653527 318.7799001 108.84912109 320.51293945 C108.82459916 323.01778284 108.81345504 325.52240136 108.8046875 328.02734375 C108.79436493 328.79022202 108.78404236 329.55310028 108.77340698 330.33909607 C108.7717668 338.37471313 109.78651429 345.62796191 115 352 C117.77881043 354.69128884 120.27308738 356.75769579 124 358 C124 338.86 124 319.72 124 300 C119.05 300 114.1 300 109 300 Z M65.1875 366.6875 C60.40737866 370.89760687 54.90222002 372.74521932 49 375 C49 379.62 49 384.24 49 389 C59.31965132 386.81466207 68.63138914 383.89737692 76 376 C75.66226563 375.46890625 75.32453125 374.9378125 74.9765625 374.390625 C74.53054687 373.68421875 74.08453125 372.9778125 73.625 372.25 C73.18414062 371.55390625 72.74328125 370.8578125 72.2890625 370.140625 C71.08119094 368.13482617 70.01612263 366.10821704 69 364 C67.47214985 363.88485704 67.47214985 363.88485704 65.1875 366.6875 Z " fill="#000000" transform="translate(147,0)"/>
<path d="M0 0 C12.34903128 8.19543554 20.84356658 19.87798251 24.0625 34.5 C25.56170965 53.06124942 22.18520583 65.92231196 11.2265625 81.03125 C3.79204673 89.51250264 -8.7201167 96.75550324 -20.12890625 97.67700195 C-38.84999681 98.16083574 -52.44286229 95.20574255 -66.9375 82.5 C-79.10491727 67.35741324 -82.26185387 53.56625649 -80.9375 34.5 C-78.95296083 23.28615816 -71.95360305 11.33407739 -63.0546875 4.18359375 C-43.61242806 -9.2854414 -20.9637831 -12.91146906 0 0 Z M-42.9375 10.5 C-32.26195639 24.34935387 -15.40405002 32.91124894 1.66015625 35.96484375 C3.45493736 36.19591786 5.25844519 36.3585055 7.0625 36.5 C6.64201269 28.30049743 0.78183178 21.55136451 -4.94140625 16.0703125 C-12.29004394 10.28919244 -19.65201931 8.32090411 -28.8125 8.3125 C-29.50730469 8.30025391 -30.20210937 8.28800781 -30.91796875 8.27539062 C-35.31442393 8.26297126 -38.85459235 8.88091593 -42.9375 10.5 Z M-56.9375 21.5 C-57.90780635 22.84561352 -58.86312775 24.20203594 -59.8125 25.5625 C-60.34617188 26.31660156 -60.87984375 27.07070312 -61.4296875 27.84765625 C-66.0928586 36.05048831 -66.00271785 46.00217112 -64.5078125 55.12109375 C-61.4794878 65.60807004 -54.30742035 73.27027701 -44.9375 78.5 C-36.00911828 83.1209739 -24.58444412 82.98754797 -15.125 80.0625 C-6.18443484 76.28404687 2.03494278 68.38737718 6.0625 59.5 C6.46402109 57.17742893 6.80999661 54.84345847 7.0625 52.5 C6.18851563 52.32778931 6.18851563 52.32778931 5.296875 52.15209961 C-16.62601107 47.74210081 -34.32186335 41.12895906 -50.78125 25.3828125 C-52.77584313 23.64115691 -54.52043979 22.54373055 -56.9375 21.5 Z " fill="#000000" transform="translate(261.9375,52.5)"/>
<path d="M0 0 C5.62190491 3.35174881 9.56334243 8.22193737 11.5625 14.4375 C12.39974732 22.04087387 12.40834412 29.2172498 7.5625 35.4375 C3.20249624 40.05579782 -1.03859132 43.06322837 -7.48828125 43.7734375 C-15.46766343 43.86899896 -21.24529376 43.3952428 -27.18359375 37.7890625 C-32.88719465 31.5246759 -33.9069597 26.04801721 -33.74609375 17.6640625 C-33.05565497 10.4450444 -29.77887352 6.20133229 -24.31640625 1.6640625 C-17.37256019 -2.86892641 -7.57669887 -3.40805181 0 0 Z M-16.375 15.5 C-18.0515629 18.55726176 -17.80278977 21.0281288 -17.4375 24.4375 C-16.52083333 26.52083333 -16.52083333 26.52083333 -14.4375 27.4375 C-11.0281288 27.80278977 -8.55726176 28.0515629 -5.5 26.375 C-3.8234371 23.31773824 -4.07221023 20.8468712 -4.4375 17.4375 C-5.35416667 15.35416667 -5.35416667 15.35416667 -7.4375 14.4375 C-10.8468712 14.07221023 -13.31773824 13.8234371 -16.375 15.5 Z " fill="#000000" transform="translate(364.4375,226.5625)"/>
<path d="M0 0 C2.75806231 2.39032067 2.98155872 3.85246979 3.4375 7.5 C3 11 3 11 1.4375 13.4375 C-1.91852406 15.58879747 -4.08421671 15.48947291 -8 15 C-10.375 13.875 -10.375 13.875 -12 12 C-13.16379881 8.43101699 -13.30920437 6.71605223 -11.8125 3.25 C-8.26709561 -1.15119166 -5.41989604 -1.61443712 0 0 Z " fill="#000000" transform="translate(390,272)"/>
<path d="M0 0 C2.59191186 1.69814915 2.96408796 2.8820033 3.875 5.875 C4.02405268 9.60131711 3.25133987 11.08159647 1 14 C-2.09173752 15.54586876 -4.59429552 15.29359521 -8 15 C-10.4375 13.4375 -10.4375 13.4375 -12 11 C-12.46918683 7.24650538 -12.53136381 4.96151547 -10.6875 1.625 C-7.29444212 -1.64238907 -4.28933391 -1.07233348 0 0 Z " fill="#000000" transform="translate(326,272)"/>
<path d="M0 0 C2.4375 1.5625 2.4375 1.5625 4 4 C4.45746657 7.65973254 4.46134558 10.02604821 2.875 13.375 C0.25065402 15.64943318 -1.54847562 15.93096951 -5 16 C-7.86332091 14.76356597 -9.49288133 13.66847461 -11.375 11.1875 C-12.25861973 8.09483095 -11.91373769 6.06754797 -11 3 C-7.85840526 -0.62491701 -4.58722309 -0.57340289 0 0 Z " fill="#000000" transform="translate(389,208)"/>
<path d="M0 0 C2.375 1.125 2.375 1.125 4 3 C5.16379881 6.56898301 5.30920437 8.28394777 3.8125 11.75 C1.88971429 14.1369064 0.93359496 15.16183001 -2 16 C-5.38978773 15.86164132 -7.28778346 15.61725434 -9.875 13.375 C-11.46134558 10.02604821 -11.45746657 7.65973254 -11 4 C-8.09912777 -0.52536068 -5.13093735 -0.64136717 0 0 Z " fill="#000000" transform="translate(325,208)"/>
</svg>
