<?xml version="1.0" encoding="UTF-8"?>
<svg version="1.1" xmlns="http://www.w3.org/2000/svg" width="512" height="512">
<path d="M0 0 C1.25423767 0.00031723 1.25423767 0.00031723 2.53381348 0.00064087 C16.24166126 0.0351608 29.27716632 1.06484446 42.625 4.375 C43.43259766 4.56755371 44.24019531 4.76010742 45.07226562 4.95849609 C91.06093167 16.10190364 132.41620931 46.12286336 157.26953125 86.3984375 C175.26782339 116.39815384 185.12703028 148.90968119 184.9375 184 C184.93501251 184.74167419 184.93252502 185.48334839 184.92996216 186.24749756 C184.69698608 231.36739937 167.84924175 277.30911785 136.046875 309.99707031 C133.82459312 312.16637253 131.57015989 314.28623596 129.2578125 316.359375 C128.44957031 317.35710937 128.44957031 317.35710937 127.625 318.375 C127.77328528 320.35721212 127.77328528 320.35721212 128.625 322.375 C129.66924834 332.54896238 127.19332856 339.02250717 121.625 347.375 C121.96273438 347.88289063 122.30046875 348.39078125 122.6484375 348.9140625 C123.09445312 349.60242188 123.54046875 350.29078125 124 351 C124.44085938 351.67289062 124.88171875 352.34578125 125.3359375 353.0390625 C129.60664366 360.77809973 129.92439077 369.69502839 127.97265625 378.2265625 C124.84155093 386.9076528 119.2884782 392.47469141 111.625 397.375 C112.91083984 398.50035156 112.91083984 398.50035156 114.22265625 399.6484375 C125.59729408 409.76273686 135.73232412 420.83363557 136.86328125 436.72265625 C137.13207537 450.17650922 134.01125659 459.78085727 125.625 470.375 C125.18671875 470.97699219 124.7484375 471.57898438 124.296875 472.19921875 C104.93899062 497.21287055 65.48942562 507.03063443 35.875 511.25 C-11.49604037 517.09762349 -68.23862416 513.22886067 -108.55078125 485.1640625 C-110.89956308 483.30357067 -113.14177886 481.37129788 -115.375 479.375 C-116.28185547 478.69630859 -116.28185547 478.69630859 -117.20703125 478.00390625 C-126.35297326 471.04638377 -133.30177514 459.59805723 -135.375 448.375 C-136.6301387 434.42252792 -134.0993138 422.75940277 -125.10498047 411.83203125 C-120.56588166 406.564317 -115.92221925 401.60814019 -110.375 397.375 C-111.6434375 396.6325 -111.6434375 396.6325 -112.9375 395.875 C-120.25624607 390.92662795 -125.36687114 384.00163641 -127.375 375.375 C-128.60828248 364.31360046 -126.52716801 355.60325201 -120.375 346.375 C-120.973125 345.694375 -121.57125 345.01375 -122.1875 344.3125 C-127.52974683 337.13862569 -128.01998201 331.16908166 -127.375 322.375 C-127.15642334 321.71516113 -126.93784668 321.05532227 -126.71264648 320.37548828 C-126.60122314 319.71532715 -126.4897998 319.05516602 -126.375 318.375 C-128.24937983 316.20096402 -130.07750834 314.35808539 -132.1875 312.4375 C-154.00339298 291.54150121 -167.92420012 264.16954673 -176.70410156 235.55859375 C-177.23995979 233.81451953 -177.79961152 232.07776165 -178.3671875 230.34375 C-179.17889675 227.69941882 -179.80912675 225.08336191 -180.375 222.375 C-180.50890137 221.7341748 -180.64280273 221.09334961 -180.78076172 220.43310547 C-186.97734142 189.21321742 -184.67503666 155.4167736 -174.375 125.375 C-174.16681641 124.73900879 -173.95863281 124.10301758 -173.74414062 123.44775391 C-168.05911126 106.17838392 -159.30909167 89.87727807 -148.375 75.375 C-147.78203125 74.57191406 -147.1890625 73.76882812 -146.578125 72.94140625 C-142.17805705 67.11838054 -137.36231138 61.69897447 -132.375 56.375 C-131.06595703 54.96734375 -131.06595703 54.96734375 -129.73046875 53.53125 C-103.73906907 26.21717888 -68.1736699 9.15488523 -31.375 2.375 C-30.45460937 2.19694824 -29.53421875 2.01889648 -28.5859375 1.83544922 C-19.04905929 0.15749848 -9.65287202 -0.0225646 0 0 Z M-55.375 25.375 C-56.43203125 25.73078125 -57.4890625 26.0865625 -58.578125 26.453125 C-74.1198527 31.99816353 -88.36264912 40.31037817 -101.375 50.375 C-102.74978516 51.41527344 -102.74978516 51.41527344 -104.15234375 52.4765625 C-134.17027656 76.01485343 -154.66509006 109.04152794 -163.5625 146 C-163.79501465 146.96583008 -163.79501465 146.96583008 -164.03222656 147.95117188 C-166.73279357 159.77718424 -167.75247275 171.39005289 -167.6875 183.5 C-167.68534485 184.22521851 -167.6831897 184.95043701 -167.68096924 185.69763184 C-167.62650127 197.14597934 -167.07800648 208.21325898 -164.375 219.375 C-164.07698486 220.61733398 -164.07698486 220.61733398 -163.77294922 221.88476562 C-156.56581949 250.97241728 -140.881697 288.38419748 -115.375 306.375 C-114.055 306.375 -112.735 306.375 -111.375 306.375 C-109.8430285 293.35285377 -109.8430285 293.35285377 -114.85302734 281.74316406 C-116.8289938 279.46772862 -118.84839775 277.23904338 -120.90429688 275.03564453 C-137.18801791 256.64887985 -145.8656643 230.18449298 -149.375 206.375 C-149.63083862 204.74292603 -149.63083862 204.74292603 -149.8918457 203.07788086 C-154.10341924 170.80050042 -147.35974302 137.61710202 -131.375 109.375 C-131.00536133 108.71693359 -130.63572266 108.05886719 -130.25488281 107.38085938 C-124.12791192 96.64179947 -116.76675467 87.42565859 -108.375 78.375 C-107.31152344 77.20517578 -107.31152344 77.20517578 -106.2265625 76.01171875 C-85.2455361 53.92409813 -53.14903302 38.4026681 -23.0546875 34.671875 C-22.15314941 34.55730957 -21.25161133 34.44274414 -20.32275391 34.32470703 C-18.55970494 34.11250295 -16.79347557 33.92488953 -15.02490234 33.76513672 C-10.4398661 33.22437511 -8.92516517 33.03964053 -5.859375 29.3359375 C-5.36953125 28.35882813 -4.8796875 27.38171875 -4.375 26.375 C-3.375 25.375 -3.375 25.375 0.4375 25 C3.96272312 25.02527042 4.38408317 25.14026052 7.0625 27.75 C7.96398023 29.26448678 8.83679485 30.7985897 9.625 32.375 C11.84641781 32.95259202 11.84641781 32.95259202 14.55859375 33.26953125 C15.59105225 33.41745117 16.62351074 33.56537109 17.68725586 33.71777344 C19.35800171 33.95028809 19.35800171 33.95028809 21.0625 34.1875 C41.82530859 37.32584158 71.37979198 43.30880801 86.515625 59.3828125 C88.27138751 62.53576631 87.44287628 64.97766777 86.625 68.375 C84.625 70.375 84.625 70.375 80.97265625 70.7578125 C76.16488945 70.63000973 73.04216604 68.78096103 69.0625 66.25 C53.84242904 57.15226825 37.23061674 51.56489668 19.625 49.375 C19.95371094 50.19677734 19.95371094 50.19677734 20.2890625 51.03515625 C20.97575469 52.75188672 21.66042527 54.46942638 22.34375 56.1875 C23.26720029 58.48486413 24.20668986 60.77580415 25.15625 63.0625 C31.06532433 77.35122177 34.10528649 89.33683292 28.625 104.375 C29.16769531 104.75011719 29.71039063 105.12523438 30.26953125 105.51171875 C30.98496094 106.02347656 31.70039063 106.53523438 32.4375 107.0625 C33.49904297 107.81080078 33.49904297 107.81080078 34.58203125 108.57421875 C38.62517508 112.13806063 39.77201559 115.15810889 40.13671875 120.45703125 C40.20940522 122.36670316 40.26759171 124.27697301 40.3125 126.1875 C40.34666016 127.16654297 40.38082031 128.14558594 40.41601562 129.15429688 C40.49819858 131.56108345 40.56744433 133.96751945 40.625 136.375 C41.38683594 136.33117187 42.14867187 136.28734375 42.93359375 136.2421875 C47.57859564 136.25378551 51.22946176 136.3339917 55.0390625 139.17578125 C57.40605323 141.80529277 59.52134321 144.53015843 61.625 147.375 C62.46828994 148.45005396 63.31610409 149.52157153 64.16796875 150.58984375 C66.00781162 152.90138102 67.82819665 155.22638704 69.63671875 157.5625 C73.45477425 162.46940359 77.41436737 167.2621758 81.38574219 172.04541016 C81.90942383 172.68269043 82.43310547 173.3199707 82.97265625 173.9765625 C83.43679932 174.53682129 83.90094238 175.09708008 84.37915039 175.67431641 C87.5087736 179.94650046 87.89728802 183.13852301 87.875 188.4375 C87.88273437 190.28021484 87.88273437 190.28021484 87.890625 192.16015625 C87.625 195.375 87.625 195.375 85.625 198.375 C83.15 199.365 83.15 199.365 80.625 200.375 C80.625 205.655 80.625 210.935 80.625 216.375 C82.72875 216.436875 84.8325 216.49875 87 216.5625 C93.77017694 217.07539219 99.20185084 218.13598799 104.625 222.375 C109.45119019 228.00062046 111.68841979 232.9465795 111.94140625 240.35546875 C111.98330078 241.51884766 112.02519531 242.68222656 112.06835938 243.88085938 C112.10767578 245.09580078 112.14699219 246.31074219 112.1875 247.5625 C112.23068359 248.78904297 112.27386719 250.01558594 112.31835938 251.27929688 C112.4245309 254.31108381 112.52657952 257.34295315 112.625 260.375 C129.52283717 244.31816118 136.14914516 214.12719847 136.90234375 191.625 C137.16109519 178.60936399 136.9036054 166.00926647 133.625 153.375 C133.42632324 152.58722168 133.22764648 151.79944336 133.02294922 150.98779297 C127.53284425 129.73882488 117.6599445 111.54135686 103.44140625 94.8046875 C102.71824219 93.94101563 101.99507813 93.07734375 101.25 92.1875 C100.24839844 91.02154297 100.24839844 91.02154297 99.2265625 89.83203125 C96.91832926 86.29086366 96.29589593 83.16156494 97.0625 79 C97.248125 78.46375 97.43375 77.9275 97.625 77.375 C101.47759098 76.31375387 104.97427727 75.53214542 108.65234375 77.41015625 C129.76321285 94.98096141 142.10530935 124.50245631 148.625 150.375 C148.80434082 151.07963379 148.98368164 151.78426758 149.16845703 152.51025391 C154.09171794 172.94154222 153.43303183 197.00792954 148.625 217.375 C148.18994141 219.29892578 148.18994141 219.29892578 147.74609375 221.26171875 C142.3094053 243.39518262 131.83826601 263.63066003 117.38671875 281.21875 C116.80535156 281.9303125 116.22398437 282.641875 115.625 283.375 C115.0578125 283.92671875 114.490625 284.4784375 113.90625 285.046875 C111.80145967 288.87143303 112.31420897 292.84458825 112.4375 297.125 C112.45780273 298.45724609 112.45780273 298.45724609 112.47851562 299.81640625 C112.51378691 302.00322578 112.56307248 304.18879966 112.625 306.375 C120.87026377 305.44595619 125.91371321 297.53963265 130.84765625 291.45703125 C155.20723483 260.67687693 168.80331794 224.22078074 168.9375 184.8125 C168.94011841 184.07945648 168.94273682 183.34641296 168.94543457 182.59115601 C168.95030523 169.8295126 167.73181618 157.78861437 164.625 145.375 C164.38475098 144.37847412 164.38475098 144.37847412 164.13964844 143.36181641 C163.14291051 139.30185525 161.94667076 135.34001229 160.625 131.375 C160.32021729 130.45291748 160.32021729 130.45291748 160.00927734 129.51220703 C154.79939111 114.00705645 147.22853856 99.61944054 137.625 86.375 C137.24182617 85.84374512 136.85865234 85.31249023 136.46386719 84.76513672 C120.45207142 62.80811383 99.81567321 45.6736747 75.625 33.375 C74.5525 32.82457031 73.48 32.27414063 72.375 31.70703125 C57.15142232 24.3045666 41.23448196 20.24440613 24.625 17.375 C23.24393066 17.11130615 23.24393066 17.11130615 21.83496094 16.84228516 C18.19306442 16.31212164 14.60979534 16.17721924 10.9375 16.13671875 C9.84051788 16.12209595 9.84051788 16.12209595 8.72137451 16.10717773 C-13.7280911 15.8697366 -34.0887112 17.84578868 -55.375 25.375 Z M-0.375 49.375 C-12.75597868 70.80597307 -12.75597868 70.80597307 -14.375 94.375 C-12.44386073 98.94875091 -9.737387 101.07034272 -5.375 103.375 C-1.03909446 104.67048397 1.96303109 104.57695662 6.3125 103.25 C10.55875026 100.84646212 13.40072783 98.32270572 16 94.1875 C19.31004944 79.29227752 8.29344017 62.10258125 1.625 49.375 C0.965 49.375 0.305 49.375 -0.375 49.375 Z M-77.375 72.375 C-78.17679688 72.94734375 -78.97859375 73.5196875 -79.8046875 74.109375 C-109.20949251 96.08449618 -129.2222122 127.91206402 -134.71875 164.35546875 C-138.63606731 195.83616793 -133.43024955 229.67140827 -115.375 256.375 C-114.07002441 257.73610038 -112.74191476 259.07611602 -111.375 260.375 C-111.37089111 259.63975098 -111.36678223 258.90450195 -111.36254883 258.14697266 C-111.32932907 254.76387271 -111.25865305 251.38250646 -111.1875 248 C-111.18169922 246.84371094 -111.17589844 245.68742188 -111.16992188 244.49609375 C-110.94757856 235.75058995 -109.54208149 228.36902993 -103.0234375 222.12109375 C-102.27320313 221.68925781 -101.52296875 221.25742188 -100.75 220.8125 C-99.99460938 220.35746094 -99.23921875 219.90242187 -98.4609375 219.43359375 C-92.50735293 216.41220533 -85.92394478 216.79557444 -79.375 216.375 C-79.375 211.095 -79.375 205.815 -79.375 200.375 C-81.355 199.385 -83.335 198.395 -85.375 197.375 C-86.82886995 194.4672601 -86.6225858 191.86387703 -86.6875 188.625 C-86.74357422 186.80742187 -86.74357422 186.80742187 -86.80078125 184.953125 C-85.98051789 178.05990266 -80.61032968 173.07877599 -76.3125 167.875 C-72.45650769 163.173156 -68.62636378 158.45749159 -64.89111328 153.65893555 C-63.53255293 151.91674522 -62.15991806 150.18644833 -60.78515625 148.45703125 C-59.32884647 146.59474856 -57.90787796 144.702947 -56.55859375 142.76171875 C-54.01178587 139.30665167 -52.56392194 137.64370837 -48.28125 136.67578125 C-45.28522536 136.40627903 -42.38040732 136.2960402 -39.375 136.375 C-39.3656543 135.77026855 -39.35630859 135.16553711 -39.34667969 134.54248047 C-39.29268278 131.7775212 -39.20909606 129.01420094 -39.125 126.25 C-39.11082031 125.29867187 -39.09664063 124.34734375 -39.08203125 123.3671875 C-38.88086412 117.57357407 -38.33969343 113.9060782 -34.375 109.375 C-32.15450328 107.43432198 -29.85568535 105.99698657 -27.375 104.375 C-27.5915625 103.78074219 -27.808125 103.18648437 -28.03125 102.57421875 C-33.3126168 86.8523722 -28.63635269 73.4950243 -21.99609375 59.0390625 C-20.55844634 55.8823629 -19.40641776 52.68990484 -18.375 49.375 C-38.92017466 49.375 -61.07094707 60.63608189 -77.375 72.375 Z M-23.375 120.375 C-23.375 125.655 -23.375 130.935 -23.375 136.375 C-22.04984375 136.40078125 -20.7246875 136.4265625 -19.359375 136.453125 C-17.61455056 136.50940966 -15.86976017 136.56675692 -14.125 136.625 C-13.25230469 136.63917969 -12.37960938 136.65335938 -11.48046875 136.66796875 C-5.01755909 136.91464469 -5.01755909 136.91464469 -1.78515625 139.23046875 C0.10587823 142.10630788 -0.01551339 143.99582589 -0.375 147.375 C-0.87 148.86 -0.87 148.86 -1.375 150.375 C-5.41407936 151.90201896 -9.66863665 151.34383882 -13.91015625 151.19921875 C-16.51843731 151.16036393 -19.12666323 151.13404565 -21.73510742 151.10864258 C-23.52472493 151.07808537 -25.31410901 151.02435165 -27.10229492 150.9465332 C-37.10685776 150.27250444 -37.10685776 150.27250444 -46.1993103 153.67156982 C-49.49650935 156.92738403 -51.93229107 160.67874478 -54.30178833 164.63955688 C-55.76133755 166.99972937 -57.48833194 169.06839015 -59.29296875 171.171875 C-59.84404297 171.83960938 -60.39511719 172.50734375 -60.96289062 173.1953125 C-62.06983032 174.53066832 -63.17938069 175.86386275 -64.29101562 177.1953125 C-65.09635742 178.17371094 -65.09635742 178.17371094 -65.91796875 179.171875 C-66.6298938 180.02797363 -66.6298938 180.02797363 -67.35620117 180.90136719 C-68.56455946 182.35059995 -68.56455946 182.35059995 -68.375 184.375 C-58.805 184.375 -49.235 184.375 -39.375 184.375 C-39.045 180.745 -38.715 177.115 -38.375 173.375 C-36.6875 170.6875 -36.6875 170.6875 -34.375 169.375 C-30.89712326 168.79535388 -29.13262811 168.94499486 -26.0625 170.6875 C-23.34728945 175.0117242 -23.61573442 179.31957709 -23.375 184.375 C-18.095 184.375 -12.815 184.375 -7.375 184.375 C-7.2925 182.6425 -7.21 180.91 -7.125 179.125 C-6.79298001 175.59103378 -6.59261713 173.72157543 -4.6875 170.6875 C-1.61737189 168.94499486 0.14712326 168.79535388 3.625 169.375 C5.9375 170.6875 5.9375 170.6875 7.625 173.375 C8.2577898 177.07070513 8.44591718 180.61426074 8.625 184.375 C13.905 184.375 19.185 184.375 24.625 184.375 C24.7075 182.6425 24.79 180.91 24.875 179.125 C25.20701999 175.59103378 25.40738287 173.72157543 27.3125 170.6875 C30.38262811 168.94499486 32.14712326 168.79535388 35.625 169.375 C37.9375 170.6875 37.9375 170.6875 39.625 173.375 C40.12 178.82 40.12 178.82 40.625 184.375 C50.195 184.375 59.765 184.375 69.625 184.375 C68.11646217 181.35792435 66.98488997 179.4085424 64.90234375 176.90625 C64.36947754 176.25793213 63.83661133 175.60961426 63.28759766 174.94165039 C62.11626256 173.53840222 60.93997262 172.13927816 59.75927734 170.74389648 C57.05487474 167.51158219 54.53125253 164.43614472 52.57421875 160.69140625 C50.50494073 157.00038144 49.09459513 154.83872272 45.625 152.375 C38.88311739 150.84853601 31.91560315 151.08177338 25.04760742 151.38989258 C22.7187733 151.37557646 20.84566451 151.04426345 18.625 150.375 C18.03282356 147.36262418 17.58258051 144.45041288 17.625 141.375 C19.77434914 138.30450123 21.07574888 137.55808371 24.625 136.375 C24.625 131.095 24.625 125.815 24.625 120.375 C8.785 120.375 -7.055 120.375 -23.375 120.375 Z M-63.375 200.375 C-63.375 205.655 -63.375 210.935 -63.375 216.375 C-21.135 216.375 21.105 216.375 64.625 216.375 C64.625 211.095 64.625 205.815 64.625 200.375 C22.385 200.375 -19.855 200.375 -63.375 200.375 Z M-95.375 237.375 C-95.97374294 240.26160089 -95.97374294 240.26160089 -95.6875 243.1875 C-95.64238281 244.16332031 -95.59726563 245.13914063 -95.55078125 246.14453125 C-95.49277344 246.88058594 -95.43476563 247.61664063 -95.375 248.375 C-94.23611328 248.46587891 -94.23611328 248.46587891 -93.07421875 248.55859375 C-92.08035156 248.64238281 -91.08648437 248.72617188 -90.0625 248.8125 C-89.07636719 248.89371094 -88.09023437 248.97492188 -87.07421875 249.05859375 C-84.375 249.375 -84.375 249.375 -81.375 250.375 C-80.00357143 259.51785714 -80.00357143 259.51785714 -81.375 262.375 C-85.95716515 263.90238838 -90.56613491 263.97897582 -95.375 264.375 C-95.375 269.655 -95.375 274.935 -95.375 280.375 C-92.9265567 280.38046844 -92.9265567 280.38046844 -90.4286499 280.38604736 C-75.06611055 280.42294517 -59.70379342 280.48042254 -44.34141159 280.55890274 C-36.44293626 280.59872305 -28.544561 280.63110026 -20.64599609 280.64599609 C-13.76210652 280.6589972 -6.87843685 280.68592209 0.00532889 280.72961307 C3.65075554 280.75226296 7.29591062 280.7679086 10.94141388 280.76688385 C15.00975731 280.766001 19.07729734 280.79620179 23.14550781 280.82910156 C24.35607346 280.8240712 25.5666391 280.81904083 26.81388855 280.81385803 C28.47551781 280.83472725 28.47551781 280.83472725 30.17071533 280.85601807 C31.13306721 280.85970524 32.09541908 280.86339241 33.08693314 280.86719131 C36.37902815 281.52586365 37.57652011 282.76335999 39.625 285.375 C40.125 288.375 40.125 288.375 39.625 291.375 C37.57652011 293.98664001 36.37902815 295.22413635 33.08693314 295.88280869 C32.12458126 295.88649586 31.16222939 295.89018303 30.17071533 295.89398193 C28.50908607 295.91485115 28.50908607 295.91485115 26.81388855 295.93614197 C25.60332291 295.9311116 24.39275726 295.92608124 23.14550781 295.92089844 C21.22805504 295.93640495 21.22805504 295.93640495 19.27186584 295.95222473 C15.77006219 295.98009476 12.26861161 295.98348922 8.76671314 295.98250484 C5.10576779 295.98563313 1.44498166 296.01124952 -2.21588135 296.03448486 C-9.14665082 296.07505502 -16.07732618 296.09538789 -23.00819612 296.10845876 C-30.89939608 296.12432542 -38.79043582 296.16273957 -46.68154287 296.20305204 C-62.91264919 296.28546483 -79.14372175 296.33954824 -95.375 296.375 C-95.48158583 297.9764192 -95.55781755 299.57987927 -95.62109375 301.18359375 C-95.6667749 302.07618896 -95.71245605 302.96878418 -95.75952148 303.88842773 C-95.61083536 306.50644927 -95.61083536 306.50644927 -93.52929688 308.16210938 C-91.52464572 309.38436633 -89.51080853 310.40417794 -87.375 311.375 C-87.045 311.705 -86.715 312.035 -86.375 312.375 C-84.14619827 312.48083824 -81.91397897 312.51469648 -79.68267822 312.52217102 C-78.97481352 312.52584771 -78.26694881 312.5295244 -77.53763366 312.5333125 C-75.14780329 312.54439178 -72.75801633 312.54820034 -70.36816406 312.55200195 C-68.66186381 312.55826346 -66.95556494 312.56490997 -65.24926758 312.57191467 C-60.60038377 312.58935483 -55.95151026 312.59988484 -51.30260181 312.6081202 C-48.40011476 312.61326443 -45.49763095 312.61934045 -42.59514618 312.62563133 C-33.51983218 312.64469262 -24.44452636 312.65892122 -15.36919618 312.6672433 C-4.88256694 312.67701734 5.60385131 312.70333728 16.09040618 312.74374419 C24.18810386 312.77387863 32.28574098 312.78870967 40.38349366 312.79202431 C45.22336563 312.79437807 50.06301243 312.80338041 54.9028244 312.82848549 C59.4566276 312.85172424 64.01005674 312.85601644 68.56390381 312.84572411 C70.23565157 312.84522759 71.90741748 312.85158202 73.57910919 312.86528015 C75.86143778 312.88293578 78.14241482 312.87592544 80.42474365 312.86274719 C81.7019717 312.86513555 82.97919975 312.8675239 84.29513168 312.86998463 C88.23077473 312.28495164 89.72338951 311.01739624 92.625 308.375 C93.945 307.715 95.265 307.055 96.625 306.375 C96.625 303.075 96.625 299.775 96.625 296.375 C95.05818481 296.345271 95.05818481 296.345271 93.4597168 296.31494141 C89.5849595 296.23887886 85.71057743 296.15016272 81.83618164 296.05761719 C80.15917366 296.01933007 78.48208362 295.98447669 76.80493164 295.953125 C74.39439568 295.90746821 71.98442443 295.8494759 69.57421875 295.7890625 C68.82412033 295.77751129 68.07402191 295.76596008 67.30119324 295.75405884 C63.56372287 295.64804541 61.81071377 295.49880918 58.625 293.375 C57.75386556 289.45489501 57.24628085 286.20477542 58.625 282.375 C62.50462749 281.14176999 66.4218473 281.15177051 70.453125 281.05859375 C71.57663361 281.0274221 71.57663361 281.0274221 72.72283936 280.99562073 C75.10680288 280.93042912 77.49087312 280.87138217 79.875 280.8125 C81.49480254 280.76928584 83.11459443 280.72567063 84.734375 280.68164062 C88.69780905 280.57402689 92.66132834 280.47472836 96.625 280.375 C96.625 275.095 96.625 269.815 96.625 264.375 C94.871875 264.230625 93.11875 264.08625 91.3125 263.9375 C88.16320647 263.67814642 85.63278521 263.37759507 82.625 262.375 C81.25357143 253.23214286 81.25357143 253.23214286 82.625 250.375 C85.63278521 249.37240493 88.16320647 249.07185358 91.3125 248.8125 C92.30636719 248.72871094 93.30023438 248.64492187 94.32421875 248.55859375 C95.46310547 248.46771484 95.46310547 248.46771484 96.625 248.375 C96.76109913 246.64805325 96.85749228 244.91795278 96.9375 243.1875 C96.99550781 242.22457031 97.05351562 241.26164063 97.11328125 240.26953125 C96.42746187 236.20399398 94.8104018 234.93344743 91.625 232.375 C88.92098736 231.88093467 86.84447514 231.69650462 84.14794922 231.74008179 C83.40399839 231.73228183 82.66004757 231.72448188 81.89355278 231.71644557 C79.40509128 231.6965297 76.91815986 231.71228719 74.4296875 231.72802734 C72.64397286 231.721251 70.85826521 231.71234777 69.0725708 231.70147705 C64.22540409 231.67867911 59.37876936 231.68752209 54.53159332 231.70337248 C49.45968692 231.71602889 44.38782615 231.70429208 39.31591797 231.69644165 C30.79841939 231.68734434 22.28113755 231.69933517 13.76367188 231.72314453 C3.91542885 231.75035593 -5.93229663 231.74154183 -15.78052711 231.7140125 C-24.23503361 231.69132479 -32.68938427 231.68811971 -41.14391136 231.70120585 C-46.19386657 231.7090022 -51.24357848 231.71003684 -56.29351807 231.69352341 C-61.04121383 231.67908285 -65.78824215 231.68909273 -70.53586578 231.71799469 C-72.27854555 231.72460773 -74.02128145 231.72270407 -75.7639389 231.71168137 C-78.14270124 231.69802203 -80.51932341 231.71514308 -82.89794922 231.74008179 C-83.588127 231.72892818 -84.27830479 231.71777457 -84.98939705 231.70628297 C-90.09705756 231.8102035 -92.27519224 233.40675421 -95.375 237.375 Z M-109.375 322.375 C-111.72049674 325.89324511 -111.95491403 327.23275694 -111.375 331.375 C-108.88897551 334.73844489 -107.46074477 336.17557749 -103.3125 336.9375 C-99.69062954 336.24395034 -98.53574795 335.33602497 -96.375 332.375 C-95.12168983 329.11639356 -95.14220094 327.90186102 -96.5625 324.6875 C-98.42888364 322.30625191 -99.5439936 321.34815845 -102.375 320.375 C-105.53487325 320.375 -106.73534793 320.75714873 -109.375 322.375 Z M98.625 323.375 C96.95145549 326.72208903 96.3994387 328.47275482 97.3125 332.125 C98.56656342 334.6532496 98.56656342 334.6532496 101.625 336.375 C104.5399255 336.9588196 104.5399255 336.9588196 107.625 336.375 C110.98844489 333.88897551 112.42557749 332.46074477 113.1875 328.3125 C112.49395034 324.69062954 111.58602497 323.53574795 108.625 321.375 C104.35287078 319.73187338 102.099676 320.46378497 98.625 323.375 Z M-79.375 328.375 C-80.86 333.82 -80.86 333.82 -82.375 339.375 C-76.12640963 344.92930255 -70.26684483 345.49617172 -62.125 346.375 C-41.12120131 349.0281257 -20.75934339 353.849763 -2.76953125 365.50390625 C0.68455556 366.76045007 2.29905035 365.83808814 5.625 364.375 C7.39880471 363.48408451 9.17180772 362.59082934 10.92456055 361.65917969 C29.28662489 351.92307948 48.92136698 347.50362781 69.5 345.4375 C75.6585359 344.75391506 79.13122517 343.64408608 83.625 339.375 C82.635 335.745 81.645 332.115 80.625 328.375 C27.825 328.375 -24.975 328.375 -79.375 328.375 Z M-108.8125 358.9375 C-111.77278379 363.55554272 -112.0332274 368.03604444 -111.375 373.375 C-108.84259618 378.3460149 -105.38638866 381.86930567 -100.375 384.375 C-94.69168392 384.96606487 -90.22722997 384.64743416 -85.375 381.375 C-81.95236426 377.76221783 -79.58354819 374.39315577 -79.234375 369.33984375 C-79.43644833 363.44940608 -81.46758292 360.14764417 -85.54296875 355.97265625 C-88.68386969 353.23357632 -91.12745041 352.54133994 -95.1875 352 C-100.76320402 352.65596518 -104.9543863 354.88153432 -108.8125 358.9375 Z M84.3125 358.5 C81.10661098 362.51793479 80.09814832 366.26453869 80.625 371.375 C82.2472149 376.7132188 84.88597855 380.33716573 89.625 383.375 C93.69547347 384.73182449 97.36891717 384.89972254 101.625 384.375 C106.5960149 381.84259618 110.11930567 378.38638866 112.625 373.375 C113.43480094 366.85676623 112.54786213 362.63989392 108.625 357.375 C100.60159074 350.28454531 91.64061873 351.03295959 84.3125 358.5 Z M-64.375 361.375 C-64.33672833 371.54685951 -64.27705875 381.71835708 -64.19109726 391.88993168 C-64.15181929 396.61454083 -64.11953536 401.33896908 -64.10400391 406.0637207 C-64.0887063 410.63514795 -64.05403346 415.20607718 -64.00669098 419.77728081 C-63.99201084 421.50926793 -63.9839668 423.2413262 -63.98311615 424.97337532 C-63.96353163 444.88068727 -59.9184287 462.30672002 -45.609375 477.16796875 C-44.50335938 478.26044922 -44.50335938 478.26044922 -43.375 479.375 C-42.76140625 480.01050781 -42.1478125 480.64601563 -41.515625 481.30078125 C-29.32192074 493.05155181 -13.20418506 496.91030647 3.20996094 496.86743164 C21.18813019 496.37819865 34.90845353 488.82569533 47.625 476.375 C48.17929687 475.85679687 48.73359375 475.33859375 49.3046875 474.8046875 C53.02059644 470.9682626 55.3825722 466.39527774 57.8125 461.6875 C58.14588379 461.05255615 58.47926758 460.4176123 58.82275391 459.76342773 C64.74156429 447.79027306 65.08963239 435.75762303 65.13671875 422.703125 C65.15359765 420.92664373 65.17175212 419.15017418 65.19111633 417.37371826 C65.2382742 412.7378709 65.26830353 408.10207103 65.29455566 403.46606445 C65.32453545 398.71946844 65.37100515 393.97303556 65.41601562 389.2265625 C65.50165859 379.94279428 65.56917568 370.65899212 65.625 361.375 C63.22596997 361.68132577 60.82749505 361.99124341 58.42919922 362.30322266 C57.75455124 362.38899063 57.07990326 362.47475861 56.3848114 362.56312561 C51.34346744 363.22302961 46.58971847 364.22064896 41.75 365.75 C41.08226562 365.9459375 40.41453125 366.141875 39.7265625 366.34375 C34.4084651 367.95963344 29.79053778 370.07920543 24.625 372.375 C24.625 379.635 24.625 386.895 24.625 394.375 C27.24501953 394.23191406 27.24501953 394.23191406 29.91796875 394.0859375 C32.21611734 393.97337512 34.51429613 393.86142807 36.8125 393.75 C37.96298828 393.68554688 39.11347656 393.62109375 40.29882812 393.5546875 C41.41064453 393.503125 42.52246094 393.4515625 43.66796875 393.3984375 C44.68914795 393.34606934 45.71032715 393.29370117 46.76245117 393.23974609 C49.83519975 393.38493183 51.89764512 393.97225611 54.625 395.375 C56.14991998 398.42483996 55.86062548 401.0173369 55.625 404.375 C54.4609375 406.05859375 54.4609375 406.05859375 52.625 407.375 C49.9609375 407.8515625 49.9609375 407.8515625 47 408 C43.50040099 407.89954275 43.50040099 407.89954275 40.625 409.375 C40.38072862 411.8584257 40.24140241 414.34067293 40.1015625 416.83203125 C39.54320387 419.8114695 38.76595951 421.23892852 36.625 423.375 C33.89429251 424.12374238 31.39061552 423.92350412 28.625 423.375 C26.15848693 421.54500644 25.747251 420.08527829 25.234375 417.10546875 C24.96582547 414.86166674 24.7647418 412.63014359 24.625 410.375 C22.22788289 410.82728625 19.83247182 411.2866008 17.4375 411.75 C16.76396484 411.87632812 16.09042969 412.00265625 15.39648438 412.1328125 C11.59646968 412.87427878 8.1937628 413.89999471 4.625 415.375 C-1.92953746 416.07727187 -7.0814792 414.3773301 -13.296875 412.33203125 C-16.69842994 411.2744412 -19.84005216 410.70383236 -23.375 410.375 C-23.41238281 410.97828125 -23.44976562 411.5815625 -23.48828125 412.203125 C-23.77398013 415.67632703 -24.09675129 418.70392959 -25.4375 421.9375 C-28.09080575 423.90608169 -30.19986926 423.85719499 -33.4375 423.90625 C-35.375 423.375 -35.375 423.375 -37.0859375 421.66796875 C-38.56797973 419.03173 -38.83136194 417.19192011 -39 414.1875 C-38.94527072 410.97501231 -38.94527072 410.97501231 -40.375 408.375 C-43.15165837 408.13079878 -45.92716999 407.99111813 -48.7109375 407.8515625 C-51.69087173 407.31849509 -52.65859017 406.83518742 -54.375 404.375 C-55.02544248 398.30420354 -55.02544248 398.30420354 -53.0625 395.5 C-49.5765623 393.17604153 -46.65635784 393.31138467 -42.61328125 393.49609375 C-40.93588867 393.56860352 -40.93588867 393.56860352 -39.22460938 393.64257812 C-38.05736328 393.69865234 -36.89011719 393.75472656 -35.6875 393.8125 C-34.50865234 393.86470703 -33.32980469 393.91691406 -32.11523438 393.97070312 C-29.20159556 394.10046032 -26.2882639 394.23708146 -23.375 394.375 C-23.375 387.115 -23.375 379.855 -23.375 372.375 C-29.14935364 369.80862061 -34.50615897 367.50881049 -40.5 365.75 C-41.46679688 365.44449219 -41.46679688 365.44449219 -42.453125 365.1328125 C-47.30128269 363.69495585 -52.17053984 362.93997335 -57.17919922 362.30322266 C-57.87266953 362.21301346 -58.56613983 362.12280426 -59.28062439 362.02986145 C-60.97845915 361.80932663 -62.676691 361.59185256 -64.375 361.375 Z M-7.375 381.375 C-7.375 386.655 -7.375 391.935 -7.375 397.375 C-2.45114182 399.40629958 -2.45114182 399.40629958 2.3125 399.0625 C3.46298828 398.91361328 3.46298828 398.91361328 4.63671875 398.76171875 C6.68887299 398.45482271 6.68887299 398.45482271 8.625 397.375 C8.625 392.095 8.625 386.815 8.625 381.375 C6.975 382.035 5.325 382.695 3.625 383.375 C-1.00139978 383.76053331 -2.86035226 383.1808591 -7.375 381.375 Z M80.625 399.375 C80.61041748 400.60428223 80.59583496 401.83356445 80.58081055 403.10009766 C80.52218271 407.72618555 80.44496281 412.35181892 80.36254883 416.97753906 C80.32959925 418.96737204 80.30147751 420.95729177 80.27856445 422.94726562 C79.96677829 449.32304822 74.2942932 468.78352017 57.625 489.375 C75.19363092 486.82471487 92.02793587 478.5945814 105.625 467.375 C106.65625 466.611875 107.6875 465.84875 108.75 465.0625 C115.91361594 458.36607641 120.54930658 450.9231257 121 441.0625 C120.75430642 430.38205551 114.74564042 422.38262119 107.32421875 415.125 C101.45447933 409.9945449 88.74260549 399.375 80.625 399.375 Z M-108.375 417.375 C-114.67636428 424.1847295 -119.46640931 431.41151235 -119.875 440.875 C-119.43048451 450.86270745 -114.15090279 458.32094028 -107.375 465.375 C-96.10217338 475.34011252 -83.24357882 481.65771624 -69.125 486.4375 C-68.20726807 486.74896973 -67.28953613 487.06043945 -66.34399414 487.38134766 C-61.40048435 489.17617477 -61.40048435 489.17617477 -56.375 488.375 C-56.87128906 487.86453125 -57.36757812 487.3540625 -57.87890625 486.828125 C-72.15000245 471.55507328 -78.31052121 452.89781921 -78.69140625 432.28515625 C-78.71218735 431.34063095 -78.73296844 430.39610565 -78.75437927 429.42295837 C-78.81937354 426.42787427 -78.878525 423.43270807 -78.9375 420.4375 C-78.98073297 418.39777822 -79.02434873 416.35806452 -79.06835938 414.31835938 C-79.17500305 409.33732212 -79.2764094 404.3562029 -79.375 399.375 C-88.36070258 399.375 -102.33875866 411.4719864 -108.375 417.375 Z " fill="#000000" transform="translate(255.375,-0.375)"/>
<path d="M0 0 C1.3921875 1.0828125 1.3921875 1.0828125 2.8125 2.1875 C7.23998405 4.70508897 11.01262692 4.82442665 16 4 C19.22132295 2.26916093 19.22132295 2.26916093 22 0 C27.93696275 -3.18051576 27.93696275 -3.18051576 32.3125 -2.4375 C35 -1 35 -1 36.4375 0.6875 C37.31971161 4.31436993 37.09938733 6.39645264 36 10 C30.59605987 16.5560492 23.59108836 20.54371355 15.1875 21.37890625 C4.87290914 21.83625132 -2.32579035 20.07719909 -10.5 13.6875 C-13.28209468 11.10491809 -13.97566381 10.07976862 -15.125 6.3125 C-14.93476395 1.27124464 -14.93476395 1.27124464 -13 -1 C-7.79833386 -3.78228654 -5.03594643 -2.69782844 0 0 Z " fill="#000000" transform="translate(245,451)"/>
<path d="M0 0 C1.47726562 -0.02900391 1.47726562 -0.02900391 2.984375 -0.05859375 C7.77512201 -0.02622384 10.22682286 0.04751534 14.1484375 2.9765625 C16 5.625 16 5.625 16.625 8.625 C15.74952595 12.82727546 14.44619808 14.05104064 11 16.625 C7.31963136 17.36573147 3.74267136 17.32348177 0 17.25 C-1.47726563 17.27900391 -1.47726563 17.27900391 -2.984375 17.30859375 C-7.77512201 17.27622384 -10.22682286 17.20248466 -14.1484375 14.2734375 C-16 11.625 -16 11.625 -16.625 8.625 C-14.75456808 -0.3530732 -7.60103253 -0.14923493 0 0 Z " fill="#000000" transform="translate(256,247.375)"/>
<path d="M0 0 C0.99837891 -0.03738281 1.99675781 -0.07476562 3.02539062 -0.11328125 C10.40717533 -0.20180365 10.40717533 -0.20180365 14.34765625 2.7109375 C16.1875 5.375 16.1875 5.375 16.8125 8.375 C15.93628845 12.58081545 14.64270565 13.80607387 11.1875 16.375 C7.48447033 17.06575168 3.88001414 16.98263558 0.125 16.875 C-1.36483398 16.87886719 -1.36483398 16.87886719 -2.88476562 16.8828125 C-11.29124954 16.76959386 -11.29124954 16.76959386 -14.8125 13.375 C-15.91623378 9.40155839 -16.22793583 7.28500228 -14.5 3.5 C-10.85915748 -1.08476466 -5.42087058 0.07610667 0 0 Z " fill="#000000" transform="translate(303.8125,247.625)"/>
<path d="M0 0 C0.99322266 -0.00257813 1.98644531 -0.00515625 3.00976562 -0.0078125 C11.41624954 0.10540614 11.41624954 0.10540614 14.9375 3.5 C16.04123378 7.47344161 16.35293583 9.58999772 14.625 13.375 C12.9375 15.5 12.9375 15.5 10.9375 16.5 C7.34042849 16.82011789 3.73456201 16.82432332 0.125 16.875 C-0.87337891 16.91238281 -1.87175781 16.94976562 -2.90039062 16.98828125 C-10.28217533 17.07680365 -10.28217533 17.07680365 -14.22265625 14.1640625 C-16.0625 11.5 -16.0625 11.5 -16.6875 8.5 C-14.80258447 -0.54759453 -7.62875509 -0.21867441 0 0 Z " fill="#000000" transform="translate(208.0625,247.5)"/>
<path d="M0 0 C2.48038907 3.7205836 2.46337203 5.59796571 2 10 C0.5 12.4375 0.5 12.4375 -2 14 C-4.8089715 14.61014545 -7.19636021 14.65360928 -10 14 C-12.5625 11.9375 -12.5625 11.9375 -14 9 C-13.93822484 5.41704089 -13.76840164 3.04782042 -11.625 0.125 C-7.41991855 -2.78621024 -4.54355607 -1.65220221 0 0 Z " fill="#000000" transform="translate(302,442)"/>
<path d="M0 0 C2.30760361 2.59605406 1.99668242 4.06303397 1.8125 7.5625 C1 11 1 11 -0.0625 12.9375 C-3.27568922 14.69957151 -6.49721385 14.7470731 -10 14 C-13.02791041 11.42627616 -13.86162709 9.84753406 -14.5 5.9375 C-13.88650515 2.33321775 -12.86209271 1.20790009 -10 -1 C-5.98367013 -2.33877662 -3.90367509 -1.49049413 0 0 Z " fill="#000000" transform="translate(222,442)"/>
</svg>
