<?xml version="1.0" encoding="UTF-8"?>
<svg version="1.1" xmlns="http://www.w3.org/2000/svg" width="512" height="512">
<path d="M0 0 C1.05103636 -0.00743927 1.05103636 -0.00743927 2.12330577 -0.01502883 C4.46500537 -0.02795492 6.80613196 -0.01961005 9.14784527 -0.01129913 C10.84618158 -0.01618947 12.54451457 -0.02237993 14.2428419 -0.02975702 C18.90521878 -0.04616172 23.56742662 -0.04383752 28.22982228 -0.03838205 C33.25995181 -0.03571251 38.29003622 -0.05024227 43.32014751 -0.06247711 C53.17320472 -0.08353669 63.02620308 -0.08807165 72.87928013 -0.08628923 C80.88818867 -0.08498183 88.89707884 -0.08878461 96.90598392 -0.09621429 C99.21256771 -0.09831348 101.51915149 -0.10041108 103.82573527 -0.10250711 C104.97377549 -0.10355064 106.12181571 -0.10459417 107.30464502 -0.10566932 C129.01983466 -0.12457393 150.73499051 -0.12352085 172.45018496 -0.11669999 C192.31467313 -0.11112477 212.17903231 -0.13194875 232.04349033 -0.16506046 C252.44049517 -0.19879595 272.83743823 -0.21396594 293.2344715 -0.20934343 C304.68575457 -0.20709856 316.13691844 -0.21234464 327.58817768 -0.23723602 C337.33743552 -0.25824731 347.0865088 -0.2618428 356.83577422 -0.24293643 C361.80921476 -0.23377749 366.78231116 -0.23264056 371.75572491 -0.25329208 C376.31130991 -0.27199927 380.86626887 -0.26750144 385.42183002 -0.24474627 C387.0671454 -0.24055986 388.71250875 -0.24476193 390.3577734 -0.25834221 C400.25907355 -0.33448349 409.04390231 0.02722145 416.65881759 7.19708872 C421.60439564 12.49658196 422.97977737 17.27901741 423.00639629 24.52280426 C423.01163297 25.23055884 423.01686965 25.93831341 423.02226502 26.6675151 C423.03723725 29.03330159 423.03796955 31.39887127 423.03863811 33.76470184 C423.04626161 35.46348179 423.05468944 37.16225829 423.06386089 38.86103058 C423.08579731 43.47283578 423.09460395 48.08457467 423.09968734 52.69642615 C423.10333271 55.58021882 423.1095738 58.46399417 423.11668873 61.34778023 C423.14118278 71.4157983 423.15423448 81.48376488 423.15777874 91.55181122 C423.16141128 100.9239056 423.19128661 110.29567195 423.23318332 119.66766614 C423.26792667 127.72306964 423.2833279 135.77836468 423.28402478 143.83384258 C423.28481638 148.64088068 423.29350091 153.44758478 423.32202244 158.25454521 C423.34827161 162.77976901 423.35037028 167.30438354 423.3343668 171.82964897 C423.33255759 173.48478783 423.33919515 175.13996227 423.35518551 176.79502487 C423.43663617 185.7776391 423.37864896 193.87075005 417.73224163 201.38311005 C411.13291867 207.76959152 404.19943734 209.70194651 395.05696392 209.62361908 C394.31594352 209.62532793 393.57492312 209.62703678 392.81144756 209.62879741 C390.34557328 209.63207353 387.87997532 209.62111988 385.4141264 209.61016083 C383.63971749 209.60959631 381.86530811 209.60991407 380.09089947 209.61104584 C375.28564097 209.61161875 370.48048268 209.59987428 365.67524743 209.58589792 C360.64907959 209.57338043 355.62290935 209.57221926 350.59672832 209.56984711 C341.08421052 209.56363534 331.57173878 209.5472286 322.05924124 209.52714813 C311.22736884 209.50477971 300.39549422 209.49379332 289.56360447 209.48375726 C267.28645783 209.46286213 245.00935264 209.42769202 222.73224163 209.38311005 C222.4317944 210.1541658 222.13134716 210.92522156 221.82179546 211.71964264 C219.76046644 216.75866182 216.7352855 221.29924074 213.91974163 225.94561005 C213.30292522 226.98652802 212.68610882 228.02744598 212.05060101 229.09990692 C211.4440971 230.10215302 210.83759319 231.10439911 210.21271038 232.1370163 C209.66510052 233.04781952 209.11749065 233.95862274 208.55328655 234.89702606 C205.83643081 238.60606776 203.33441106 241.11608181 198.73224163 241.88311005 C194.82143785 241.23130942 193.61204063 240.1500577 190.73224163 237.38311005 C188.52299985 234.19879028 186.59724459 230.86851144 184.66974163 227.50811005 C183.63847936 225.73912833 182.60595633 223.97088091 181.57208538 222.20342255 C181.08852581 221.37101044 180.60496624 220.53859833 180.10675335 219.68096161 C178.91794926 217.69356833 177.67580086 215.78047437 176.36114788 213.87529755 C174.73224163 211.38311005 174.73224163 211.38311005 174.73224163 209.38311005 C173.35317811 209.38725811 173.35317811 209.38725811 171.94625473 209.39148998 C149.56128805 209.45778361 127.17633833 209.50740711 104.7912941 209.53854656 C93.96599136 209.55400617 83.14075422 209.5750784 72.31549358 209.60942841 C62.87865194 209.63935846 53.4418578 209.65869164 44.00497001 209.66537553 C39.00961292 209.66928166 34.01439173 209.67844283 29.01907825 209.70030022 C24.31349194 209.72072229 19.60809701 209.72693228 14.90247059 209.72243309 C13.17919149 209.72325573 11.45590572 209.72918721 9.73266506 209.74072647 C-8.95068706 209.85965667 -8.95068706 209.85965667 -17.51775837 204.25811005 C-25.8795546 195.51623217 -25.98675016 186.91943328 -25.89886189 175.42388153 C-25.90400638 173.71141063 -25.91129165 171.99894503 -25.92054462 170.28649139 C-25.938998 165.65626856 -25.92615911 161.02662442 -25.90645432 156.39642596 C-25.89001892 151.54083045 -25.89888739 146.68527017 -25.90397358 141.82965851 C-25.90848864 133.67819265 -25.89266006 125.5269567 -25.8646822 117.37554169 C-25.83262223 107.96243982 -25.83265214 98.54975226 -25.84989697 89.13662094 C-25.86578035 80.06553881 -25.85901753 70.99460802 -25.84195995 61.92353249 C-25.83510222 58.07003036 -25.83610873 54.21665 -25.84350491 50.36314964 C-25.85118643 45.82311115 -25.83898088 41.2835422 -25.811656 36.74358368 C-25.80479104 35.08117885 -25.80465387 33.41873001 -25.81187153 31.75632668 C-25.87678998 14.85163473 -25.87678998 14.85163473 -19.59197712 7.3948288 C-18.78180134 6.73934052 -18.78180134 6.73934052 -17.95525837 6.07061005 C-17.42287556 5.62072723 -16.89049274 5.17084442 -16.34197712 4.7073288 C-10.8966046 1.23090453 -6.44757662 0.00814686 0 0 Z M54.73224163 56.38311005 C53.36128458 58.85699921 52.35931707 61.37026359 51.32257366 64.00078583 C46.54971657 75.93393932 46.54971657 75.93393932 41.16339397 78.70439911 C35.52332401 80.36817637 29.86516716 80.76272168 24.02130413 81.10894012 C19.59929781 81.63858103 17.32623661 83.70661576 14.48224163 86.94561005 C12.20110644 90.1229055 11.56006956 91.83664188 11.48224163 95.69561005 C11.45646038 96.45486786 11.43067913 97.21412567 11.40411663 97.9963913 C12.17864102 103.63013416 16.00170693 106.6585544 20.02691936 110.24248505 C28.35660593 117.76405993 28.35660593 117.76405993 29.46271038 122.53154755 C29.1756529 125.32557374 28.62972881 127.72654799 27.73224163 130.38311005 C25.60648438 141.22034348 25.60648438 141.22034348 28.79474163 151.38311005 C31.63301378 154.69974267 34.4881545 156.23217116 38.73224163 157.38311005 C46.37916219 157.08115054 51.65720256 154.09713489 58.19708538 150.35771942 C63.94092697 147.2607418 63.94092697 147.2607418 67.76349163 147.85186005 C68.74317913 148.35717255 69.72286663 148.86248505 70.73224163 149.38311005 C72.07330319 150.04343747 73.41445598 150.70357965 74.75567913 151.3635788 C76.94070727 152.46598882 79.11795792 153.57630549 81.27911663 154.72490692 C86.63594476 157.38881694 89.87418111 157.68700094 95.73224163 156.38311005 C99.79578676 154.72075068 101.97872638 152.37927107 104.00958538 148.4573288 C106.30534579 141.86787593 104.5963714 134.64171203 103.16974163 128.02373505 C103.02536663 127.1523288 102.88099163 126.28092255 102.73224163 125.38311005 C102.55950726 124.44209442 102.38677288 123.5010788 102.20880413 122.53154755 C103.0402203 117.53064135 106.47323453 115.08707276 110.10724163 111.75811005 C111.49436254 110.4580041 112.87734483 109.15346514 114.25567913 107.84404755 C114.87362347 107.27476532 115.4915678 106.70548309 116.12823772 106.11894989 C119.69534641 102.25865419 120.17849385 98.72014778 120.04474163 93.6292038 C119.38852571 88.91265187 116.76274602 86.25757592 113.25567913 83.28154755 C109.63744142 80.92401023 106.10758343 80.89259181 101.88849163 80.57476044 C89.80657425 79.51820163 89.80657425 79.51820163 85.83185101 75.42705536 C83.20971107 71.46086257 81.44600763 67.30529219 79.73224163 62.8870163 C77.68684149 57.65427255 74.800821 54.91739973 69.73224163 52.38311005 C63.83902163 51.88368462 59.32392086 52.19730306 54.73224163 56.38311005 Z M186.74005413 58.52373505 C185.02460641 60.96674619 184.25716182 62.48399609 183.36505413 65.2307663 C181.80745719 69.78275516 180.27001556 73.99755192 176.73224163 77.38311005 C171.35917797 79.74167284 165.63521894 80.15314159 159.84942913 80.67998505 C153.62384367 81.29465597 150.52255508 83.35722904 146.35724163 88.07061005 C144.31405591 92.23556556 143.69939975 95.8264547 144.73224163 100.38311005 C147.14887416 104.74010446 150.07868804 107.73142373 153.7590971 110.97466278 C161.39200775 117.79669408 161.39200775 117.79669408 162.39239788 122.46123505 C162.11340697 125.25878778 161.58123555 127.70722345 160.73224163 130.38311005 C159.39402127 137.66897644 157.97392653 145.41652915 162.34161663 151.90654755 C164.9842806 154.71252221 167.96942993 156.54692967 171.73224163 157.38311005 C179.36813286 157.14902881 184.67777689 154.08537077 191.19708538 150.35771942 C196.94979193 147.25596197 196.94979193 147.25596197 200.85724163 147.89092255 C201.80599163 148.38334442 202.75474163 148.8757663 203.73224163 149.38311005 C205.39899944 150.22035614 205.39899944 150.22035614 207.09942913 151.0745163 C208.25700726 151.69197723 209.41458538 152.30943817 210.60724163 152.94561005 C218.82187116 157.27425925 218.82187116 157.27425925 227.84942913 156.7776413 C232.18736698 154.95824978 235.06584545 152.68896227 237.11505413 148.4182663 C239.21858161 141.48195101 237.5037708 134.08363328 236.16974163 127.1448288 C235.08380608 120.28986066 235.08380608 120.28986066 237.07745647 117.50200653 C237.69314495 116.92523163 238.30883343 116.34845673 238.94317913 115.7542038 C239.61091351 115.11160614 240.27864788 114.46900848 240.96661663 113.80693817 C241.67302288 113.15144989 242.37942913 112.49596161 243.10724163 111.82061005 C244.49445691 110.51145762 245.87744241 109.19780528 247.25567913 107.8792038 C247.87362347 107.30355682 248.4915678 106.72790985 249.12823772 106.13481903 C252.68211458 102.25368259 253.17878877 98.73137317 253.04474163 93.6292038 C252.38852571 88.91265187 249.76274602 86.25757592 246.25567913 83.28154755 C242.63744142 80.92401023 239.10758343 80.89259181 234.88849163 80.57476044 C222.80657425 79.51820163 222.80657425 79.51820163 218.83185101 75.42705536 C216.20971107 71.46086257 214.44600763 67.30529219 212.73224163 62.8870163 C210.68684149 57.65427255 207.800821 54.91739973 202.73224163 52.38311005 C195.52977444 51.78290445 191.81684242 53.06867626 186.74005413 58.52373505 Z M319.74005413 58.52373505 C318.02460641 60.96674619 317.25716182 62.48399609 316.36505413 65.2307663 C314.80745719 69.78275516 313.27001556 73.99755192 309.73224163 77.38311005 C304.35917797 79.74167284 298.63521894 80.15314159 292.84942913 80.67998505 C286.62384367 81.29465597 283.52255508 83.35722904 279.35724163 88.07061005 C277.31405591 92.23556556 276.69939975 95.8264547 277.73224163 100.38311005 C280.14740932 104.74333978 283.06384654 107.70015047 286.7590971 110.92412567 C294.39949631 117.70166328 294.39949631 117.70166328 295.39239788 122.71904755 C295.11765303 125.76758634 294.58669105 128.4486373 293.73224163 131.38311005 C292.34469118 137.6031638 291.33558501 144.33719079 294.23224163 150.25811005 C296.77308063 154.03358208 300.2968529 156.39746811 304.73224163 157.38311005 C312.36813286 157.14902881 317.67777689 154.08537077 324.19708538 150.35771942 C329.94979193 147.25596197 329.94979193 147.25596197 333.85724163 147.89092255 C334.80599163 148.38334442 335.75474163 148.8757663 336.73224163 149.38311005 C338.39899944 150.22035614 338.39899944 150.22035614 340.09942913 151.0745163 C341.25700726 151.69197723 342.41458538 152.30943817 343.60724163 152.94561005 C351.82655448 157.2991303 351.82655448 157.2991303 360.84942913 156.74248505 C365.64539317 154.66950425 368.59817052 152.27368966 370.73224163 147.38311005 C371.59934613 140.52409116 370.47666463 133.84395633 369.16974163 127.10967255 C368.73165436 124.37945011 368.47101112 122.13818976 368.73224163 119.38311005 C370.18512249 117.39434052 370.18512249 117.39434052 372.19708538 115.50029755 C372.91444866 114.80807098 373.63181194 114.11584442 374.37091351 113.4026413 C375.12952679 112.69494598 375.88814007 111.98725067 376.66974163 111.25811005 C378.16228227 109.84331917 379.65076566 108.42423217 381.13458538 107.00029755 C381.79966106 106.37751923 382.46473675 105.75474091 383.14996624 105.11309052 C386.20682449 101.77087518 386.06323336 97.96601239 386.02130413 93.6682663 C385.57778663 90.16208068 383.95820898 88.05427087 381.73224163 85.38311005 C381.31458538 84.86619598 380.89692913 84.34928192 380.46661663 83.8167038 C378.05536362 81.82361854 375.84389442 81.46740003 372.79474163 80.82061005 C371.63329632 80.54861786 370.47185101 80.27662567 369.27521038 79.9963913 C365.81576197 79.27375368 365.81576197 79.27375368 362.59552288 79.4885788 C358.83663255 79.51314671 357.00931687 79.31338194 353.73224163 77.38311005 C350.79957636 73.25974587 348.67188762 68.72635218 346.64776897 64.10234833 C343.90736561 57.94046287 342.09981779 54.92143767 335.73224163 52.38311005 C328.98253313 50.76982295 324.25557302 53.67176573 319.74005413 58.52373505 Z " fill="#000000" transform="translate(57.2677583694458,32.61688995361328)"/>
<path d="M0 0 C10.64088752 8.37969892 17.00964261 20.23944509 19.0546875 33.58984375 C20.4139926 49.78546676 16.96811692 62.63896536 6.4921875 75.41796875 C4.86394917 77.30659337 3.21026212 79.15452057 1.5 80.96875 C2.716875 81.29875 3.93375 81.62875 5.1875 81.96875 C20.92903128 87.25711373 33.63830164 99.0252709 43.5 111.96875 C44.0775 112.67 44.655 113.37125 45.25 114.09375 C50.33542609 120.39967835 53.82118708 127.82299495 54.5 135.96875 C54.59474609 137.02255859 54.59474609 137.02255859 54.69140625 138.09765625 C55.18463606 148.0099843 52.69719454 157.00592101 46.125 164.53125 C37.66026454 173.03727686 29.07134292 176.26300204 17.1434021 176.38644409 C15.62427719 176.37969162 15.62427719 176.37969162 14.07446289 176.37280273 C12.43091576 176.38309761 12.43091576 176.38309761 10.75416565 176.39360046 C7.16019445 176.41178552 3.56666323 176.40804278 -0.02734375 176.40234375 C-2.54260905 176.40690936 -5.05787311 176.41221606 -7.57313538 176.41822815 C-12.83419752 176.42714288 -18.095147 176.4249909 -23.35620117 176.41479492 C-29.41163501 176.40331773 -35.46662572 176.41739418 -41.52200121 176.4441914 C-47.38037254 176.46913239 -53.23857316 176.47150738 -59.09698677 176.46507454 C-61.57476094 176.46492176 -64.05254382 176.47093027 -66.53028679 176.48336601 C-70.00221053 176.49833874 -73.4731735 176.48755187 -76.94506836 176.47045898 C-78.46115692 176.48496094 -78.46115692 176.48496094 -80.00787354 176.49975586 C-90.58765195 176.39136457 -99.65086235 173.13691224 -107.5 165.96875 C-115.04010904 158.08590873 -117.89500498 150.06670523 -117.77734375 139.3203125 C-116.30066836 121.4754183 -105.57562483 107.93903202 -92.72265625 96.49609375 C-84.11389253 89.65013438 -74.30413516 84.86003365 -64.5 79.96875 C-65.00789063 79.50726563 -65.51578125 79.04578125 -66.0390625 78.5703125 C-76.06036214 69.07447427 -81.77087987 57.7502307 -82.62939453 43.87792969 C-82.8475961 29.17183695 -78.39239781 15.72627603 -68.46875 4.71484375 C-50.04548953 -12.87402992 -20.73011224 -14.22182119 0 0 Z " fill="#000000" transform="translate(287.5,303.03125)"/>
<path d="M0 0 C0.61488281 0.43957031 1.22976563 0.87914062 1.86328125 1.33203125 C11.42724973 8.69056132 17.43294627 21.19583829 19 33 C20.16304816 49.6449351 16.05612952 63.01555564 5.125 75.625 C4.09121193 76.75724408 3.05254656 77.88517258 2 79 C2.95519531 79.4846875 3.91039062 79.969375 4.89453125 80.46875 C26.13459811 91.41010115 45.90195537 106.40104211 53.63671875 129.9375 C55.67892736 141.53197466 53.9346079 152.536129 47.3125 162.3125 C41.82537566 169.05737828 33.40901537 174.24647049 24.69036865 175.27155113 C22.12346962 175.36653895 19.57238549 175.37146177 17.00390625 175.34057617 C16.03713455 175.34101425 15.07036285 175.34145233 14.07429504 175.34190369 C10.90348568 175.33982662 7.73321612 175.3165466 4.5625 175.29296875 C2.35433236 175.28736895 0.14616099 175.28310067 -2.06201172 175.28010559 C-7.85543221 175.2686871 -13.64862473 175.23924562 -19.44195557 175.20599365 C-25.36101193 175.17522817 -31.28010536 175.16158642 -37.19921875 175.14648438 C-48.79957897 175.11437312 -60.39977048 175.06321299 -72 175 C-71.8595224 174.32475784 -71.7190448 173.64951569 -71.5743103 172.95381165 C-71.39171661 172.06195663 -71.20912292 171.17010162 -71.02099609 170.2512207 C-70.83926849 169.36972855 -70.65754089 168.48823639 -70.4703064 167.58003235 C-67.37371809 150.59260019 -72.83117063 136.11362765 -82 122 C-86.97671033 114.99137836 -92.8046902 108.93717189 -99 103 C-90.08923347 91.36649925 -77.99466018 85.05208158 -65 79 C-65.42410156 78.63390625 -65.84820312 78.2678125 -66.28515625 77.890625 C-75.92164615 68.99540355 -81.55378667 57.56310122 -82.3125 44.5078125 C-82.89223502 28.39278926 -78.89374878 15.38531879 -67.8125 3.25 C-60.57664379 -3.49913942 -51.59933556 -7.86681432 -42 -10 C-40.9275 -10.2475 -39.855 -10.495 -38.75 -10.75 C-24.27236555 -11.71517563 -11.56192075 -8.87830278 0 0 Z " fill="#000000" transform="translate(426,287)"/>
<path d="M0 0 C9.00949336 8.22693158 14.64409185 19.97524745 15.31640625 32.0625 C15.8220114 46.87251762 13.21475655 58.43631646 4.00390625 70.4140625 C2.05499221 72.4749691 0.04488121 74.44207825 -1.99609375 76.4140625 C-1.47813232 76.66986084 -0.9601709 76.92565918 -0.42651367 77.18920898 C11.94662657 83.35312271 23.4228426 89.21372201 32.00390625 100.4140625 C31.24207031 101.12949219 30.48023438 101.84492188 29.6953125 102.58203125 C18.76558118 113.04436105 10.63578632 124.21027004 5.00390625 138.4140625 C4.73707031 139.084375 4.47023438 139.7546875 4.1953125 140.4453125 C1.52640139 148.83857777 2.25365374 159.16396313 4.02050781 167.67626953 C4.20373596 168.56653839 4.38696411 169.45680725 4.57574463 170.37405396 C4.78768463 171.38385818 4.78768463 171.38385818 5.00390625 172.4140625 C-7.69674327 172.5302559 -20.39726494 172.61892973 -33.09833908 172.67312336 C-38.99690364 172.69914246 -44.89510275 172.73440001 -50.79345703 172.79125977 C-56.49285694 172.8458536 -62.19190681 172.87554077 -67.89154816 172.88844872 C-70.05873367 172.89763957 -72.22590148 172.91558659 -74.39293671 172.94271278 C-87.43917555 173.099427 -98.40975288 173.16853028 -109.37109375 165.1640625 C-118.49679826 155.60380063 -121.64545232 146.25951604 -121.34375 133.12890625 C-120.83620008 127.70553571 -119.38588603 123.2835452 -116.99609375 118.4140625 C-116.39474609 117.18816406 -116.39474609 117.18816406 -115.78125 115.9375 C-105.76241984 97.64224492 -87.45348269 85.09989259 -68.99609375 76.4140625 C-69.49238281 75.92679687 -69.98867187 75.43953125 -70.5 74.9375 C-81.68308763 63.26634592 -86.51154397 50.19781661 -86.2421875 34.2265625 C-85.377856 20.83628403 -79.84710036 8.62133997 -69.99609375 -0.5859375 C-48.66182444 -18.14263805 -21.31301316 -16.9336269 0 0 Z " fill="#000000" transform="translate(152.99609375,289.5859375)"/>
<path d="M0 0 C0.66 0 1.32 0 2 0 C2.28721924 0.59014893 2.57443848 1.18029785 2.87036133 1.78833008 C4.17807297 4.466201 5.49516366 7.13935156 6.8125 9.8125 C7.26431641 10.74126953 7.71613281 11.67003906 8.18164062 12.62695312 C8.84389648 13.9659668 8.84389648 13.9659668 9.51953125 15.33203125 C10.12438354 16.56530151 10.12438354 16.56530151 10.74145508 17.82348633 C12.6682989 21.15574873 13.83819444 22.68799682 17.63549805 23.70776367 C19.18297729 23.93556519 19.18297729 23.93556519 20.76171875 24.16796875 C21.87998047 24.33876953 22.99824219 24.50957031 24.15039062 24.68554688 C25.31763672 24.85119141 26.48488281 25.01683594 27.6875 25.1875 C28.86634766 25.36474609 30.04519531 25.54199219 31.25976562 25.72460938 C34.17172159 26.16081331 37.08489493 26.58545654 40 27 C38.89041597 30.3287521 38.07455496 31.01489699 35.4375 33.1875 C32.42832139 35.76214018 29.44531708 38.34619943 26.5625 41.0625 C25.90378906 41.67222656 25.24507813 42.28195313 24.56640625 42.91015625 C22.12553844 46.16667565 21.80605715 49.08217021 22.21264648 53.1027832 C22.569655 55.45571372 22.98949284 57.78773711 23.4375 60.125 C23.73076139 61.7104044 24.02122576 63.29632929 24.30859375 64.8828125 C24.44064209 65.57777832 24.57269043 66.27274414 24.70874023 66.98876953 C25 69 25 69 25 73 C19.21191492 71.29070612 14.17107468 68.57387701 8.921875 65.65820312 C5.74698567 63.98896265 3.64016714 62.99749282 0.0078125 63.01171875 C-3.9262789 64.30434878 -7.47297546 66.06219106 -11.125 68 C-12.52151166 68.73284832 -13.91989555 69.46214226 -15.3203125 70.1875 C-15.93148926 70.51105469 -16.54266602 70.83460938 -17.17236328 71.16796875 C-19.09219625 72.04197232 -20.9429255 72.55056469 -23 73 C-22.77954396 71.25561486 -22.55908661 69.51122989 -22.33862305 67.7668457 C-22.15400888 66.29303379 -21.97189376 64.81890677 -21.79223633 63.34448242 C-21.41563317 60.25674699 -21.02895393 57.18157551 -20.5390625 54.109375 C-19.78001313 49.15025246 -20.11671679 47.04734165 -23 43 C-24.91425445 40.84659602 -26.93968913 38.82553321 -29 36.8125 C-29.80050781 36.01295898 -29.80050781 36.01295898 -30.6171875 35.19726562 C-32.98035925 32.86054729 -35.22681638 30.84878908 -38 29 C-38 28.34 -38 27.68 -38 27 C-37.26362305 26.90501221 -36.52724609 26.81002441 -35.76855469 26.7121582 C-32.42560529 26.26806567 -29.08823381 25.79069924 -25.75 25.3125 C-24.01169922 25.08916992 -24.01169922 25.08916992 -22.23828125 24.86132812 C-20.56572266 24.61479492 -20.56572266 24.61479492 -18.859375 24.36328125 C-17.83295898 24.22188721 -16.80654297 24.08049316 -15.74902344 23.93481445 C-11.47902213 22.48278648 -9.90208337 19.56419605 -7.71972656 15.7800293 C-7.36362305 15.05211182 -7.00751953 14.32419434 -6.640625 13.57421875 C-6.24746094 12.77822266 -5.85429687 11.98222656 -5.44921875 11.16210938 C-5.05347656 10.34548828 -4.65773437 9.52886719 -4.25 8.6875 C-3.63318359 7.43356445 -3.63318359 7.43356445 -3.00390625 6.15429688 C-1.99706727 4.10549663 -0.99596665 2.05410152 0 0 Z " fill="#000000" transform="translate(255,101)"/>
<path d="M0 0 C0.66 0 1.32 0 2 0 C2.28721924 0.59014893 2.57443848 1.18029785 2.87036133 1.78833008 C4.17807297 4.466201 5.49516366 7.13935156 6.8125 9.8125 C7.26431641 10.74126953 7.71613281 11.67003906 8.18164062 12.62695312 C8.84389648 13.9659668 8.84389648 13.9659668 9.51953125 15.33203125 C10.12438354 16.56530151 10.12438354 16.56530151 10.74145508 17.82348633 C12.6682989 21.15574873 13.83819444 22.68799682 17.63549805 23.70776367 C19.18297729 23.93556519 19.18297729 23.93556519 20.76171875 24.16796875 C21.87998047 24.33876953 22.99824219 24.50957031 24.15039062 24.68554688 C25.31763672 24.85119141 26.48488281 25.01683594 27.6875 25.1875 C28.86634766 25.36474609 30.04519531 25.54199219 31.25976562 25.72460938 C34.17172159 26.16081331 37.08489493 26.58545654 40 27 C38.28646375 30.70416941 36.28967208 32.75391186 33.1875 35.4375 C32.29546875 36.22640625 31.4034375 37.0153125 30.484375 37.828125 C29.0833711 39.052902 27.67941242 40.27437676 26.265625 41.484375 C22.95523208 44.48320152 22.37472113 46.60462245 22 51 C22.29854057 53.89319372 22.85305612 56.71489044 23.4375 59.5625 C25.22135958 68.52853656 25.22135958 68.52853656 25 73 C19.21191492 71.29070612 14.17107468 68.57387701 8.921875 65.65820312 C5.79608581 64.0147777 3.64929468 63.00520825 0.078125 62.9765625 C-4.26335774 64.42005042 -8.20804997 66.43395696 -12.25 68.5625 C-13.85756295 69.40062024 -15.46685769 70.23542982 -17.078125 71.06640625 C-17.78356445 71.43709229 -18.48900391 71.80777832 -19.21582031 72.18969727 C-21 73 -21 73 -23 73 C-22.39180843 66.9180843 -21.4911474 60.98949852 -20.3046875 54.9921875 C-19.82145517 50.2465982 -19.59341505 46.78562688 -22.6796875 42.86767578 C-24.90691553 40.53814591 -27.20454051 38.3219743 -29.5625 36.125 C-31.14876567 34.60847423 -32.73349314 33.09033726 -34.31640625 31.5703125 C-35.02224854 30.90789551 -35.72809082 30.24547852 -36.45532227 29.56298828 C-38 28 -38 28 -38 27 C-37.25838623 26.88406494 -36.51677246 26.76812988 -35.75268555 26.64868164 C-32.39720196 26.12260449 -29.04235041 25.59259938 -25.6875 25.0625 C-24.52025391 24.88009766 -23.35300781 24.69769531 -22.15039062 24.50976562 C-21.03212891 24.33251953 -19.91386719 24.15527344 -18.76171875 23.97265625 C-17.73006592 23.81031494 -16.69841309 23.64797363 -15.63549805 23.48071289 C-12.90509209 23.04662212 -12.90509209 23.04662212 -10 22 C-9.27514244 20.02034701 -8.62286209 18.01407231 -8 16 C-6.71322384 13.16352802 -5.29377756 10.3973816 -3.875 7.625 C-3.50246094 6.88894531 -3.12992187 6.15289062 -2.74609375 5.39453125 C-1.8343878 3.59449642 -0.91770068 1.79698598 0 0 Z " fill="#000000" transform="translate(388,101)"/>
<path d="M0 0 C0.66 0 1.32 0 2 0 C3.67313323 3.28841876 5.33739607 6.58124682 7 9.875 C7.47695312 10.81214844 7.95390625 11.74929687 8.4453125 12.71484375 C8.89648438 13.61074219 9.34765625 14.50664063 9.8125 15.4296875 C10.23144531 16.25710449 10.65039062 17.08452148 11.08203125 17.93701172 C12 20 12 20 12 22 C21.31264707 24.12294386 30.52723774 25.77631491 40 27 C35.47557283 32.5026817 30.53480336 37.34592944 25.29296875 42.15625 C22.14870801 46.05577609 21.69881166 49.13182742 22.21899414 54.08544922 C22.56490826 56.30218426 22.98417436 58.49031742 23.4375 60.6875 C24.26012365 64.84372518 25 68.73758616 25 73 C21.5196529 71.97381341 18.34929933 70.72905195 15.16015625 69.01953125 C14.48919922 68.66052734 13.81824219 68.30152344 13.12695312 67.93164062 C11.74871873 67.18449937 10.37625732 66.42661092 9.00976562 65.65820312 C4.26352748 63.15084242 1.35720789 62.45419772 -4 64 C-7.03668088 65.35600658 -9.92000849 66.92434132 -12.8125 68.5625 C-14.31706789 69.40063207 -15.82349237 70.23544274 -17.33203125 71.06640625 C-17.98921143 71.43709229 -18.6463916 71.80777832 -19.32348633 72.18969727 C-21 73 -21 73 -23 73 C-22.87888997 71.64547989 -22.75268639 70.291416 -22.625 68.9375 C-22.53992188 68.03515625 -22.45484375 67.1328125 -22.3671875 66.203125 C-22.09765865 63.85191589 -21.75950324 61.50831121 -21.3828125 59.171875 C-21.27888184 58.51324463 -21.17495117 57.85461426 -21.06787109 57.17602539 C-20.76073509 55.25465614 -20.43537945 53.33622667 -20.109375 51.41796875 C-19.94442227 46.26319594 -21.93626431 44.17010926 -25.3046875 40.46484375 C-26.15289062 39.63082031 -27.00109375 38.79679687 -27.875 37.9375 C-28.71804687 37.10089844 -29.56109375 36.26429688 -30.4296875 35.40234375 C-32.97066108 32.95304737 -32.97066108 32.95304737 -35.8203125 30.81640625 C-36.53960937 30.21699219 -37.25890625 29.61757812 -38 29 C-38 28.34 -38 27.68 -38 27 C-37.26362305 26.90501221 -36.52724609 26.81002441 -35.76855469 26.7121582 C-32.42560529 26.26806567 -29.08823381 25.79069924 -25.75 25.3125 C-24.01169922 25.08916992 -24.01169922 25.08916992 -22.23828125 24.86132812 C-20.56572266 24.61479492 -20.56572266 24.61479492 -18.859375 24.36328125 C-17.83295898 24.22188721 -16.80654297 24.08049316 -15.74902344 23.93481445 C-11.47902213 22.48278648 -9.90208337 19.56419605 -7.71972656 15.7800293 C-7.36362305 15.05211182 -7.00751953 14.32419434 -6.640625 13.57421875 C-6.24746094 12.77822266 -5.85429688 11.98222656 -5.44921875 11.16210938 C-5.05347656 10.34548828 -4.65773437 9.52886719 -4.25 8.6875 C-3.63318359 7.43356445 -3.63318359 7.43356445 -3.00390625 6.15429688 C-1.99706727 4.10549663 -0.99596665 2.05410152 0 0 Z " fill="#000000" transform="translate(122,101)"/>
</svg>
