<?xml version="1.0" encoding="UTF-8"?>
<svg version="1.1" xmlns="http://www.w3.org/2000/svg" width="512" height="512">
<path d="M0 0 C0.82097168 0.19867676 1.64194336 0.39735352 2.48779297 0.60205078 C34.60374115 8.55213252 62.23491288 24.08731916 86 47 C86.82628906 47.763125 87.65257812 48.52625 88.50390625 49.3125 C118.08819205 77.42469453 137.04888712 120.54669941 138.2734375 161.26171875 C138.59596819 177.5190518 138.09672039 192.39661354 133 208 C132.78069824 208.71397949 132.56139648 209.42795898 132.33544922 210.16357422 C121.40890227 245.59505119 100.57901105 278.18760536 78.65625 307.75830078 C76.93459672 310.08852195 75.23148442 312.4314567 73.53125 314.77734375 C66.44767177 324.52131031 59.11125607 333.99393071 51.42822266 343.27197266 C49.39537731 345.73154178 47.38702377 348.21088815 45.375 350.6875 C40.79867335 356.27429294 36.13163148 361.78238792 31.45556641 367.28564453 C28.90377624 370.29112433 26.35855865 373.30216495 23.8125 376.3125 C22.88153832 377.41278403 21.95055142 378.51304671 21.01953125 379.61328125 C20.35308594 380.40089844 19.68664062 381.18851562 19 382 C25.80421167 383.05777642 32.61075614 384.09221981 39.42578125 385.078125 C111.32848362 395.65138591 111.32848362 395.65138591 127.375 417.1875 C130.69340028 422.9308851 130.67926053 428.51467924 130 435 C127.20138044 444.16690693 119.47606669 449.59438528 111.4140625 454.03125 C73.35502993 473.74385288 23.6760902 477.07663963 -18.546875 477.203125 C-20.00015797 477.21010357 -21.45344064 477.21714454 -22.90672302 477.22424316 C-27.52115257 477.24350806 -32.13553461 477.24841787 -36.75 477.25 C-37.53457706 477.25058914 -38.31915413 477.25117828 -39.12750626 477.25178528 C-62.21041103 477.2640297 -85.08040731 477.03796199 -108 474 C-109.79655029 473.77521973 -109.79655029 473.77521973 -111.62939453 473.54589844 C-185.25042838 464.20317799 -185.25042838 464.20317799 -202.51953125 442.05078125 C-206.49749248 435.94685726 -206.92949948 430.13978172 -206 423 C-204.8125 419.625 -204.8125 419.625 -203 417 C-202.34 416.030625 -201.68 415.06125 -201 414.0625 C-180.84841611 391.16025481 -136.35770128 387.63037368 -108.06713867 384.25537109 C-106.16798706 384.02841553 -106.16798706 384.02841553 -104.23046875 383.796875 C-103.10020264 383.66635742 -101.96993652 383.53583984 -100.80541992 383.40136719 C-97.92635878 383.07472052 -97.92635878 383.07472052 -95 382 C-95.54527344 381.40574219 -96.09054688 380.81148438 -96.65234375 380.19921875 C-101.46182116 374.91290426 -106.07488834 369.51889901 -110.56640625 363.9609375 C-112.75153195 361.30230944 -114.9839975 358.6995161 -117.24438477 356.10546875 C-123.34447043 349.09437629 -129.04286403 341.84202389 -134.640625 334.42578125 C-137.49292998 330.64924231 -140.40751265 326.92572208 -143.33740234 323.20922852 C-149.81233767 314.98070172 -155.92262697 306.58687637 -161.73828125 297.88085938 C-162.93733967 296.09340851 -164.15313319 294.31878484 -165.375 292.546875 C-173.47601944 280.7163107 -180.7687727 268.37524482 -188 256 C-188.42587402 255.27280762 -188.85174805 254.54561523 -189.29052734 253.79638672 C-198.7011384 237.53635986 -206.41893699 219.24547716 -211 201 C-211.38623535 199.51294556 -211.38623535 199.51294556 -211.78027344 197.99584961 C-213.9686425 188.8597325 -214.48242949 180.13974939 -214.375 170.8125 C-214.37034729 170.08977905 -214.36569458 169.36705811 -214.36090088 168.62243652 C-214.27491151 157.20065444 -213.68546361 146.13591703 -211 135 C-210.80664062 134.18241211 -210.61328125 133.36482422 -210.4140625 132.52246094 C-202.57016971 100.3842891 -186.87344879 72.72439555 -164 49 C-163.236875 48.17371094 -162.47375 47.34742188 -161.6875 46.49609375 C-138.76329075 22.37146138 -107.89034525 7.88673852 -76 0 C-75.24058105 -0.19352051 -74.48116211 -0.38704102 -73.69873047 -0.58642578 C-51.2722143 -6.02299962 -22.33720794 -5.61076787 0 0 Z M-149 58 C-149.74636719 58.67417969 -150.49273437 59.34835938 -151.26171875 60.04296875 C-178.25130285 85.71865829 -196.20399949 125.34583565 -197.23828125 162.52734375 C-197.44560458 176.26158865 -197.39446127 188.93006015 -193 202 C-192.61328125 203.21284668 -192.61328125 203.21284668 -192.21875 204.45019531 C-183.47509405 231.60208063 -169.18856944 256.6259778 -153 280 C-152.52401367 280.69464355 -152.04802734 281.38928711 -151.55761719 282.10498047 C-138.9703904 300.46231519 -125.55013244 318.1366231 -111.39160156 335.30859375 C-109.39381881 337.73677601 -107.41818576 340.18286415 -105.4375 342.625 C-97.85636479 351.87537599 -90.04104096 360.92458635 -82.00390625 369.78125 C-80.18688018 371.79308393 -78.40055608 373.82660434 -76.625 375.875 C-72.33662727 380.79430573 -67.90993325 385.58608078 -63.48681641 390.38378906 C-61.99091467 392.009876 -60.50081201 393.64111551 -59.01171875 395.2734375 C-52.51960829 402.37276918 -45.86359002 409.25800901 -39 416 C-35.87675456 414.61370756 -33.75809293 413.00488429 -31.35546875 410.5859375 C-30.67806641 409.90660156 -30.00066406 409.22726562 -29.30273438 408.52734375 C-28.60470703 407.81707031 -27.90667969 407.10679687 -27.1875 406.375 C-26.50107422 405.68792969 -25.81464844 405.00085938 -25.10742188 404.29296875 C-21.16224252 400.31419752 -17.40014897 396.22765126 -13.73950195 391.98681641 C-10.14647389 387.882948 -6.35599309 383.95931642 -2.60546875 380 C1.70894808 375.42653951 5.89337977 370.76071843 10 366 C10.49371094 365.42846191 10.98742187 364.85692383 11.49609375 364.26806641 C14.4951521 360.78730998 17.47878094 357.29330627 20.46240234 353.79931641 C21.45379386 352.6391774 22.44622904 351.47992905 23.43994141 350.32177734 C29.99575303 342.68061213 36.32026104 334.89252001 42.49169922 326.93798828 C44.1027558 324.86797094 45.72451395 322.8066458 47.34765625 320.74609375 C59.22764569 305.62881962 70.58340011 290.16567324 81 274 C81.48404297 273.25508301 81.96808594 272.51016602 82.46679688 271.74267578 C95.76747767 251.17526112 108.2439478 229.32522137 116 206 C116.40001221 204.80093018 116.40001221 204.80093018 116.80810547 203.57763672 C123.46389414 182.66241322 123.08768572 159.25711209 118 138 C117.83371094 137.27345215 117.66742188 136.5469043 117.49609375 135.79833984 C114.71265764 123.89399597 110.35846802 112.96745497 105 102 C104.4328125 100.83597656 103.865625 99.67195313 103.28125 98.47265625 C96.12912671 84.55637863 86.41455298 72.58841341 76 61 C75.39800781 60.32453125 74.79601562 59.6490625 74.17578125 58.953125 C47.36910446 30.59341656 6.26169035 14.64926169 -32.17431641 13.09179688 C-76.4079151 11.94021883 -116.49077763 28.38731313 -149 58 Z M-89.83032227 399.21826172 C-140.57682301 402.98193567 -140.57682301 402.98193567 -186 424 C-186.59167969 424.42925781 -187.18335938 424.85851562 -187.79296875 425.30078125 C-189.29150442 427.05659283 -189.29150442 427.05659283 -188.9609375 429.97265625 C-187.33731758 435.08771902 -183.4538776 436.72095243 -178.85351562 439.10449219 C-111.50020199 471.64558207 -13.52616759 466.06507948 91.71679688 443.79858398 C98.77913863 441.24179239 106.5798884 438.32196069 112 433 C113.09319749 430.02621119 113.09319749 430.02621119 113 427 C105.93106008 415.20933574 83.14501733 411.09473309 71 408 C55.74033634 404.454849 40.23818947 401.97975498 24.66357422 400.3359375 C22.05401665 400.00681273 19.5178358 399.52487497 16.94140625 399 C11.05838897 397.97853232 5.89110665 397.1515384 0.64550781 400.50537109 C-4.89838843 405.07856855 -9.45763191 410.46092308 -14 416 C-18.11671138 420.81425459 -22.32696346 425.46451041 -26.8125 429.9375 C-27.28880859 430.41767578 -27.76511719 430.89785156 -28.25585938 431.39257812 C-31.50273283 434.63031833 -33.01453611 435.86407395 -37.625 436.5 C-43.38781614 436.37606847 -46.1573848 432.93520834 -50 429 C-50.97334733 428.04622083 -51.94874124 427.09452734 -52.92578125 426.14453125 C-57.30997324 421.85388337 -61.62832019 417.5330689 -65.625 412.875 C-66.74714258 411.58085016 -67.87239969 410.28939727 -69 409 C-69.77988281 408.10539062 -70.55976563 407.21078125 -71.36328125 406.2890625 C-72.21277344 405.36867188 -73.06226563 404.44828125 -73.9375 403.5 C-74.70964844 402.6440625 -75.48179687 401.788125 -76.27734375 400.90625 C-80.67643901 397.82625217 -84.74890891 398.82640598 -89.83032227 399.21826172 Z " fill="#000000" transform="translate(294,19)"/>
<path d="M0 0 C2.45706801 2.17604323 4.84424037 4.40614053 7.21484375 6.67578125 C7.96121094 7.35898438 8.70757812 8.0421875 9.4765625 8.74609375 C16.09721333 15.00855929 21.19447711 22.11926387 26.21484375 29.67578125 C26.84390625 30.6090625 27.47296875 31.54234375 28.12109375 32.50390625 C45.44644484 60.0669648 50.18505229 96.48210862 43.05175781 128.05761719 C41.08205107 135.84676104 38.44501945 143.32536995 35.21484375 150.67578125 C34.78993652 151.65708008 34.78993652 151.65708008 34.35644531 152.65820312 C24.40015965 175.21111541 7.22390163 194.79236408 -13.78515625 207.67578125 C-14.75710938 208.29710937 -15.7290625 208.9184375 -16.73046875 209.55859375 C-44.32937994 226.55952304 -80.62079217 231.64237737 -112.15942383 224.51416016 C-134.77768013 218.81799624 -154.95203199 207.81310069 -171.78515625 191.67578125 C-172.66816406 190.86753906 -173.55117187 190.05929687 -174.4609375 189.2265625 C-191.2663869 173.3243763 -201.54202084 152.72169495 -207.78515625 130.67578125 C-208.12675781 129.49757812 -208.46835938 128.319375 -208.8203125 127.10546875 C-215.0245213 100.84579428 -211.55294972 71.17838361 -200.78515625 46.67578125 C-200.50188477 46.02158203 -200.21861328 45.36738281 -199.92675781 44.69335938 C-186.64088414 14.59828641 -161.06359339 -9.10840464 -130.58886719 -21.1953125 C-125.39021742 -23.15468202 -120.12915274 -24.81086375 -114.78515625 -26.32421875 C-113.60695313 -26.66582031 -112.42875 -27.00742188 -111.21484375 -27.359375 C-72.3502947 -36.54165857 -30.29721751 -25.28309175 0 0 Z M-163.78515625 21.67578125 C-164.52121094 22.40152344 -165.25726563 23.12726563 -166.015625 23.875 C-181.322524 39.91516362 -191.03829839 62.82577556 -193.78515625 84.67578125 C-193.91921875 85.68125 -194.05328125 86.68671875 -194.19140625 87.72265625 C-197.11599391 116.0379822 -188.73965771 144.76996238 -171.11035156 167.046875 C-151.70808197 190.89579592 -125.00672138 206.48047338 -94.32421875 210.08203125 C-63.47249945 212.79156348 -35.10969433 203.48114354 -11.03515625 184.17578125 C-9.27431778 182.68851938 -7.52314113 181.18968632 -5.78515625 179.67578125 C-5.1715625 179.14726562 -4.55796875 178.61875 -3.92578125 178.07421875 C10.37272514 164.79703424 20.03680246 146.250043 25.21484375 127.67578125 C25.53453125 126.58910156 25.85421875 125.50242188 26.18359375 124.3828125 C30.4270574 107.31072956 30.31641126 86.53396861 25.21484375 69.67578125 C25.01084961 69.00047363 24.80685547 68.32516602 24.59667969 67.62939453 C15.50500263 38.24355915 -3.78817783 14.45912105 -30.78515625 -0.32421875 C-75.39192963 -23.77152405 -128.81051624 -13.80372545 -163.78515625 21.67578125 Z " fill="#000000" transform="translate(338.78515625,93.32421875)"/>
<path d="M0 0 C1.0094165 -0.0112793 2.01883301 -0.02255859 3.05883789 -0.03417969 C4.16026123 -0.02608276 5.26168457 -0.01798584 6.39648438 -0.00964355 C7.56107178 -0.01665283 8.72565918 -0.02366211 9.92553711 -0.03088379 C13.78067771 -0.04850975 17.63508612 -0.03682384 21.49023438 -0.02331543 C24.1653739 -0.026009 26.84049107 -0.02988396 29.515625 -0.03491211 C35.12442987 -0.0421874 40.733024 -0.03260414 46.34179688 -0.0135498 C52.82441344 0.008219 59.30652679 0.00116752 65.78913116 -0.02085543 C71.35700027 -0.03901302 76.92471797 -0.04156609 82.49260712 -0.03110075 C85.81719107 -0.02486765 89.14148689 -0.02559741 92.46606445 -0.0372467 C96.17238595 -0.04738291 99.87773545 -0.03195028 103.58398438 -0.00964355 C104.68540771 -0.01774048 105.78683105 -0.0258374 106.92163086 -0.03417969 C108.43575562 -0.01726074 108.43575562 -0.01726074 109.98046875 0 C110.85650757 0.0015081 111.73254639 0.0030162 112.63513184 0.00457001 C115.77655065 0.67599678 116.96674629 2.07028114 118.99023438 4.50793457 C130.88667888 29.17792177 128.07345388 59.59799141 127.77270508 86.07739258 C127.728916 90.95658239 127.7308459 95.83533381 127.73325729 100.71468639 C127.73217273 105.42872276 127.7103017 110.14246896 127.68125153 114.85640907 C127.66855329 117.09990573 127.66064658 119.34343493 127.6576767 121.58696556 C127.64902896 124.69425928 127.61410376 127.80011833 127.57128906 130.90710449 C127.57310181 131.82584854 127.57491455 132.74459259 127.57678223 133.69117737 C127.55972229 134.53536224 127.54266235 135.37954712 127.52508545 136.24931335 C127.51838207 136.97966891 127.5116787 137.71002447 127.50477219 138.46251202 C126.75053225 141.46081328 125.42770452 142.65107051 122.99023438 144.50793457 C120.38525391 145.01129913 120.38525391 145.01129913 117.37304688 145.01586914 C115.65698242 145.03278809 115.65698242 145.03278809 113.90625 145.05004883 C112.65521484 145.0419519 111.40417969 145.03385498 110.11523438 145.0255127 C108.78124223 145.03093425 107.44725607 145.03805711 106.11328125 145.04675293 C102.4933809 145.0649857 98.87393663 145.05791931 95.25402832 145.04523659 C91.46556368 145.03510852 87.67713805 145.04450172 83.88867188 145.05078125 C77.52662139 145.05805825 71.16475666 145.0484687 64.80273438 145.02941895 C57.447633 145.00764993 50.09297514 145.01470128 42.73788452 145.03672457 C36.4226807 145.05487719 30.10761039 145.05743762 23.79238892 145.04696989 C20.02069835 145.04073413 16.24921624 145.03990139 12.47753906 145.05311584 C8.93151085 145.06467192 5.38605435 145.05665401 1.84008789 145.03353882 C-0.0818605 145.02572771 -2.00385724 145.03760979 -3.92578125 145.05004883 C-5.06982422 145.03876953 -6.21386719 145.02749023 -7.39257812 145.01586914 C-8.38660645 145.01436104 -9.38063477 145.01285294 -10.40478516 145.01129913 C-13.77998688 144.35910348 -14.95978538 143.2306152 -17.00976562 140.50793457 C-17.52430344 138.46251202 -17.52430344 138.46251202 -17.5446167 136.24931335 C-17.56167664 135.40512848 -17.57873657 134.5609436 -17.59631348 133.69117737 C-17.59450073 132.77243332 -17.59268799 131.85368927 -17.59082031 130.90710449 C-17.60425476 129.93219055 -17.61768921 128.95727661 -17.63153076 127.95281982 C-17.66964071 124.71447463 -17.67735357 121.47695929 -17.68164062 118.23840332 C-17.69451234 115.96425549 -17.70797022 113.69011092 -17.72198486 111.41596985 C-17.7459859 106.62664159 -17.75334349 101.83760195 -17.75097656 97.04821777 C-17.7506547 92.194085 -17.77787894 87.34148761 -17.83300781 82.4876709 C-18.57753952 16.03403006 -18.57753952 16.03403006 -7.24934006 2.387187 C-4.57991029 0.14723806 -3.43603142 0.00591513 0 0 Z M5.99023438 16.50793457 C2.84116318 25.06072097 2.84116318 25.06072097 1.99023438 32.50793457 C11.56023437 32.50793457 21.13023437 32.50793457 30.99023438 32.50793457 C30.99023438 27.22793457 30.99023438 21.94793457 30.99023438 16.50793457 C22.74023438 16.50793457 14.49023438 16.50793457 5.99023438 16.50793457 Z M46.99023438 16.50793457 C46.99023438 21.78793457 46.99023438 27.06793457 46.99023438 32.50793457 C52.27023438 32.50793457 57.55023438 32.50793457 62.99023438 32.50793457 C62.99023438 27.22793457 62.99023438 21.94793457 62.99023438 16.50793457 C57.71023438 16.50793457 52.43023437 16.50793457 46.99023438 16.50793457 Z M78.99023438 16.50793457 C78.99023438 21.78793457 78.99023438 27.06793457 78.99023438 32.50793457 C88.56023437 32.50793457 98.13023437 32.50793457 107.99023438 32.50793457 C106.52172545 22.35499846 106.52172545 22.35499846 103.99023438 16.50793457 C95.74023438 16.50793457 87.49023438 16.50793457 78.99023438 16.50793457 Z M-1.00976562 48.50793457 C-1.00976562 74.90793457 -1.00976562 101.30793457 -1.00976562 128.50793457 C35.95023438 128.50793457 72.91023438 128.50793457 110.99023438 128.50793457 C110.99023438 102.10793457 110.99023438 75.70793457 110.99023438 48.50793457 C100.43023437 48.50793457 89.87023437 48.50793457 78.99023438 48.50793457 C78.78032132 57.58732779 78.78032132 57.58732779 78.60229492 66.6673584 C78.55262573 68.36154907 78.55262573 68.36154907 78.50195312 70.08996582 C78.47576904 71.24730225 78.44958496 72.40463867 78.42260742 73.5970459 C77.9381313 76.85871098 77.52075642 77.53394651 74.99023438 79.50793457 C71.94160913 79.80641451 69.10163342 79.92815302 66.05273438 79.90637207 C65.17625244 79.90924225 64.29977051 79.91211243 63.39672852 79.91506958 C61.5441015 79.91711055 59.69145295 79.91157835 57.83886719 79.89904785 C55.00081259 79.88299441 52.16418211 79.89889512 49.32617188 79.91809082 C47.52668956 79.91610839 45.72720813 79.91226473 43.92773438 79.90637207 C43.07767822 79.91244476 42.22762207 79.91851746 41.35180664 79.92477417 C35.43389015 79.85401778 35.43389015 79.85401778 33.26945496 78.16560364 C31.28836606 75.59842341 31.55085591 73.28740656 31.47851562 70.08996582 C31.44540283 68.96050537 31.41229004 67.83104492 31.37817383 66.6673584 C31.35327881 65.23287354 31.32838379 63.79838867 31.30273438 62.32043457 C31.19960937 57.76230957 31.09648437 53.20418457 30.99023438 48.50793457 C20.43023437 48.50793457 9.87023437 48.50793457 -1.00976562 48.50793457 Z M46.99023438 48.50793457 C46.99023438 53.78793457 46.99023438 59.06793457 46.99023438 64.50793457 C52.27023438 64.50793457 57.55023438 64.50793457 62.99023438 64.50793457 C62.99023438 59.22793457 62.99023438 53.94793457 62.99023438 48.50793457 C57.71023438 48.50793457 52.43023437 48.50793457 46.99023438 48.50793457 Z " fill="#000000" transform="translate(201.009765625,119.4920654296875)"/>
<path d="M0 0 C1.04269043 -0.00574036 1.04269043 -0.00574036 2.10644531 -0.01159668 C3.57228041 -0.0143118 5.03816428 -0.00697835 6.50390625 0.00976562 C8.74328975 0.03118581 10.97946587 0.00995557 13.21875 -0.015625 C14.64584039 -0.01298165 16.07292879 -0.0078565 17.5 0 C19.44132812 0.00676758 19.44132812 0.00676758 21.421875 0.01367188 C25.25919979 0.61043894 26.44070951 1.47408051 28.75 4.53125 C29.28125 6.53125 29.28125 6.53125 29.25 8.53125 C29.2603125 9.19125 29.270625 9.85125 29.28125 10.53125 C28.48927074 13.51281897 27.16446325 14.62735121 24.75 16.53125 C21.421875 17.04882812 21.421875 17.04882812 17.5 17.0625 C16.80487305 17.0663269 16.10974609 17.07015381 15.39355469 17.07409668 C13.92771959 17.0768118 12.46183572 17.06947835 10.99609375 17.05273438 C8.75671025 17.03131419 6.52053413 17.05254443 4.28125 17.078125 C2.85415961 17.07548165 1.42707121 17.0703565 0 17.0625 C-1.29421875 17.05798828 -2.5884375 17.05347656 -3.921875 17.04882812 C-7.75919979 16.45206106 -8.94070951 15.58841949 -11.25 12.53125 C-11.78125 10.53125 -11.78125 10.53125 -11.75 8.53125 C-11.76546875 7.54125 -11.76546875 7.54125 -11.78125 6.53125 C-10.16044839 0.42940865 -5.57509951 0.01943511 0 0 Z " fill="#000000" transform="translate(275.25,223.46875)"/>
</svg>
