<?xml version="1.0" encoding="UTF-8"?>
<svg version="1.1" xmlns="http://www.w3.org/2000/svg" width="512" height="512">
<path d="M0 0 C1.19983017 -0.01283524 2.39966034 -0.02567047 3.635849 -0.03889465 C4.94397049 -0.04628159 6.25209198 -0.05366852 7.59985352 -0.0612793 C8.26935595 -0.06535482 8.93885838 -0.06943035 9.62864876 -0.07362938 C13.19074316 -0.09453366 16.75279887 -0.1088013 20.31494141 -0.11816406 C23.22726996 -0.12692887 26.13910643 -0.14756502 29.05126953 -0.1796875 C66.44640262 -0.58323294 98.63125147 7.16117848 126.27954102 34.01293945 C138.63098378 46.62943463 146.46348845 61.08001383 153.29125977 77.17700195 C156.3279246 74.29554443 158.75756389 71.28407622 161.16625977 67.86450195 C175.00036398 48.64479628 194.7870264 34.57106425 217.16625977 26.86450195 C217.82400391 26.63408203 218.48174805 26.40366211 219.15942383 26.16625977 C236.35344113 20.61953983 253.62995739 20.67649752 271.51727295 20.737854 C274.23952912 20.74007049 276.96133634 20.7162354 279.68347549 20.69303989 C282.95378426 20.67030183 286.22401548 20.67713761 289.49438477 20.6809082 C290.70580139 20.66967422 291.91721802 20.65844025 293.16534424 20.64686584 C294.29132019 20.6562468 295.41729614 20.66562775 296.57739258 20.67529297 C298.05601776 20.67554222 298.05601776 20.67554222 299.56451416 20.67579651 C303.05248262 21.31692298 304.73433515 22.77285001 307.29125977 25.17700195 C309.22532768 28.09887283 309.54716239 30.38224136 309.55688477 33.8527832 C309.56107422 34.75569092 309.56526367 35.65859863 309.56958008 36.58886719 C309.55556152 38.0246814 309.55556152 38.0246814 309.54125977 39.48950195 C309.53449219 40.47700439 309.52772461 41.46450684 309.52075195 42.48193359 C309.0695173 74.71635348 296.81415768 103.98477358 274.60375977 127.30200195 C258.78681059 142.50302632 239.59210915 153.01735707 218.29125977 158.17700195 C217.50219238 158.37422852 216.713125 158.57145508 215.90014648 158.7746582 C204.80424101 161.08198909 193.31241105 160.39136187 182.04125977 160.30200195 C179.8316284 160.29195375 177.62199262 160.28283115 175.41235352 160.2746582 C170.03855815 160.25278673 164.66492991 160.21945454 159.29125977 160.17700195 C159.05024726 168.8706521 158.89718819 177.56028334 158.85341644 186.25717735 C158.8303825 190.29694724 158.77817709 194.33176119 158.65698242 198.36987305 C157.4013977 215.07648885 157.4013977 215.07648885 161.79483032 230.55505371 C165.43753414 234.10241573 169.59012502 235.92046055 174.37017822 237.4956665 C176.94024507 238.40717266 178.9440072 239.79627838 181.11547852 241.42700195 C181.76436035 241.88486084 182.41324219 242.34271973 183.08178711 242.81445312 C183.70778809 243.26409424 184.33378906 243.71373535 184.97875977 244.17700195 C185.67952637 244.67627197 186.38029297 245.17554199 187.10229492 245.68994141 C193.62292815 250.36269098 200.00138473 255.19786103 206.29125977 260.17700195 C207.22325195 260.9143457 208.15524414 261.65168945 209.11547852 262.41137695 C216.11380334 268.04198352 222.79299717 273.98086086 229.29125977 280.17700195 C229.97671875 280.82846191 230.66217773 281.47992188 231.3684082 282.15112305 C243.91644199 294.15729741 254.67411428 306.72407854 264.29125977 321.17700195 C264.87040131 320.58897797 265.44954285 320.00095398 266.04623413 319.39511108 C271.5367265 313.82408674 277.03707928 308.2630229 282.5484066 302.71260643 C285.38071814 299.85952242 288.20923043 297.00288372 291.02905273 294.13745117 C293.75634135 291.36633316 296.49361419 288.60543292 299.23775101 285.85100174 C300.2769435 284.80448389 301.31264199 283.75448313 302.3445549 282.70078659 C312.56227036 272.2762693 322.85554987 264.27777559 337.83447266 263.82543945 C351.27963681 263.69382573 360.75514287 266.51717772 370.97875977 275.55200195 C371.74188477 276.41825195 372.50500977 277.28450195 373.29125977 278.17700195 C374.02989258 279.00264648 374.02989258 279.00264648 374.78344727 279.8449707 C382.86388784 289.59376095 384.42448409 300.95953121 383.51879883 313.22045898 C381.79077151 328.07926895 370.4804061 338.43441104 360.45556641 348.43261719 C359.14838267 349.74715138 357.84181984 351.06230325 356.53582764 352.37802124 C353.00320682 355.9327705 349.46109125 359.47790842 345.91644216 363.02065921 C342.94721155 365.98976965 339.98234494 368.96321982 337.01733488 371.936544 C330.01338261 378.95970144 323.0013196 385.97468863 315.984375 392.98486328 C308.77412866 400.18848013 301.57873346 407.40669148 294.39039141 414.6321606 C288.19530732 420.85806396 281.99046673 427.07412882 275.77801412 433.28270108 C272.07804955 436.98060974 268.38185596 440.68208986 264.69526863 444.39333916 C261.22210124 447.888972 257.73678794 451.37204597 254.24230957 454.8463707 C252.97194381 456.11336052 251.70570384 457.38450504 250.44427299 458.66039085 C232.81474184 476.47769713 210.43906466 490.43844872 184.60128975 491.30004978 C183.19905297 491.30421491 181.7967932 491.30294585 180.39456177 491.29725647 C179.61764382 491.29811089 178.84072588 491.29896532 178.04026496 491.29984564 C175.44698558 491.3014877 172.85377143 491.29599998 170.26049805 491.29052734 C168.39756776 491.29024517 166.53463737 491.29040379 164.67170715 491.29096985 C159.6205609 491.29125665 154.56943841 491.28537883 149.51829767 491.27839589 C144.23720578 491.27214287 138.95611333 491.27155701 133.67501831 491.27037048 C123.67728531 491.26726292 113.67956324 491.25905727 103.68183506 491.24902099 C92.29860079 491.23784202 80.91536601 491.23234491 69.53212762 491.22732556 C46.11849894 491.21687419 22.70487996 491.19928586 -0.70874023 491.17700195 C-0.66233398 492.20180664 -0.61592773 493.22661133 -0.56811523 494.2824707 C-0.53058012 495.64311851 -0.49418183 497.00379801 -0.45874023 498.36450195 C-0.42522461 499.03803711 -0.39170898 499.71157227 -0.35717773 500.40551758 C-0.28572595 504.0674217 -0.59339846 505.99850817 -2.59936523 509.1027832 C-5.61553518 512.06868365 -7.20823906 512.30343244 -11.31941223 512.32417297 C-12.29097763 512.33132828 -13.26254303 512.33848358 -14.2635498 512.34585571 C-15.86800964 512.34988907 -15.86800964 512.34988907 -17.50488281 512.35400391 C-19.19039497 512.3638607 -19.19039497 512.3638607 -20.90995789 512.37391663 C-24.64106303 512.3936823 -28.37212789 512.40531894 -32.10327148 512.4152832 C-33.37497381 512.41935873 -34.64667614 512.42343426 -35.9569149 512.42763329 C-41.99199778 512.44635297 -48.02705614 512.46091621 -54.06216031 512.46924525 C-61.02782602 512.47901734 -67.99317393 512.50533553 -74.95872766 512.54574615 C-80.99220868 512.57954764 -87.02553543 512.59139046 -93.05911827 512.59544945 C-95.62559859 512.60032983 -98.19207516 512.61198476 -100.75849342 512.63048744 C-104.34739299 512.65475523 -107.93545809 512.65393609 -111.52441406 512.64697266 C-112.58798126 512.65978271 -113.65154846 512.67259277 -114.74734497 512.68579102 C-121.95486907 512.6347232 -121.95486907 512.6347232 -125.84526062 510.27262878 C-129.14107365 506.56623234 -128.85942078 503.46628511 -128.86264038 498.71903992 C-128.86702263 497.9409004 -128.87140489 497.16276087 -128.87591994 496.36104137 C-128.88933273 493.73938977 -128.89549232 491.11777181 -128.90161133 488.49609375 C-128.90951028 486.62216031 -128.9177791 484.74822839 -128.9263916 482.8742981 C-128.95263344 476.70828712 -128.96792038 470.54226928 -128.98217773 464.3762207 C-128.98753633 462.25587268 -128.99291384 460.1355247 -128.99831009 458.01517677 C-129.01994107 449.19741626 -129.03867915 440.37965759 -129.04993248 431.56187725 C-129.06618049 418.91242846 -129.09937653 406.26328642 -129.15633333 393.61395329 C-129.1949915 384.72643483 -129.21456022 375.83899855 -129.21985304 366.95139819 C-129.22351187 361.63977385 -129.23558962 356.32847653 -129.26795578 351.01694298 C-129.29796418 346.02068665 -129.30437409 341.02495644 -129.29257202 336.0286293 C-129.29235069 334.19400512 -129.3007051 332.35935704 -129.31822586 330.52481651 C-129.34083665 328.02121186 -129.33266159 325.51952809 -129.31674194 323.01591492 C-129.33062403 322.28867224 -129.34450612 321.56142956 -129.35880888 320.81214923 C-129.29742269 316.89826248 -128.82048445 315.31256913 -126.29574013 312.24956989 C-122.92675786 309.5505189 -121.3989231 309.05152233 -117.1807251 309.02983093 C-116.22743317 309.02267563 -115.27414124 309.01552032 -114.29196167 309.00814819 C-113.2425943 309.00545929 -112.19322693 309.00277039 -111.11206055 309 C-109.45821854 308.9901432 -109.45821854 308.9901432 -107.77096558 308.98008728 C-104.10959817 308.96032067 -100.44827183 308.94868413 -96.78686523 308.9387207 C-95.53847618 308.93464518 -94.29008713 308.93056965 -93.0038681 308.92637062 C-87.07824421 308.9076497 -81.15263342 308.89308739 -75.22698712 308.88475865 C-68.3909397 308.87499139 -61.55521654 308.84868655 -54.71928334 308.80825776 C-48.79582068 308.77443025 -42.87243723 308.76261119 -36.94887543 308.75855446 C-34.43066967 308.75367781 -31.91246765 308.74203338 -29.39432526 308.72351646 C-25.87028603 308.69921387 -22.34709512 308.70007434 -18.82299805 308.70703125 C-17.7817276 308.69422119 -16.74045715 308.68141113 -15.66763306 308.66821289 C-9.7141889 308.71107093 -6.22948538 309.17600558 -1.70874023 313.17700195 C-0.47813603 315.63821037 -0.50296793 317.43477061 -0.39233398 320.18481445 C-0.32949219 321.66401367 -0.32949219 321.66401367 -0.26538086 323.1730957 C-0.22606445 324.20563477 -0.18674805 325.23817383 -0.14624023 326.30200195 C-0.10305664 327.34227539 -0.05987305 328.38254883 -0.01538086 329.4543457 C0.09088856 332.02842724 0.19292559 334.60260704 0.29125977 337.17700195 C1.20004883 336.72969727 2.10883789 336.28239258 3.04516602 335.8215332 C4.31397978 335.20936678 5.58357432 334.59881716 6.85375977 333.98950195 C7.86345825 333.49933594 7.86345825 333.49933594 8.89355469 332.99926758 C12.31434533 331.38686469 15.59196499 330.00865204 19.27563477 329.1262207 C27.27977915 327.1415196 31.37135838 324.94984812 35.66625977 318.05200195 C36.8562766 316.05825268 38.02134635 314.05266215 39.17358398 312.03686523 C48.70292777 296.17960421 65.18737249 280.79884535 79.50219727 269.4074707 C82.33951555 267.13841084 85.0930634 264.78842405 87.85375977 262.42700195 C127.74346565 229.17700195 127.74346565 229.17700195 137.29125977 229.17700195 C137.29125977 199.47700195 137.29125977 169.77700195 137.29125977 139.17700195 C122.77125977 139.17700195 108.25125977 139.17700195 93.29125977 139.17700195 C58.57836685 133.05119732 29.39715866 118.39419722 8.58325195 89.1171875 C-5.60128377 68.50243613 -12.05583728 45.17078751 -12.08374023 20.23950195 C-12.10823242 19.0606543 -12.13272461 17.88180664 -12.15795898 16.66723633 C-12.17969154 10.25975383 -12.19092426 5.96744027 -7.70874023 1.17700195 C-5.04329118 -0.15572257 -2.98509445 0.02778968 0 0 Z M10.29125977 22.17700195 C11.49936137 44.33333332 16.87106214 63.76858848 31.29125977 81.17700195 C31.98993164 82.02649414 32.68860352 82.87598633 33.40844727 83.7512207 C49.87228347 102.88090939 73.13231098 114.93165725 98.29125977 117.17700195 C103.96236839 117.4500724 109.61903636 117.36867909 115.29125977 117.17700195 C111.78359995 113.53966895 108.10843257 110.32532612 104.10375977 107.23950195 C103.20125488 106.53724487 103.20125488 106.53724487 102.28051758 105.82080078 C100.97421352 104.80491552 99.66671531 103.79056431 98.3581543 102.77758789 C96.23795001 101.13571932 94.12157492 99.48902573 92.00610352 97.84106445 C87.437283 94.28277733 82.86455228 90.72953864 78.29125977 87.17700195 C73.720219 83.62621442 69.1498449 80.07460643 64.58422852 76.5168457 C61.78138235 74.33306405 58.97117306 72.15937327 56.15454102 69.9934082 C54.88754679 69.01302622 53.62061609 68.03256212 52.35375977 67.05200195 C51.49379395 66.39615112 51.49379395 66.39615112 50.61645508 65.72705078 C43.76984964 60.40643312 43.76984964 60.40643312 42.82250977 55.9934082 C42.76563436 51.89126986 42.9785356 49.68778475 45.16625977 46.11450195 C49.56042348 43.39012045 53.23106488 43.3270948 58.29125977 44.17700195 C61.52305078 45.77719183 64.08034915 47.94296456 66.79125977 50.30200195 C68.36365036 51.59691185 69.93658239 52.89116454 71.51000977 54.18481445 C72.3027832 54.85029297 73.09555664 55.51577148 73.91235352 56.20141602 C77.63109384 59.28968025 81.46192479 62.22794498 85.29125977 65.17700195 C86.79187382 66.34287869 88.29187267 67.50954769 89.79125977 68.67700195 C90.53375977 69.25450195 91.27625977 69.83200195 92.04125977 70.42700195 C98.79125977 75.67700195 98.79125977 75.67700195 101.04418945 77.42944336 C102.53421325 78.58824283 104.02444539 79.74677445 105.51489258 80.9050293 C109.41933827 83.93982513 113.31933932 86.98011231 117.21313477 90.02856445 C118.42549805 90.97602539 118.42549805 90.97602539 119.66235352 91.94262695 C121.20276766 93.14662881 122.74191459 94.35225444 124.27954102 95.55981445 C128.18599204 98.61015559 132.12506776 101.49124924 136.29125977 104.17700195 C135.33055394 85.92359134 126.11648876 68.7156825 114.29125977 55.17700195 C113.76274414 54.50540039 113.23422852 53.83379883 112.68969727 53.1418457 C100.75545989 38.35632501 82.39321347 28.94261834 64.29125977 24.17700195 C63.59154053 23.9886377 62.89182129 23.80027344 62.17089844 23.60620117 C52.00581112 21.30310224 41.45916143 21.96225683 31.10375977 22.05200195 C29.08227982 22.0620502 27.06079504 22.07117279 25.03930664 22.0793457 C20.12317041 22.10121681 15.20726912 22.1356455 10.29125977 22.17700195 Z M182.84985352 75.77856445 C180.85792743 78.17199423 179.05428277 80.61082403 177.29125977 83.17700195 C176.62868164 84.11415039 175.96610352 85.05129883 175.28344727 86.0168457 C171.0770158 92.35848097 168.03091375 98.76143601 165.35375977 105.86450195 C165.05912842 106.63592529 164.76449707 107.40734863 164.4609375 108.20214844 C162.44913164 113.82887128 161.6468884 119.22198098 161.29125977 125.17700195 C167.00461791 121.5754023 172.21667697 117.64779259 177.36132812 113.26879883 C181.49170262 109.78112679 185.76102726 106.52008077 190.10375977 103.30200195 C195.47841496 99.31621614 200.76940592 95.25176492 205.97875977 91.05200195 C238.54363486 64.80384605 238.54363486 64.80384605 246.25219727 64.88793945 C249.45670538 65.34221838 251.11850187 66.87256176 253.29125977 69.17700195 C254.52660021 72.8830233 254.74654722 75.27453809 254.29125977 79.17700195 C250.86681614 84.49176903 245.93209698 88.24060052 240.85375977 91.86450195 C239.43035116 92.90537671 238.0085135 93.94840266 236.58813477 94.9934082 C235.87206055 95.51950684 235.15598633 96.04560547 234.41821289 96.58764648 C231.08273437 99.08006673 227.84155541 101.68465006 224.60375977 104.30200195 C218.52205983 109.20662411 212.36306661 113.99212255 206.16040039 118.7434082 C202.34324627 121.67108963 198.53399004 124.60884357 194.72875977 127.55200195 C193.56703247 128.44508057 193.56703247 128.44508057 192.38183594 129.35620117 C188.80658521 132.12563419 185.37849756 134.85228433 182.29125977 138.17700195 C211.57424668 139.27740647 234.95630634 131.64131873 257.29125977 112.17700195 C257.92805664 111.6252832 258.56485352 111.07356445 259.22094727 110.50512695 C273.91940245 96.82269401 283.49499107 75.82349391 286.29125977 56.17700195 C286.35648849 53.88616906 286.37714387 51.59364401 286.35375977 49.30200195 C286.34473633 48.14958008 286.33571289 46.9971582 286.32641602 45.80981445 C286.31481445 44.94098633 286.30321289 44.0721582 286.29125977 43.17700195 C281.04837014 43.10160086 275.80581111 43.04782413 270.5625 43.01220703 C268.78705331 42.99732496 267.01164196 42.97701275 265.23632812 42.95068359 C232.9222253 42.48421905 205.37058313 51.78047497 182.84985352 75.77856445 Z M142.31079102 251.25512695 C141.31909912 251.91569092 140.32740723 252.57625488 139.30566406 253.25683594 C138.24903564 253.97299072 137.19240723 254.68914551 136.10375977 255.42700195 C134.48304565 256.51766968 134.48304565 256.51766968 132.82958984 257.63037109 C117.31306913 268.14215855 102.49583212 279.41935373 88.63500977 292.05200195 C86.48433266 294.0019492 84.30301005 295.90726324 82.10375977 297.80200195 C74.70559984 304.28279005 68.26577083 311.34646364 62.29125977 319.17700195 C62.29125977 319.50700195 62.29125977 319.83700195 62.29125977 320.17700195 C63.01295003 320.17846851 63.73464029 320.17993507 64.47819996 320.18144608 C82.07386523 320.21856806 99.66932114 320.27765397 117.26482868 320.36090469 C125.77404898 320.40064042 134.28317752 320.43306058 142.79248047 320.44799805 C150.21296132 320.46104301 157.63323982 320.48807985 165.05360669 320.53161502 C168.97926664 320.55416623 172.90467763 320.56991647 176.8304081 320.5688858 C180.53319258 320.5681354 184.23542803 320.58623649 187.9380703 320.61816978 C189.92905239 320.63061428 191.920127 320.62363443 193.91113281 320.61585999 C206.62248232 320.76202582 216.90935792 324.42056023 226.29125977 333.17700195 C230.16467494 338.1422056 233.0740174 343.28910955 235.29125977 349.17700195 C238.74327616 347.69978773 240.94087913 345.73906195 243.54125977 343.05200195 C244.24766602 342.32754883 244.95407227 341.6030957 245.68188477 340.85668945 C246.21297852 340.30239258 246.74407227 339.7480957 247.29125977 339.17700195 C243.10141471 327.95062285 235.13603322 319.0132493 227.29125977 310.17700195 C226.81575684 309.63833496 226.34025391 309.09966797 225.8503418 308.54467773 C220.93631206 302.99982683 215.97552645 297.62685478 210.28344727 292.8605957 C208.07221799 290.99189018 205.97267276 289.02466001 203.85375977 287.05200195 C189.28682852 273.93285439 172.79428088 262.65468118 156.41625977 251.92700195 C155.8391626 251.54382813 155.26206543 251.1606543 154.66748047 250.76586914 C149.42272228 247.38909618 147.35591824 247.88041704 142.31079102 251.25512695 Z M-106.70874023 331.17700195 C-106.70874023 383.64700195 -106.70874023 436.11700195 -106.70874023 490.17700195 C-78.98874023 490.17700195 -51.26874023 490.17700195 -22.70874023 490.17700195 C-22.70874023 437.70700195 -22.70874023 385.23700195 -22.70874023 331.17700195 C-50.42874023 331.17700195 -78.14874023 331.17700195 -106.70874023 331.17700195 Z M310.43261719 306.92211914 C309.19889374 308.15562355 309.19889374 308.15562355 307.94024658 309.41404724 C305.25669299 312.09829027 302.57668738 314.78604535 299.89672852 317.47387695 C298.01749735 319.35497658 296.13806854 321.23587665 294.25837708 323.11651611 C289.83565449 327.54232871 285.4154822 331.97067904 280.99625808 336.3999846 C275.97940785 341.42803196 270.95970355 346.45322587 265.93975675 351.47818136 C257.35645817 360.0701385 248.77525821 368.66418761 240.19648743 377.26066589 C239.1350502 378.32427086 239.1350502 378.32427086 238.0521698 379.40936279 C237.39972982 380.06349907 236.74728985 380.71763535 236.07507896 381.39159393 C234.96364286 382.50401998 233.85053234 383.61477875 232.73487282 384.72296906 C230.33112916 387.11093022 228.11538317 389.54731162 225.97875977 392.17700195 C219.21814358 399.93053802 210.32873813 403.57689069 200.29125977 405.17700195 C197.04361676 405.33318971 193.79831994 405.33417182 190.54736328 405.33813477 C189.57116028 405.34309967 188.59495728 405.34806458 187.58917236 405.35317993 C184.36616304 405.3677619 181.14320288 405.37459599 177.92016602 405.38012695 C175.677241 405.38588046 173.43431599 405.39163817 171.19139099 405.3973999 C166.49152396 405.40789775 161.79167398 405.41374878 157.09179688 405.41723633 C151.07152631 405.42272686 145.05148124 405.44677212 139.03128147 405.47520828 C134.39958537 405.4938338 129.76794369 405.49904016 125.1362133 405.5005722 C122.91666363 405.50359805 120.69711489 405.51162426 118.47760201 405.52475739 C115.37307671 405.54182019 112.269104 405.5399372 109.16455078 405.53344727 C108.24955307 405.54266205 107.33455536 405.55187683 106.39183044 405.56137085 C101.28118856 405.52791973 97.7028051 405.05725337 93.29125977 402.17700195 C90.91963096 398.5680016 91.17769041 395.28316109 91.51391602 391.1418457 C92.75445425 388.00621388 94.44194695 386.965855 97.29125977 385.17700195 C100.43708054 384.59286227 103.53566789 384.63338978 106.72802734 384.6628418 C107.67175705 384.65571671 108.61548676 384.64859161 109.58781433 384.64125061 C112.70401959 384.62197065 115.81954588 384.63025062 118.93579102 384.63793945 C121.10667409 384.62803171 123.27754876 384.61609017 125.44841003 384.60220337 C131.16476 384.569819 136.88091841 384.55944811 142.59735107 384.55535889 C151.73602911 384.54660978 160.87454944 384.51099681 170.01309776 384.46318436 C173.19928786 384.4506325 176.38527769 384.4513548 179.57148743 384.45346069 C181.53642936 384.44687646 183.50136993 384.43986943 185.46630859 384.43237305 C186.34606354 384.43649704 187.22581848 384.44062103 188.13223267 384.44487 C197.3592981 384.38491064 204.71802278 382.75023894 211.47875977 375.98950195 C214.97159244 370.56958918 216.84268974 365.60747653 215.85375977 359.11450195 C214.26292309 352.81007512 210.88547901 348.13848479 205.72875977 344.23950195 C194.68570623 339.42586323 179.35087091 341.09930999 167.49047852 341.13012695 C166.40718262 341.13179367 165.32388672 341.13346039 164.20776367 341.13517761 C160.23557081 341.14438244 156.26342333 341.15964822 152.29125977 341.17700195 C151.4859293 341.18041218 150.68059883 341.1838224 149.85086441 341.18733597 C138.26874332 341.23768712 126.68696335 341.3120625 115.10516834 341.41272831 C109.91265592 341.45759081 104.72022922 341.49692378 99.52758789 341.5234375 C94.41403494 341.54969894 89.30076721 341.59018595 84.18739319 341.64018822 C82.27087448 341.65661757 80.35430753 341.66827816 78.43772888 341.67461586 C54.12691461 341.76338175 31.34549771 346.12200017 9.48203278 357.08217335 C8.06140771 357.7921241 6.62436775 358.47046404 5.17073822 359.11012554 C2.02705381 360.70011645 -0.27034544 361.87329385 -1.43057251 365.32360268 C-1.69682004 368.07120839 -1.69849876 370.71557808 -1.61694336 373.47509766 C-1.61811157 374.50970627 -1.61927979 375.54431488 -1.6204834 376.61027527 C-1.61491511 380.02581617 -1.55271751 383.43785345 -1.48999023 386.8527832 C-1.47506737 389.22216382 -1.46368057 391.59156914 -1.45568848 393.96098328 C-1.42515898 400.19398282 -1.34658547 406.4254883 -1.25805664 412.65789795 C-1.17618475 419.01887804 -1.13967391 425.38009984 -1.09936523 431.74145508 C-1.01359488 444.22062676 -0.87707527 456.69869007 -0.70874023 469.17700195 C23.15318128 469.24723003 47.01508719 469.30005757 70.87709141 469.33243847 C81.95780973 469.34787626 93.03846365 469.36890648 104.11914062 469.40332031 C113.78237276 469.43331748 123.44555823 469.45259937 133.10883564 469.45926744 C138.22063695 469.46316227 143.33230483 469.4722507 148.44406319 469.49419212 C153.26621711 469.51472063 158.08818402 469.52080305 162.9103775 469.516325 C164.66983752 469.51714294 166.42930451 469.5230103 168.18872643 469.53461838 C197.4465933 469.71800478 217.36765389 459.95100408 238.16767883 439.45448303 C240.3595103 437.28444122 242.54497171 435.10806061 244.72998047 432.93115234 C245.94483394 431.72422124 247.15986076 430.5174646 248.37504578 429.31086731 C252.3260442 425.38580865 256.27184704 421.45554979 260.21704102 417.5246582 C261.58332561 416.16374195 262.94961478 414.8028303 264.31590843 413.44192314 C269.99821635 407.78118888 275.6791056 402.11903724 281.35628986 396.4531641 C289.45956596 388.36614906 297.57123902 380.28776991 305.69476253 372.22109228 C311.42777215 366.52682739 317.15112328 360.82296786 322.8674342 355.11194032 C326.27347092 351.70954625 329.68351281 348.31141388 333.10396767 344.9235096 C336.31864326 341.739 339.52112832 338.5427107 342.71487617 335.33721733 C343.88396094 334.16791265 345.05728337 333.002826 346.23526382 331.84248352 C357.30375831 320.99652396 357.30375831 320.99652396 361.85375977 306.55200195 C361.41695524 300.03441857 358.69020331 295.17370635 353.91625977 290.80200195 C336.63976623 277.2748751 322.05615711 295.24293399 310.43261719 306.92211914 Z " fill="#000000" transform="translate(128.708740234375,-0.177001953125)"/>
</svg>
