<?xml version="1.0" encoding="UTF-8"?>
<svg version="1.1" xmlns="http://www.w3.org/2000/svg" width="512" height="512">
<path d="M0 0 C-0.61887403 4.84597832 -2.66857615 8.64814438 -4.90234375 12.9140625 C-5.29553802 13.67674438 -5.6887323 14.43942627 -6.09384155 15.22521973 C-7.36906375 17.69496933 -8.65311135 20.16000685 -9.9375 22.625 C-10.81908298 24.32771408 -11.70018549 26.03067701 -12.58081055 27.73388672 C-17.5322314 37.29988065 -22.51809505 46.84781767 -27.55859375 56.3671875 C-30.69965402 62.3095905 -33.78426748 68.28131632 -36.875 74.25 C-41.71906569 83.60428272 -46.57830274 92.9503528 -51.45605469 102.28710938 C-54.75387779 108.60301976 -58.03733647 114.92624272 -61.31396484 121.25317383 C-64.20596983 126.83718399 -67.10168696 132.41926154 -70 138 C-70.48275391 138.9295752 -70.96550781 139.85915039 -71.46289062 140.81689453 C-73.55012491 144.82937103 -75.65303101 148.83027514 -77.8046875 152.80859375 C-79.26579798 155.52736102 -80.56172026 158.25298912 -81.7578125 161.09765625 C-84.03044982 166.22305488 -86.30093729 170.55992917 -91.65625 172.828125 C-96.34295861 174.38764427 -101.13675812 175.19944492 -106 176 C-108.06407074 176.37613287 -110.12786221 176.75380071 -112.19140625 177.1328125 C-124.35104448 179.29728746 -136.41109539 180.9707758 -148.75 181.5625 C-149.9565625 181.62727539 -149.9565625 181.62727539 -151.1875 181.69335938 C-199.67273965 184.09475096 -247.17165807 173.97491814 -293.85400391 162.05761719 C-310.15294236 157.8974463 -326.27675844 153.99893994 -343 152 C-343.70825928 151.9057373 -344.41651855 151.81147461 -345.14624023 151.71435547 C-353.78965148 150.68117534 -362.49515642 150.75624138 -371.1875 150.75 C-372.03281281 150.74932526 -372.87812561 150.74865051 -373.74905396 150.74795532 C-387.37894155 150.76519753 -400.57731082 151.47682509 -414 154 C-414.90572754 154.16097168 -415.81145508 154.32194336 -416.74462891 154.48779297 C-446.9755506 159.96376121 -477.32668352 170.88445568 -503 188 C-505.31 188 -507.62 188 -510 188 C-510 172.49 -510 156.98 -510 141 C-488.04884385 129.44675992 -488.04884385 129.44675992 -477.625 124.6875 C-475.85165283 123.87212769 -475.85165283 123.87212769 -474.04248047 123.0402832 C-470.96807346 121.62851269 -467.89003024 120.22487643 -464.81054688 118.82421875 C-463.04727077 118.02151916 -461.28533478 117.21587781 -459.5234375 116.41015625 C-411.43319289 94.4463885 -362.33442057 74.75218735 -312.26647949 57.77026367 C-310.06464187 57.02196856 -307.86455141 56.26877137 -305.66503906 55.51367188 C-233.16520756 30.64252403 -158.22141726 11.76949875 -82 3 C-81.29711853 2.9175 -80.59423706 2.835 -79.87005615 2.75 C-53.2631721 -0.35782342 -26.75973372 -0.3389068 0 0 Z M-249 71 C-251.9741633 75.31733382 -252.6486549 78.81076076 -252 84 C-249.74794145 88.33729795 -247.5613976 91.13397371 -243 93 C-238.17276908 93.53635899 -236.02109214 93.52017901 -231.6875 91.3125 C-227.5330119 87.73770791 -226.17358221 85.56223989 -225.5625 80.0625 C-225.74873607 75.77097319 -227.13014641 73.2474659 -230 70 C-236.80148335 65.56424999 -242.79893364 65.94205951 -249 71 Z M-294 87 C-295.73704155 90.4740831 -295.46041616 94.20156669 -295 98 C-292.80613412 102.38773175 -290.55479418 105.09334197 -286 107 C-280.98657251 107.53715295 -277.98742057 107.12527558 -274 104 C-270.29538114 100.03317965 -270.29538114 100.03317965 -268.98046875 95.01171875 C-269.43904222 89.86358266 -270.08237158 86.69376394 -274 83 C-281.72977032 78.45593 -288.34745849 80.50630648 -294 87 Z M-332 97 C-335.12111436 100.36751813 -336.87121763 102.66066333 -337.3125 107.25 C-336.88052397 112.43371238 -334.80333044 115.19666956 -331.1875 118.8125 C-327.98571353 120.55061266 -325.65552994 120.9390745 -322 121 C-317.89909946 119.726007 -314.85555454 117.96249885 -312 114.75 C-310.27869016 110.01639793 -310.18130026 105.89593625 -312.1875 101.25 C-315.0287524 97.72292806 -317.5268096 95.48038817 -321.875 94.0625 C-325.99268211 93.98014636 -328.41155907 95.00642171 -332 97 Z " fill="#000000" transform="translate(512,153)"/>
<path d="M0 0 C0.91452942 -0.00526703 1.82905884 -0.01053406 2.77130127 -0.01596069 C5.46747515 -0.02795537 8.16319494 -0.02422528 10.859375 -0.015625 C11.63725372 -0.01957779 12.41513245 -0.02353058 13.21658325 -0.02760315 C31.35705053 0.11509029 48.74011537 4.07705799 66.34765625 8.0625 C68.92014845 8.63837806 71.49277772 9.21364415 74.0655365 9.78833008 C79.41642455 10.98517064 84.76549404 12.18987694 90.11352539 13.39941406 C96.29622915 14.79761222 102.4817915 16.18256787 108.66896063 17.56086063 C114.64869341 18.89329039 120.62624912 20.23522131 126.60290337 21.58139038 C129.13862279 22.1515794 131.67489553 22.71931337 134.21171761 23.28457642 C137.7342825 24.07084521 141.25423642 24.8678691 144.77368164 25.66796875 C145.82649323 25.90075531 146.87930481 26.13354187 147.96401978 26.37338257 C148.91542343 26.59200958 149.86682709 26.8106366 150.84706116 27.03588867 C151.67818452 27.22318039 152.50930788 27.41047211 153.3656168 27.60343933 C155.25 28.25 155.25 28.25 156.25 30.25 C155.1067627 30.43997559 153.96352539 30.62995117 152.78564453 30.82568359 C77.66959735 43.39113064 3.32125978 63.7551757 -66.41430664 94.6953125 C-67.47641357 95.16453125 -68.53852051 95.63375 -69.6328125 96.1171875 C-70.55465332 96.53081543 -71.47649414 96.94444336 -72.42626953 97.37060547 C-74.75 98.25 -74.75 98.25 -77.75 98.25 C-81.2029198 88.08581345 -84.63409828 77.91760758 -87.6875 67.625 C-87.89850342 66.92189697 -88.10950684 66.21879395 -88.3269043 65.49438477 C-89.16109911 62.63717021 -89.75 60.24431851 -89.75 57.25 C-76.77183147 52.20111494 -63.78710606 47.45471409 -50.41577148 43.54663086 C-40.34518786 41.24771201 -40.34518786 41.24771201 -32.75 35.25 C-32.98212966 30.20998592 -32.98212966 30.20998592 -35.75 26.25 C-43.53985464 25.55050285 -50.0982419 27.45579827 -57.5 29.75 C-59.26234985 30.28270508 -59.26234985 30.28270508 -61.06030273 30.82617188 C-71.23480417 33.96038928 -81.16730148 37.62579295 -91.02368164 41.64257812 C-92.75 42.25 -92.75 42.25 -94.75 42.25 C-96.4 37.96 -98.05 33.67 -99.75 29.25 C-101.709375 29.600625 -103.66875 29.95125 -105.6875 30.3125 C-111.47118684 31.1421031 -116.92030625 31.34172085 -122.75 31 C-123.45503662 30.96140869 -124.16007324 30.92281738 -124.88647461 30.88305664 C-129.11609277 30.57644582 -132.79149859 29.75917866 -136.75 28.25 C-134.12019879 26.15147549 -131.71024591 24.66313571 -128.57421875 23.453125 C-127.35061646 22.97999878 -127.35061646 22.97999878 -126.10229492 22.49731445 C-125.2229126 22.16820068 -124.34353027 21.83908691 -123.4375 21.5 C-122.51106689 21.15219482 -121.58463379 20.80438965 -120.63012695 20.44604492 C-96.49427142 11.53450011 -71.81454542 5.66914012 -46.27734375 2.55859375 C-44.64855721 2.35971564 -43.02080782 2.15204881 -41.39453125 1.93359375 C-27.63690287 0.11307006 -13.85399593 0.04061586 0 0 Z " fill="#000000" transform="translate(208.75,123.75)"/>
<path d="M0 0 C0 2 0 2 -1.47973633 3.5090332 C-2.15286865 4.07968506 -2.82600098 4.65033691 -3.51953125 5.23828125 C-4.25381348 5.8617041 -4.9880957 6.48512695 -5.74462891 7.12744141 C-6.8610376 8.05435791 -6.8610376 8.05435791 -8 9 C-8.63212402 9.5264209 -9.26424805 10.0528418 -9.91552734 10.59521484 C-48.9652075 42.53931977 -99.11055763 56.74675883 -149 58 C-149.83289551 58.02191406 -150.66579102 58.04382813 -151.52392578 58.06640625 C-191.39005502 58.95248432 -229.26563037 50.77469016 -267.29003906 39.49145508 C-281.09351095 35.44232969 -295.11728563 32.46066881 -309.25 29.8125 C-310.06355957 29.6575708 -310.87711914 29.5026416 -311.71533203 29.34301758 C-328.17776185 26.37525668 -344.42962053 25.62655272 -361.125 25.6875 C-362.16214142 25.68932281 -363.19928284 25.69114563 -364.26785278 25.69302368 C-379.39174374 25.73777884 -394.10465382 26.16476698 -409 29 C-409.95664551 29.17160645 -410.91329102 29.34321289 -411.89892578 29.52001953 C-434.6994872 33.65717345 -456.52597234 40.34734965 -478 49 C-478.33 48.34 -478.66 47.68 -479 47 C-423.43708358 8.90719749 -358.64732288 -6.3111913 -291.76171875 6.11328125 C-280.66911686 8.32668983 -269.71155145 11.05453759 -258.75390625 13.84765625 C-227.02256149 21.93426518 -195.66665518 28.89972537 -163 32 C-161.51439575 32.14139404 -161.51439575 32.14139404 -159.9987793 32.28564453 C-151.14641904 33.04959195 -142.31660406 33.24281399 -133.4375 33.25 C-132.2989003 33.25101212 -132.2989003 33.25101212 -131.13729858 33.25204468 C-87.46596486 33.19104403 -41.84369859 23.96990215 -4.0078125 1.19921875 C-2 0 -2 0 0 0 Z " fill="#000000" transform="translate(479,310)"/>
<path d="M0 0 C10.86157628 2.72856124 21.72176535 5.24290552 32.72265625 7.34423828 C33.91640869 7.57473877 35.11016113 7.80523926 36.34008789 8.04272461 C50.76387152 10.73819658 65.30999477 12.69510765 79.99609375 12.94970703 C98.48791565 13.3389775 116.37916999 15.86365846 134.59765625 18.84423828 C131.91602632 21.52586821 128.89019809 22.20780351 125.34765625 23.28173828 C124.62892334 23.50128174 123.91019043 23.7208252 123.16967773 23.94702148 C78.69479101 37.2468692 33.51956274 30.46581439 -10.13305664 17.72973633 C-20.13622591 14.84342458 -30.12909319 12.52476776 -40.40234375 10.84423828 C-41.70171875 10.63154297 -43.00109375 10.41884766 -44.33984375 10.19970703 C-82.45153483 4.77191496 -117.91399236 10.25215168 -153.96411133 22.98388672 C-155.77081206 23.62139682 -157.58478275 24.23838462 -159.40234375 24.84423828 C-157.99628867 20.62607303 -154.97384843 19.36189152 -151.33984375 17.15673828 C-150.61958008 16.71612061 -149.89931641 16.27550293 -149.15722656 15.8215332 C-101.87857146 -12.68047709 -52.23883884 -13.14929067 0 0 Z " fill="#000000" transform="translate(162.40234375,357.15576171875)"/>
<path d="M0 0 C28.31655231 0.44497439 57.43873506 7.38005468 84 17 C84 17.33 84 17.66 84 18 C55.34954842 15.91333409 27.63749093 8.45927077 0 1 C0 0.67 0 0.34 0 0 Z " fill="#000000" transform="translate(140,345)"/>
</svg>
